%TF.GenerationSoftware,KiCad,Pcbnew,8.0.6*%
%TF.CreationDate,2025-07-08T21:52:46+01:00*%
%TF.ProjectId,disturbance-free-calling,64697374-7572-4626-916e-63652d667265,0.1*%
%TF.SameCoordinates,Original*%
%TF.FileFunction,Soldermask,Top*%
%TF.FilePolarity,Negative*%
%FSLAX46Y46*%
G04 Gerber Fmt 4.6, Leading zero omitted, Abs format (unit mm)*
G04 Created by KiCad (PCBNEW 8.0.6) date 2025-07-08 21:52:46*
%MOMM*%
%LPD*%
G01*
G04 APERTURE LIST*
G04 Aperture macros list*
%AMRoundRect*
0 Rectangle with rounded corners*
0 $1 Rounding radius*
0 $2 $3 $4 $5 $6 $7 $8 $9 X,Y pos of 4 corners*
0 Add a 4 corners polygon primitive as box body*
4,1,4,$2,$3,$4,$5,$6,$7,$8,$9,$2,$3,0*
0 Add four circle primitives for the rounded corners*
1,1,$1+$1,$2,$3*
1,1,$1+$1,$4,$5*
1,1,$1+$1,$6,$7*
1,1,$1+$1,$8,$9*
0 Add four rect primitives between the rounded corners*
20,1,$1+$1,$2,$3,$4,$5,0*
20,1,$1+$1,$4,$5,$6,$7,0*
20,1,$1+$1,$6,$7,$8,$9,0*
20,1,$1+$1,$8,$9,$2,$3,0*%
G04 Aperture macros list end*
%ADD10RoundRect,0.250000X-0.262500X-0.450000X0.262500X-0.450000X0.262500X0.450000X-0.262500X0.450000X0*%
%ADD11RoundRect,0.090000X-0.360000X0.660000X-0.360000X-0.660000X0.360000X-0.660000X0.360000X0.660000X0*%
%ADD12RoundRect,0.250000X0.250000X0.475000X-0.250000X0.475000X-0.250000X-0.475000X0.250000X-0.475000X0*%
G04 APERTURE END LIST*
D10*
%TO.C,R1*%
X135064442Y-67728500D03*
X136889442Y-67728500D03*
%TD*%
D11*
%TO.C,D4*%
X115286314Y-60161000D03*
X111986314Y-60161000D03*
X111986314Y-65061000D03*
X115286314Y-65061000D03*
%TD*%
%TO.C,D10*%
X72024426Y-60161000D03*
X68724426Y-60161000D03*
X68724426Y-65061000D03*
X72024426Y-65061000D03*
%TD*%
D12*
%TO.C,C10*%
X72326942Y-57728500D03*
X70426942Y-57728500D03*
%TD*%
D11*
%TO.C,D5*%
X108076000Y-60161000D03*
X104776000Y-60161000D03*
X104776000Y-65061000D03*
X108076000Y-65061000D03*
%TD*%
D12*
%TO.C,C5*%
X108364442Y-57728500D03*
X106464442Y-57728500D03*
%TD*%
D11*
%TO.C,D1*%
X136917256Y-60161000D03*
X133617256Y-60161000D03*
X133617256Y-65061000D03*
X136917256Y-65061000D03*
%TD*%
D12*
%TO.C,C4*%
X115489442Y-57728500D03*
X113589442Y-57728500D03*
%TD*%
%TO.C,C7*%
X93889442Y-57728500D03*
X91989442Y-57728500D03*
%TD*%
D11*
%TO.C,D3*%
X122496628Y-60161000D03*
X119196628Y-60161000D03*
X119196628Y-65061000D03*
X122496628Y-65061000D03*
%TD*%
%TO.C,D7*%
X93655372Y-60161000D03*
X90355372Y-60161000D03*
X90355372Y-65061000D03*
X93655372Y-65061000D03*
%TD*%
D12*
%TO.C,C8*%
X86764442Y-57728500D03*
X84864442Y-57728500D03*
%TD*%
%TO.C,C1*%
X137089442Y-57728500D03*
X135189442Y-57728500D03*
%TD*%
D11*
%TO.C,D6*%
X100865686Y-60161000D03*
X97565686Y-60161000D03*
X97565686Y-65061000D03*
X100865686Y-65061000D03*
%TD*%
D12*
%TO.C,C6*%
X101089442Y-57728500D03*
X99189442Y-57728500D03*
%TD*%
%TO.C,C3*%
X122689442Y-57728500D03*
X120789442Y-57728500D03*
%TD*%
%TO.C,C9*%
X79489442Y-57728500D03*
X77589442Y-57728500D03*
%TD*%
D11*
%TO.C,D2*%
X129706942Y-60161000D03*
X126406942Y-60161000D03*
X126406942Y-65061000D03*
X129706942Y-65061000D03*
%TD*%
D12*
%TO.C,C2*%
X129889442Y-57728500D03*
X127989442Y-57728500D03*
%TD*%
D11*
%TO.C,D8*%
X86445058Y-60161000D03*
X83145058Y-60161000D03*
X83145058Y-65061000D03*
X86445058Y-65061000D03*
%TD*%
%TO.C,D9*%
X79234744Y-60161000D03*
X75934744Y-60161000D03*
X75934744Y-65061000D03*
X79234744Y-65061000D03*
%TD*%
M02*
