%TF.GenerationSoftware,KiCad,Pcbnew,8.0.6*%
%TF.CreationDate,2025-02-09T14:24:31+00:00*%
%TF.ProjectId,disturbance-free-calling,64697374-7572-4626-916e-63652d667265,rev?*%
%TF.SameCoordinates,Original*%
%TF.FileFunction,Soldermask,Top*%
%TF.FilePolarity,Negative*%
%FSLAX46Y46*%
G04 Gerber Fmt 4.6, Leading zero omitted, Abs format (unit mm)*
G04 Created by KiCad (PCBNEW 8.0.6) date 2025-02-09 14:24:31*
%MOMM*%
%LPD*%
G01*
G04 APERTURE LIST*
G04 Aperture macros list*
%AMRoundRect*
0 Rectangle with rounded corners*
0 $1 Rounding radius*
0 $2 $3 $4 $5 $6 $7 $8 $9 X,Y pos of 4 corners*
0 Add a 4 corners polygon primitive as box body*
4,1,4,$2,$3,$4,$5,$6,$7,$8,$9,$2,$3,0*
0 Add four circle primitives for the rounded corners*
1,1,$1+$1,$2,$3*
1,1,$1+$1,$4,$5*
1,1,$1+$1,$6,$7*
1,1,$1+$1,$8,$9*
0 Add four rect primitives between the rounded corners*
20,1,$1+$1,$2,$3,$4,$5,0*
20,1,$1+$1,$4,$5,$6,$7,0*
20,1,$1+$1,$6,$7,$8,$9,0*
20,1,$1+$1,$8,$9,$2,$3,0*%
G04 Aperture macros list end*
%ADD10RoundRect,0.250000X0.262500X0.450000X-0.262500X0.450000X-0.262500X-0.450000X0.262500X-0.450000X0*%
%ADD11RoundRect,0.090000X-0.360000X0.660000X-0.360000X-0.660000X0.360000X-0.660000X0.360000X0.660000X0*%
%ADD12RoundRect,0.250000X0.250000X0.475000X-0.250000X0.475000X-0.250000X-0.475000X0.250000X-0.475000X0*%
G04 APERTURE END LIST*
D10*
%TO.C,R1*%
X137312500Y-65200000D03*
X135487500Y-65200000D03*
%TD*%
D11*
%TO.C,D4*%
X115509372Y-57632500D03*
X112209372Y-57632500D03*
X112209372Y-62532500D03*
X115509372Y-62532500D03*
%TD*%
%TO.C,D10*%
X72247484Y-57632500D03*
X68947484Y-57632500D03*
X68947484Y-62532500D03*
X72247484Y-62532500D03*
%TD*%
D12*
%TO.C,C10*%
X72550000Y-55200000D03*
X70650000Y-55200000D03*
%TD*%
D11*
%TO.C,D5*%
X108299058Y-57632500D03*
X104999058Y-57632500D03*
X104999058Y-62532500D03*
X108299058Y-62532500D03*
%TD*%
D12*
%TO.C,C5*%
X108587500Y-55200000D03*
X106687500Y-55200000D03*
%TD*%
D11*
%TO.C,D1*%
X137140314Y-57632500D03*
X133840314Y-57632500D03*
X133840314Y-62532500D03*
X137140314Y-62532500D03*
%TD*%
D12*
%TO.C,C4*%
X115712500Y-55200000D03*
X113812500Y-55200000D03*
%TD*%
%TO.C,C7*%
X94112500Y-55200000D03*
X92212500Y-55200000D03*
%TD*%
D11*
%TO.C,D3*%
X122719686Y-57632500D03*
X119419686Y-57632500D03*
X119419686Y-62532500D03*
X122719686Y-62532500D03*
%TD*%
%TO.C,D7*%
X93878430Y-57632500D03*
X90578430Y-57632500D03*
X90578430Y-62532500D03*
X93878430Y-62532500D03*
%TD*%
D12*
%TO.C,C8*%
X86987500Y-55200000D03*
X85087500Y-55200000D03*
%TD*%
%TO.C,C1*%
X137312500Y-55200000D03*
X135412500Y-55200000D03*
%TD*%
D11*
%TO.C,D6*%
X101088744Y-57632500D03*
X97788744Y-57632500D03*
X97788744Y-62532500D03*
X101088744Y-62532500D03*
%TD*%
D12*
%TO.C,C6*%
X101312500Y-55200000D03*
X99412500Y-55200000D03*
%TD*%
%TO.C,C3*%
X122912500Y-55200000D03*
X121012500Y-55200000D03*
%TD*%
%TO.C,C9*%
X79712500Y-55200000D03*
X77812500Y-55200000D03*
%TD*%
D11*
%TO.C,D2*%
X129930000Y-57632500D03*
X126630000Y-57632500D03*
X126630000Y-62532500D03*
X129930000Y-62532500D03*
%TD*%
D12*
%TO.C,C2*%
X130112500Y-55200000D03*
X128212500Y-55200000D03*
%TD*%
D11*
%TO.C,D8*%
X86668116Y-57632500D03*
X83368116Y-57632500D03*
X83368116Y-62532500D03*
X86668116Y-62532500D03*
%TD*%
%TO.C,D9*%
X79457802Y-57632500D03*
X76157802Y-57632500D03*
X76157802Y-62532500D03*
X79457802Y-62532500D03*
%TD*%
M02*
