%TF.GenerationSoftware,KiCad,Pcbnew,8.0.6*%
%TF.CreationDate,2025-07-08T21:52:45+01:00*%
%TF.ProjectId,disturbance-free-calling,64697374-7572-4626-916e-63652d667265,0.1*%
%TF.SameCoordinates,Original*%
%TF.FileFunction,Copper,L1,Top*%
%TF.FilePolarity,Positive*%
%FSLAX46Y46*%
G04 Gerber Fmt 4.6, Leading zero omitted, Abs format (unit mm)*
G04 Created by KiCad (PCBNEW 8.0.6) date 2025-07-08 21:52:45*
%MOMM*%
%LPD*%
G01*
G04 APERTURE LIST*
G04 Aperture macros list*
%AMRoundRect*
0 Rectangle with rounded corners*
0 $1 Rounding radius*
0 $2 $3 $4 $5 $6 $7 $8 $9 X,Y pos of 4 corners*
0 Add a 4 corners polygon primitive as box body*
4,1,4,$2,$3,$4,$5,$6,$7,$8,$9,$2,$3,0*
0 Add four circle primitives for the rounded corners*
1,1,$1+$1,$2,$3*
1,1,$1+$1,$4,$5*
1,1,$1+$1,$6,$7*
1,1,$1+$1,$8,$9*
0 Add four rect primitives between the rounded corners*
20,1,$1+$1,$2,$3,$4,$5,0*
20,1,$1+$1,$4,$5,$6,$7,0*
20,1,$1+$1,$6,$7,$8,$9,0*
20,1,$1+$1,$8,$9,$2,$3,0*%
G04 Aperture macros list end*
%TA.AperFunction,SMDPad,CuDef*%
%ADD10RoundRect,0.250000X-0.262500X-0.450000X0.262500X-0.450000X0.262500X0.450000X-0.262500X0.450000X0*%
%TD*%
%TA.AperFunction,SMDPad,CuDef*%
%ADD11RoundRect,0.090000X-0.360000X0.660000X-0.360000X-0.660000X0.360000X-0.660000X0.360000X0.660000X0*%
%TD*%
%TA.AperFunction,SMDPad,CuDef*%
%ADD12RoundRect,0.250000X0.250000X0.475000X-0.250000X0.475000X-0.250000X-0.475000X0.250000X-0.475000X0*%
%TD*%
%TA.AperFunction,ViaPad*%
%ADD13C,0.600000*%
%TD*%
%TA.AperFunction,Conductor*%
%ADD14C,0.203200*%
%TD*%
%TA.AperFunction,Conductor*%
%ADD15C,0.381000*%
%TD*%
%TA.AperFunction,Conductor*%
%ADD16C,0.200000*%
%TD*%
G04 APERTURE END LIST*
D10*
%TO.P,R1,1*%
%TO.N,Net-(U1-PA6_A10_D10_MOSI)*%
X135064442Y-67728500D03*
%TO.P,R1,2*%
%TO.N,DATA*%
X136889442Y-67728500D03*
%TD*%
D11*
%TO.P,D4,1,VDD*%
%TO.N,+5V*%
X115286314Y-60161000D03*
%TO.P,D4,2,DOUT*%
%TO.N,Net-(D4-DOUT)*%
X111986314Y-60161000D03*
%TO.P,D4,3,VSS*%
%TO.N,GND*%
X111986314Y-65061000D03*
%TO.P,D4,4,DIN*%
%TO.N,Net-(D3-DOUT)*%
X115286314Y-65061000D03*
%TD*%
%TO.P,D10,1,VDD*%
%TO.N,+5V*%
X72024426Y-60161000D03*
%TO.P,D10,2,DOUT*%
%TO.N,unconnected-(D10-DOUT-Pad2)*%
X68724426Y-60161000D03*
%TO.P,D10,3,VSS*%
%TO.N,GND*%
X68724426Y-65061000D03*
%TO.P,D10,4,DIN*%
%TO.N,Net-(D10-DIN)*%
X72024426Y-65061000D03*
%TD*%
D12*
%TO.P,C10,1*%
%TO.N,+5V*%
X72326942Y-57728500D03*
%TO.P,C10,2*%
%TO.N,GND*%
X70426942Y-57728500D03*
%TD*%
D11*
%TO.P,D5,1,VDD*%
%TO.N,+5V*%
X108076000Y-60161000D03*
%TO.P,D5,2,DOUT*%
%TO.N,Net-(D5-DOUT)*%
X104776000Y-60161000D03*
%TO.P,D5,3,VSS*%
%TO.N,GND*%
X104776000Y-65061000D03*
%TO.P,D5,4,DIN*%
%TO.N,Net-(D4-DOUT)*%
X108076000Y-65061000D03*
%TD*%
D12*
%TO.P,C5,1*%
%TO.N,+5V*%
X108364442Y-57728500D03*
%TO.P,C5,2*%
%TO.N,GND*%
X106464442Y-57728500D03*
%TD*%
D11*
%TO.P,D1,1,VDD*%
%TO.N,+5V*%
X136917256Y-60161000D03*
%TO.P,D1,2,DOUT*%
%TO.N,Net-(D1-DOUT)*%
X133617256Y-60161000D03*
%TO.P,D1,3,VSS*%
%TO.N,GND*%
X133617256Y-65061000D03*
%TO.P,D1,4,DIN*%
%TO.N,DATA*%
X136917256Y-65061000D03*
%TD*%
D12*
%TO.P,C4,1*%
%TO.N,+5V*%
X115489442Y-57728500D03*
%TO.P,C4,2*%
%TO.N,GND*%
X113589442Y-57728500D03*
%TD*%
%TO.P,C7,1*%
%TO.N,+5V*%
X93889442Y-57728500D03*
%TO.P,C7,2*%
%TO.N,GND*%
X91989442Y-57728500D03*
%TD*%
D11*
%TO.P,D3,1,VDD*%
%TO.N,+5V*%
X122496628Y-60161000D03*
%TO.P,D3,2,DOUT*%
%TO.N,Net-(D3-DOUT)*%
X119196628Y-60161000D03*
%TO.P,D3,3,VSS*%
%TO.N,GND*%
X119196628Y-65061000D03*
%TO.P,D3,4,DIN*%
%TO.N,Net-(D2-DOUT)*%
X122496628Y-65061000D03*
%TD*%
%TO.P,D7,1,VDD*%
%TO.N,+5V*%
X93655372Y-60161000D03*
%TO.P,D7,2,DOUT*%
%TO.N,Net-(D7-DOUT)*%
X90355372Y-60161000D03*
%TO.P,D7,3,VSS*%
%TO.N,GND*%
X90355372Y-65061000D03*
%TO.P,D7,4,DIN*%
%TO.N,Net-(D6-DOUT)*%
X93655372Y-65061000D03*
%TD*%
D12*
%TO.P,C8,1*%
%TO.N,+5V*%
X86764442Y-57728500D03*
%TO.P,C8,2*%
%TO.N,GND*%
X84864442Y-57728500D03*
%TD*%
%TO.P,C1,1*%
%TO.N,+5V*%
X137089442Y-57728500D03*
%TO.P,C1,2*%
%TO.N,GND*%
X135189442Y-57728500D03*
%TD*%
D11*
%TO.P,D6,1,VDD*%
%TO.N,+5V*%
X100865686Y-60161000D03*
%TO.P,D6,2,DOUT*%
%TO.N,Net-(D6-DOUT)*%
X97565686Y-60161000D03*
%TO.P,D6,3,VSS*%
%TO.N,GND*%
X97565686Y-65061000D03*
%TO.P,D6,4,DIN*%
%TO.N,Net-(D5-DOUT)*%
X100865686Y-65061000D03*
%TD*%
D12*
%TO.P,C6,1*%
%TO.N,+5V*%
X101089442Y-57728500D03*
%TO.P,C6,2*%
%TO.N,GND*%
X99189442Y-57728500D03*
%TD*%
%TO.P,C3,1*%
%TO.N,+5V*%
X122689442Y-57728500D03*
%TO.P,C3,2*%
%TO.N,GND*%
X120789442Y-57728500D03*
%TD*%
%TO.P,C9,1*%
%TO.N,+5V*%
X79489442Y-57728500D03*
%TO.P,C9,2*%
%TO.N,GND*%
X77589442Y-57728500D03*
%TD*%
D11*
%TO.P,D2,1,VDD*%
%TO.N,+5V*%
X129706942Y-60161000D03*
%TO.P,D2,2,DOUT*%
%TO.N,Net-(D2-DOUT)*%
X126406942Y-60161000D03*
%TO.P,D2,3,VSS*%
%TO.N,GND*%
X126406942Y-65061000D03*
%TO.P,D2,4,DIN*%
%TO.N,Net-(D1-DOUT)*%
X129706942Y-65061000D03*
%TD*%
D12*
%TO.P,C2,1*%
%TO.N,+5V*%
X129889442Y-57728500D03*
%TO.P,C2,2*%
%TO.N,GND*%
X127989442Y-57728500D03*
%TD*%
D11*
%TO.P,D8,1,VDD*%
%TO.N,+5V*%
X86445058Y-60161000D03*
%TO.P,D8,2,DOUT*%
%TO.N,Net-(D8-DOUT)*%
X83145058Y-60161000D03*
%TO.P,D8,3,VSS*%
%TO.N,GND*%
X83145058Y-65061000D03*
%TO.P,D8,4,DIN*%
%TO.N,Net-(D7-DOUT)*%
X86445058Y-65061000D03*
%TD*%
%TO.P,D9,1,VDD*%
%TO.N,+5V*%
X79234744Y-60161000D03*
%TO.P,D9,2,DOUT*%
%TO.N,Net-(D10-DIN)*%
X75934744Y-60161000D03*
%TO.P,D9,3,VSS*%
%TO.N,GND*%
X75934744Y-65061000D03*
%TO.P,D9,4,DIN*%
%TO.N,Net-(D8-DOUT)*%
X79234744Y-65061000D03*
%TD*%
D13*
%TO.N,+5V*%
X135976942Y-56613000D03*
%TO.N,GND*%
X131475942Y-58027500D03*
%TO.N,Net-(U1-PA6_A10_D10_MOSI)*%
X131909025Y-67870973D03*
%TD*%
D14*
%TO.N,Net-(D1-DOUT)*%
X133617256Y-60161000D02*
X133617256Y-61150686D01*
X133617256Y-61150686D02*
X129706942Y-65061000D01*
D15*
%TO.N,+5V*%
X136061442Y-56613000D02*
X137176942Y-57728500D01*
X137176942Y-57728500D02*
X137176942Y-59901314D01*
X78461442Y-56613000D02*
X73529942Y-56613000D01*
X79576942Y-59818802D02*
X79234744Y-60161000D01*
X72414442Y-57728500D02*
X72414442Y-59770984D01*
X86851942Y-57728500D02*
X85736442Y-56613000D01*
X93976942Y-57728500D02*
X95092442Y-56613000D01*
X85736442Y-56613000D02*
X80692442Y-56613000D01*
X114461442Y-56613000D02*
X115576942Y-57728500D01*
X79376942Y-57728500D02*
X79576942Y-57728500D01*
X108451942Y-57728500D02*
X108451942Y-59785058D01*
X86851942Y-59754116D02*
X86445058Y-60161000D01*
X93976942Y-57728500D02*
X93976942Y-59839430D01*
X135976942Y-56613000D02*
X131092442Y-56613000D01*
X107336442Y-56613000D02*
X108451942Y-57728500D01*
X128861442Y-56613000D02*
X129976942Y-57728500D01*
X129976942Y-59891000D02*
X129706942Y-60161000D01*
X115576942Y-59870372D02*
X115286314Y-60161000D01*
X101176942Y-57728500D02*
X102292442Y-56613000D01*
X102292442Y-56613000D02*
X107336442Y-56613000D01*
X108451942Y-59785058D02*
X108076000Y-60161000D01*
X79576942Y-57728500D02*
X78461442Y-56613000D01*
X86851942Y-57728500D02*
X87967442Y-56613000D01*
X79576942Y-57728500D02*
X79176942Y-58128500D01*
X73529942Y-56613000D02*
X72414442Y-57728500D01*
X129976942Y-57728500D02*
X129976942Y-59891000D01*
X116692442Y-56613000D02*
X117576942Y-56613000D01*
X93976942Y-59839430D02*
X93655372Y-60161000D01*
X79576942Y-57728500D02*
X79576942Y-59818802D01*
X137176942Y-59901314D02*
X136917256Y-60161000D01*
X92861442Y-56613000D02*
X93976942Y-57728500D01*
X117576942Y-56613000D02*
X121661442Y-56613000D01*
X122776942Y-57728500D02*
X123892442Y-56613000D01*
X115576942Y-57728500D02*
X115576942Y-59870372D01*
X86851942Y-57728500D02*
X86851942Y-59754116D01*
X122776942Y-57728500D02*
X122776942Y-59880686D01*
X79176942Y-60103198D02*
X79234744Y-60161000D01*
X115576942Y-57728500D02*
X116692442Y-56613000D01*
X109692442Y-56613000D02*
X114461442Y-56613000D01*
X108576942Y-57728500D02*
X109692442Y-56613000D01*
X122776942Y-59880686D02*
X122496628Y-60161000D01*
X131092442Y-56613000D02*
X129976942Y-57728500D01*
X101176942Y-59849744D02*
X100865686Y-60161000D01*
X108451942Y-57728500D02*
X108576942Y-57728500D01*
X72414442Y-59770984D02*
X72024426Y-60161000D01*
X135976942Y-56613000D02*
X136061442Y-56613000D01*
X121661442Y-56613000D02*
X122776942Y-57728500D01*
X87967442Y-56613000D02*
X92861442Y-56613000D01*
X95092442Y-56613000D02*
X100061442Y-56613000D01*
X72414442Y-57728500D02*
X72414442Y-57766000D01*
X101176942Y-57728500D02*
X101176942Y-59849744D01*
X100061442Y-56613000D02*
X101176942Y-57728500D01*
X123892442Y-56613000D02*
X128861442Y-56613000D01*
X80692442Y-56613000D02*
X79576942Y-57728500D01*
%TO.N,GND*%
X111986314Y-65061000D02*
X112146000Y-65061000D01*
X70176942Y-57891000D02*
X70339442Y-57728500D01*
X90355372Y-65061000D02*
X90355372Y-64706930D01*
D14*
%TO.N,Net-(D2-DOUT)*%
X126406942Y-60161000D02*
X126406942Y-61150686D01*
X126406942Y-61150686D02*
X122496628Y-65061000D01*
%TO.N,Net-(D3-DOUT)*%
X119196628Y-60161000D02*
X119196628Y-61150686D01*
X119196628Y-61150686D02*
X115286314Y-65061000D01*
%TO.N,Net-(D4-DOUT)*%
X111986314Y-61150686D02*
X108076000Y-65061000D01*
X111986314Y-60161000D02*
X111986314Y-61150686D01*
%TO.N,Net-(D5-DOUT)*%
X104776000Y-60161000D02*
X104776000Y-61150686D01*
X104776000Y-61150686D02*
X100865686Y-65061000D01*
%TO.N,Net-(D6-DOUT)*%
X97565686Y-61150686D02*
X93655372Y-65061000D01*
X97565686Y-60161000D02*
X97565686Y-61150686D01*
%TO.N,Net-(D7-DOUT)*%
X90355372Y-61150686D02*
X86445058Y-65061000D01*
X90355372Y-60161000D02*
X90355372Y-61150686D01*
%TO.N,Net-(D8-DOUT)*%
X83145058Y-61150686D02*
X79234744Y-65061000D01*
X83145058Y-60161000D02*
X83145058Y-61150686D01*
%TO.N,Net-(D10-DIN)*%
X75934744Y-61150682D02*
X72024426Y-65061000D01*
X75934744Y-60161000D02*
X75934744Y-61150682D01*
D16*
%TO.N,DATA*%
X136889442Y-67928500D02*
X136889442Y-65088814D01*
X136889442Y-65088814D02*
X136917256Y-65061000D01*
%TO.N,Net-(U1-PA6_A10_D10_MOSI)*%
X131909025Y-67870973D02*
X131966552Y-67928500D01*
X131966552Y-67928500D02*
X135064442Y-67928500D01*
%TD*%
%TA.AperFunction,Conductor*%
%TO.N,GND*%
G36*
X137560991Y-53111766D02*
G01*
X137809806Y-53128078D01*
X137825886Y-53130195D01*
X138066463Y-53178053D01*
X138082130Y-53182251D01*
X138314401Y-53261100D01*
X138329386Y-53267307D01*
X138329427Y-53267327D01*
X138549388Y-53375802D01*
X138563427Y-53383908D01*
X138666108Y-53452519D01*
X138767375Y-53520186D01*
X138780243Y-53530060D01*
X138964660Y-53691792D01*
X138976129Y-53703261D01*
X139137859Y-53887681D01*
X139147733Y-53900549D01*
X139284011Y-54104507D01*
X139292120Y-54118554D01*
X139400605Y-54338542D01*
X139406812Y-54353527D01*
X139485657Y-54585800D01*
X139489855Y-54601467D01*
X139537707Y-54842038D01*
X139539824Y-54858119D01*
X139556176Y-55107595D01*
X139556442Y-55115705D01*
X139556442Y-70106933D01*
X139556177Y-70115043D01*
X139539867Y-70363887D01*
X139537749Y-70379968D01*
X139489896Y-70620543D01*
X139485698Y-70636210D01*
X139406853Y-70868482D01*
X139400647Y-70883467D01*
X139292154Y-71103472D01*
X139284044Y-71117519D01*
X139147766Y-71321476D01*
X139137892Y-71334344D01*
X138976163Y-71518764D01*
X138964693Y-71530234D01*
X138780268Y-71691972D01*
X138767401Y-71701845D01*
X138563446Y-71838127D01*
X138549399Y-71846238D01*
X138329402Y-71954732D01*
X138314417Y-71960939D01*
X138082141Y-72039789D01*
X138066474Y-72043987D01*
X137825891Y-72091846D01*
X137809810Y-72093963D01*
X137561632Y-72110234D01*
X137553520Y-72110500D01*
X68130436Y-72110500D01*
X68130420Y-72110499D01*
X68060997Y-72110499D01*
X68052889Y-72110234D01*
X67804051Y-72093929D01*
X67787970Y-72091812D01*
X67547389Y-72043961D01*
X67531721Y-72039763D01*
X67299442Y-71960918D01*
X67284456Y-71954711D01*
X67064460Y-71846224D01*
X67050414Y-71838114D01*
X66846454Y-71701836D01*
X66833585Y-71691962D01*
X66649165Y-71530233D01*
X66637695Y-71518763D01*
X66475954Y-71334335D01*
X66466085Y-71321475D01*
X66329795Y-71117506D01*
X66321692Y-71103469D01*
X66215756Y-70888655D01*
X66213198Y-70883467D01*
X66206993Y-70868486D01*
X66128145Y-70636209D01*
X66123947Y-70620542D01*
X66116087Y-70581027D01*
X66076090Y-70379955D01*
X66073975Y-70363894D01*
X66057707Y-70115682D01*
X66057442Y-70107573D01*
X66057442Y-67870969D01*
X131103460Y-67870969D01*
X131103460Y-67870976D01*
X131123655Y-68050222D01*
X131123656Y-68050227D01*
X131183236Y-68220496D01*
X131279209Y-68373235D01*
X131406763Y-68500789D01*
X131559503Y-68596762D01*
X131703521Y-68647156D01*
X131729770Y-68656341D01*
X131729775Y-68656342D01*
X131909021Y-68676538D01*
X131909025Y-68676538D01*
X131909029Y-68676538D01*
X132088274Y-68656342D01*
X132088277Y-68656341D01*
X132088280Y-68656341D01*
X132258547Y-68596762D01*
X132336140Y-68548007D01*
X132402113Y-68529000D01*
X134067144Y-68529000D01*
X134134183Y-68548685D01*
X134172681Y-68587901D01*
X134209230Y-68647156D01*
X134333286Y-68771212D01*
X134482608Y-68863314D01*
X134649145Y-68918499D01*
X134751933Y-68929000D01*
X135376950Y-68928999D01*
X135376958Y-68928998D01*
X135376961Y-68928998D01*
X135433244Y-68923248D01*
X135479739Y-68918499D01*
X135646276Y-68863314D01*
X135795598Y-68771212D01*
X135889261Y-68677549D01*
X135950584Y-68644064D01*
X136020276Y-68649048D01*
X136064623Y-68677549D01*
X136158286Y-68771212D01*
X136307608Y-68863314D01*
X136474145Y-68918499D01*
X136576933Y-68929000D01*
X137201950Y-68928999D01*
X137201958Y-68928998D01*
X137201961Y-68928998D01*
X137258244Y-68923248D01*
X137304739Y-68918499D01*
X137471276Y-68863314D01*
X137620598Y-68771212D01*
X137744654Y-68647156D01*
X137836756Y-68497834D01*
X137891941Y-68331297D01*
X137902442Y-68228509D01*
X137902441Y-67228492D01*
X137891941Y-67125703D01*
X137836756Y-66959166D01*
X137744654Y-66809844D01*
X137620598Y-66685788D01*
X137620597Y-66685787D01*
X137548844Y-66641529D01*
X137502120Y-66589581D01*
X137489942Y-66535991D01*
X137489942Y-66354908D01*
X137509627Y-66287869D01*
X137562431Y-66242114D01*
X137566444Y-66240366D01*
X137575054Y-66236800D01*
X137698405Y-66142149D01*
X137793056Y-66018798D01*
X137852557Y-65875151D01*
X137867756Y-65759701D01*
X137867755Y-64362300D01*
X137867755Y-64362298D01*
X137867755Y-64362296D01*
X137852559Y-64246857D01*
X137852557Y-64246850D01*
X137852557Y-64246849D01*
X137793056Y-64103202D01*
X137698405Y-63979851D01*
X137575054Y-63885200D01*
X137575050Y-63885198D01*
X137431407Y-63825699D01*
X137431405Y-63825698D01*
X137315957Y-63810500D01*
X136518552Y-63810500D01*
X136403113Y-63825696D01*
X136403104Y-63825699D01*
X136259461Y-63885198D01*
X136136107Y-63979851D01*
X136041454Y-64103205D01*
X135981955Y-64246848D01*
X135981954Y-64246850D01*
X135966756Y-64362298D01*
X135966756Y-65759703D01*
X135981952Y-65875142D01*
X135981955Y-65875151D01*
X136041349Y-66018541D01*
X136041456Y-66018798D01*
X136136107Y-66142149D01*
X136240429Y-66222198D01*
X136281631Y-66278625D01*
X136288942Y-66320573D01*
X136288942Y-66535991D01*
X136269257Y-66603030D01*
X136230040Y-66641529D01*
X136158286Y-66685787D01*
X136158285Y-66685788D01*
X136064623Y-66779451D01*
X136003300Y-66812936D01*
X135933608Y-66807952D01*
X135889261Y-66779451D01*
X135795599Y-66685789D01*
X135795598Y-66685788D01*
X135646276Y-66593686D01*
X135479739Y-66538501D01*
X135479737Y-66538500D01*
X135376952Y-66528000D01*
X134751940Y-66528000D01*
X134751922Y-66528001D01*
X134649145Y-66538500D01*
X134649142Y-66538501D01*
X134482610Y-66593685D01*
X134482605Y-66593687D01*
X134333284Y-66685789D01*
X134209231Y-66809842D01*
X134117129Y-66959163D01*
X134117127Y-66959168D01*
X134061943Y-67125704D01*
X134061942Y-67125705D01*
X134052656Y-67216603D01*
X134026259Y-67281295D01*
X133969078Y-67321446D01*
X133929298Y-67328000D01*
X132549492Y-67328000D01*
X132482453Y-67308315D01*
X132461811Y-67291681D01*
X132411287Y-67241157D01*
X132258548Y-67145184D01*
X132088279Y-67085604D01*
X132088274Y-67085603D01*
X131909029Y-67065408D01*
X131909021Y-67065408D01*
X131729775Y-67085603D01*
X131729770Y-67085604D01*
X131559501Y-67145184D01*
X131406762Y-67241157D01*
X131279209Y-67368710D01*
X131183236Y-67521449D01*
X131123656Y-67691718D01*
X131123655Y-67691723D01*
X131103460Y-67870969D01*
X66057442Y-67870969D01*
X66057442Y-65759670D01*
X67774426Y-65759670D01*
X67789611Y-65875019D01*
X67789613Y-65875024D01*
X67849059Y-66018541D01*
X67849059Y-66018542D01*
X67943633Y-66141792D01*
X68066884Y-66236366D01*
X68210401Y-66295812D01*
X68210406Y-66295814D01*
X68325755Y-66311000D01*
X68474426Y-66311000D01*
X68974426Y-66311000D01*
X69123097Y-66311000D01*
X69238445Y-66295814D01*
X69238450Y-66295812D01*
X69381967Y-66236366D01*
X69381968Y-66236366D01*
X69505218Y-66141792D01*
X69599792Y-66018542D01*
X69599792Y-66018541D01*
X69659238Y-65875024D01*
X69659240Y-65875019D01*
X69674426Y-65759670D01*
X69674426Y-65311000D01*
X68974426Y-65311000D01*
X68974426Y-66311000D01*
X68474426Y-66311000D01*
X68474426Y-65311000D01*
X67774426Y-65311000D01*
X67774426Y-65759670D01*
X66057442Y-65759670D01*
X66057442Y-64362329D01*
X67774426Y-64362329D01*
X67774426Y-64811000D01*
X68474426Y-64811000D01*
X68974426Y-64811000D01*
X69674426Y-64811000D01*
X69674426Y-64362329D01*
X69674422Y-64362298D01*
X71073926Y-64362298D01*
X71073926Y-65759703D01*
X71089122Y-65875142D01*
X71089125Y-65875151D01*
X71148519Y-66018541D01*
X71148626Y-66018798D01*
X71243277Y-66142149D01*
X71366628Y-66236800D01*
X71510275Y-66296301D01*
X71625725Y-66311500D01*
X72423126Y-66311499D01*
X72423129Y-66311499D01*
X72538568Y-66296303D01*
X72538572Y-66296301D01*
X72538577Y-66296301D01*
X72682224Y-66236800D01*
X72805575Y-66142149D01*
X72900226Y-66018798D01*
X72959727Y-65875151D01*
X72974926Y-65759701D01*
X72974926Y-65759670D01*
X74984744Y-65759670D01*
X74999929Y-65875019D01*
X74999931Y-65875024D01*
X75059377Y-66018541D01*
X75059377Y-66018542D01*
X75153951Y-66141792D01*
X75277202Y-66236366D01*
X75420719Y-66295812D01*
X75420724Y-66295814D01*
X75536073Y-66311000D01*
X75684744Y-66311000D01*
X76184744Y-66311000D01*
X76333415Y-66311000D01*
X76448763Y-66295814D01*
X76448768Y-66295812D01*
X76592285Y-66236366D01*
X76592286Y-66236366D01*
X76715536Y-66141792D01*
X76810110Y-66018542D01*
X76810110Y-66018541D01*
X76869556Y-65875024D01*
X76869558Y-65875019D01*
X76884744Y-65759670D01*
X76884744Y-65311000D01*
X76184744Y-65311000D01*
X76184744Y-66311000D01*
X75684744Y-66311000D01*
X75684744Y-65311000D01*
X74984744Y-65311000D01*
X74984744Y-65759670D01*
X72974926Y-65759670D01*
X72974925Y-65013358D01*
X72994609Y-64946320D01*
X73011239Y-64925683D01*
X73574593Y-64362329D01*
X74984744Y-64362329D01*
X74984744Y-64811000D01*
X75684744Y-64811000D01*
X76184744Y-64811000D01*
X76884744Y-64811000D01*
X76884744Y-64362329D01*
X76884740Y-64362298D01*
X78284244Y-64362298D01*
X78284244Y-65759703D01*
X78299440Y-65875142D01*
X78299443Y-65875151D01*
X78358837Y-66018541D01*
X78358944Y-66018798D01*
X78453595Y-66142149D01*
X78576946Y-66236800D01*
X78720593Y-66296301D01*
X78836043Y-66311500D01*
X79633444Y-66311499D01*
X79633447Y-66311499D01*
X79748886Y-66296303D01*
X79748890Y-66296301D01*
X79748895Y-66296301D01*
X79892542Y-66236800D01*
X80015893Y-66142149D01*
X80110544Y-66018798D01*
X80170045Y-65875151D01*
X80185244Y-65759701D01*
X80185244Y-65759670D01*
X82195058Y-65759670D01*
X82210243Y-65875019D01*
X82210245Y-65875024D01*
X82269691Y-66018541D01*
X82269691Y-66018542D01*
X82364265Y-66141792D01*
X82487516Y-66236366D01*
X82631033Y-66295812D01*
X82631038Y-66295814D01*
X82746387Y-66311000D01*
X82895058Y-66311000D01*
X83395058Y-66311000D01*
X83543729Y-66311000D01*
X83659077Y-66295814D01*
X83659082Y-66295812D01*
X83802599Y-66236366D01*
X83802600Y-66236366D01*
X83925850Y-66141792D01*
X84020424Y-66018542D01*
X84020424Y-66018541D01*
X84079870Y-65875024D01*
X84079872Y-65875019D01*
X84095058Y-65759670D01*
X84095058Y-65311000D01*
X83395058Y-65311000D01*
X83395058Y-66311000D01*
X82895058Y-66311000D01*
X82895058Y-65311000D01*
X82195058Y-65311000D01*
X82195058Y-65759670D01*
X80185244Y-65759670D01*
X80185243Y-65013358D01*
X80204927Y-64946320D01*
X80221557Y-64925683D01*
X80784911Y-64362329D01*
X82195058Y-64362329D01*
X82195058Y-64811000D01*
X82895058Y-64811000D01*
X83395058Y-64811000D01*
X84095058Y-64811000D01*
X84095058Y-64362329D01*
X84095054Y-64362298D01*
X85494558Y-64362298D01*
X85494558Y-65759703D01*
X85509754Y-65875142D01*
X85509757Y-65875151D01*
X85569151Y-66018541D01*
X85569258Y-66018798D01*
X85663909Y-66142149D01*
X85787260Y-66236800D01*
X85930907Y-66296301D01*
X86046357Y-66311500D01*
X86843758Y-66311499D01*
X86843761Y-66311499D01*
X86959200Y-66296303D01*
X86959204Y-66296301D01*
X86959209Y-66296301D01*
X87102856Y-66236800D01*
X87226207Y-66142149D01*
X87320858Y-66018798D01*
X87380359Y-65875151D01*
X87395558Y-65759701D01*
X87395558Y-65759670D01*
X89405372Y-65759670D01*
X89420557Y-65875019D01*
X89420559Y-65875024D01*
X89480005Y-66018541D01*
X89480005Y-66018542D01*
X89574579Y-66141792D01*
X89697830Y-66236366D01*
X89841347Y-66295812D01*
X89841352Y-66295814D01*
X89956701Y-66311000D01*
X90105372Y-66311000D01*
X90605372Y-66311000D01*
X90754043Y-66311000D01*
X90869391Y-66295814D01*
X90869396Y-66295812D01*
X91012913Y-66236366D01*
X91012914Y-66236366D01*
X91136164Y-66141792D01*
X91230738Y-66018542D01*
X91230738Y-66018541D01*
X91290184Y-65875024D01*
X91290186Y-65875019D01*
X91305372Y-65759670D01*
X91305372Y-65311000D01*
X90605372Y-65311000D01*
X90605372Y-66311000D01*
X90105372Y-66311000D01*
X90105372Y-65311000D01*
X89405372Y-65311000D01*
X89405372Y-65759670D01*
X87395558Y-65759670D01*
X87395557Y-65013358D01*
X87415241Y-64946320D01*
X87431871Y-64925683D01*
X87995225Y-64362329D01*
X89405372Y-64362329D01*
X89405372Y-64811000D01*
X90105372Y-64811000D01*
X90605372Y-64811000D01*
X91305372Y-64811000D01*
X91305372Y-64362329D01*
X91305368Y-64362298D01*
X92704872Y-64362298D01*
X92704872Y-65759703D01*
X92720068Y-65875142D01*
X92720071Y-65875151D01*
X92779465Y-66018541D01*
X92779572Y-66018798D01*
X92874223Y-66142149D01*
X92997574Y-66236800D01*
X93141221Y-66296301D01*
X93256671Y-66311500D01*
X94054072Y-66311499D01*
X94054075Y-66311499D01*
X94169514Y-66296303D01*
X94169518Y-66296301D01*
X94169523Y-66296301D01*
X94313170Y-66236800D01*
X94436521Y-66142149D01*
X94531172Y-66018798D01*
X94590673Y-65875151D01*
X94605872Y-65759701D01*
X94605872Y-65759670D01*
X96615686Y-65759670D01*
X96630871Y-65875019D01*
X96630873Y-65875024D01*
X96690319Y-66018541D01*
X96690319Y-66018542D01*
X96784893Y-66141792D01*
X96908144Y-66236366D01*
X97051661Y-66295812D01*
X97051666Y-66295814D01*
X97167015Y-66311000D01*
X97315686Y-66311000D01*
X97815686Y-66311000D01*
X97964357Y-66311000D01*
X98079705Y-66295814D01*
X98079710Y-66295812D01*
X98223227Y-66236366D01*
X98223228Y-66236366D01*
X98346478Y-66141792D01*
X98441052Y-66018542D01*
X98441052Y-66018541D01*
X98500498Y-65875024D01*
X98500500Y-65875019D01*
X98515686Y-65759670D01*
X98515686Y-65311000D01*
X97815686Y-65311000D01*
X97815686Y-66311000D01*
X97315686Y-66311000D01*
X97315686Y-65311000D01*
X96615686Y-65311000D01*
X96615686Y-65759670D01*
X94605872Y-65759670D01*
X94605871Y-65013358D01*
X94625555Y-64946320D01*
X94642185Y-64925683D01*
X95205539Y-64362329D01*
X96615686Y-64362329D01*
X96615686Y-64811000D01*
X97315686Y-64811000D01*
X97815686Y-64811000D01*
X98515686Y-64811000D01*
X98515686Y-64362329D01*
X98515682Y-64362298D01*
X99915186Y-64362298D01*
X99915186Y-65759703D01*
X99930382Y-65875142D01*
X99930385Y-65875151D01*
X99989779Y-66018541D01*
X99989886Y-66018798D01*
X100084537Y-66142149D01*
X100207888Y-66236800D01*
X100351535Y-66296301D01*
X100466985Y-66311500D01*
X101264386Y-66311499D01*
X101264389Y-66311499D01*
X101379828Y-66296303D01*
X101379832Y-66296301D01*
X101379837Y-66296301D01*
X101523484Y-66236800D01*
X101646835Y-66142149D01*
X101741486Y-66018798D01*
X101800987Y-65875151D01*
X101816186Y-65759701D01*
X101816186Y-65759670D01*
X103826000Y-65759670D01*
X103841185Y-65875019D01*
X103841187Y-65875024D01*
X103900633Y-66018541D01*
X103900633Y-66018542D01*
X103995207Y-66141792D01*
X104118458Y-66236366D01*
X104261975Y-66295812D01*
X104261980Y-66295814D01*
X104377329Y-66311000D01*
X104526000Y-66311000D01*
X105026000Y-66311000D01*
X105174671Y-66311000D01*
X105290019Y-66295814D01*
X105290024Y-66295812D01*
X105433541Y-66236366D01*
X105433542Y-66236366D01*
X105556792Y-66141792D01*
X105651366Y-66018542D01*
X105651366Y-66018541D01*
X105710812Y-65875024D01*
X105710814Y-65875019D01*
X105726000Y-65759670D01*
X105726000Y-65311000D01*
X105026000Y-65311000D01*
X105026000Y-66311000D01*
X104526000Y-66311000D01*
X104526000Y-65311000D01*
X103826000Y-65311000D01*
X103826000Y-65759670D01*
X101816186Y-65759670D01*
X101816185Y-65013358D01*
X101835869Y-64946320D01*
X101852499Y-64925683D01*
X102415853Y-64362329D01*
X103826000Y-64362329D01*
X103826000Y-64811000D01*
X104526000Y-64811000D01*
X105026000Y-64811000D01*
X105726000Y-64811000D01*
X105726000Y-64362329D01*
X105725996Y-64362298D01*
X107125500Y-64362298D01*
X107125500Y-65759703D01*
X107140696Y-65875142D01*
X107140699Y-65875151D01*
X107200093Y-66018541D01*
X107200200Y-66018798D01*
X107294851Y-66142149D01*
X107418202Y-66236800D01*
X107561849Y-66296301D01*
X107677299Y-66311500D01*
X108474700Y-66311499D01*
X108474703Y-66311499D01*
X108590142Y-66296303D01*
X108590146Y-66296301D01*
X108590151Y-66296301D01*
X108733798Y-66236800D01*
X108857149Y-66142149D01*
X108951800Y-66018798D01*
X109011301Y-65875151D01*
X109026500Y-65759701D01*
X109026500Y-65759670D01*
X111036314Y-65759670D01*
X111051499Y-65875019D01*
X111051501Y-65875024D01*
X111110947Y-66018541D01*
X111110947Y-66018542D01*
X111205521Y-66141792D01*
X111328772Y-66236366D01*
X111472289Y-66295812D01*
X111472294Y-66295814D01*
X111587643Y-66311000D01*
X111736314Y-66311000D01*
X112236314Y-66311000D01*
X112384985Y-66311000D01*
X112500333Y-66295814D01*
X112500338Y-66295812D01*
X112643855Y-66236366D01*
X112643856Y-66236366D01*
X112767106Y-66141792D01*
X112861680Y-66018542D01*
X112861680Y-66018541D01*
X112921126Y-65875024D01*
X112921128Y-65875019D01*
X112936314Y-65759670D01*
X112936314Y-65311000D01*
X112236314Y-65311000D01*
X112236314Y-66311000D01*
X111736314Y-66311000D01*
X111736314Y-65311000D01*
X111036314Y-65311000D01*
X111036314Y-65759670D01*
X109026500Y-65759670D01*
X109026499Y-65013358D01*
X109046183Y-64946320D01*
X109062813Y-64925683D01*
X109626167Y-64362329D01*
X111036314Y-64362329D01*
X111036314Y-64811000D01*
X111736314Y-64811000D01*
X112236314Y-64811000D01*
X112936314Y-64811000D01*
X112936314Y-64362329D01*
X112936310Y-64362298D01*
X114335814Y-64362298D01*
X114335814Y-65759703D01*
X114351010Y-65875142D01*
X114351013Y-65875151D01*
X114410407Y-66018541D01*
X114410514Y-66018798D01*
X114505165Y-66142149D01*
X114628516Y-66236800D01*
X114772163Y-66296301D01*
X114887613Y-66311500D01*
X115685014Y-66311499D01*
X115685017Y-66311499D01*
X115800456Y-66296303D01*
X115800460Y-66296301D01*
X115800465Y-66296301D01*
X115944112Y-66236800D01*
X116067463Y-66142149D01*
X116162114Y-66018798D01*
X116221615Y-65875151D01*
X116236814Y-65759701D01*
X116236814Y-65759670D01*
X118246628Y-65759670D01*
X118261813Y-65875019D01*
X118261815Y-65875024D01*
X118321261Y-66018541D01*
X118321261Y-66018542D01*
X118415835Y-66141792D01*
X118539086Y-66236366D01*
X118682603Y-66295812D01*
X118682608Y-66295814D01*
X118797957Y-66311000D01*
X118946628Y-66311000D01*
X119446628Y-66311000D01*
X119595299Y-66311000D01*
X119710647Y-66295814D01*
X119710652Y-66295812D01*
X119854169Y-66236366D01*
X119854170Y-66236366D01*
X119977420Y-66141792D01*
X120071994Y-66018542D01*
X120071994Y-66018541D01*
X120131440Y-65875024D01*
X120131442Y-65875019D01*
X120146628Y-65759670D01*
X120146628Y-65311000D01*
X119446628Y-65311000D01*
X119446628Y-66311000D01*
X118946628Y-66311000D01*
X118946628Y-65311000D01*
X118246628Y-65311000D01*
X118246628Y-65759670D01*
X116236814Y-65759670D01*
X116236813Y-65013358D01*
X116256497Y-64946320D01*
X116273127Y-64925683D01*
X116836481Y-64362329D01*
X118246628Y-64362329D01*
X118246628Y-64811000D01*
X118946628Y-64811000D01*
X119446628Y-64811000D01*
X120146628Y-64811000D01*
X120146628Y-64362329D01*
X120146624Y-64362298D01*
X121546128Y-64362298D01*
X121546128Y-65759703D01*
X121561324Y-65875142D01*
X121561327Y-65875151D01*
X121620721Y-66018541D01*
X121620828Y-66018798D01*
X121715479Y-66142149D01*
X121838830Y-66236800D01*
X121982477Y-66296301D01*
X122097927Y-66311500D01*
X122895328Y-66311499D01*
X122895331Y-66311499D01*
X123010770Y-66296303D01*
X123010774Y-66296301D01*
X123010779Y-66296301D01*
X123154426Y-66236800D01*
X123277777Y-66142149D01*
X123372428Y-66018798D01*
X123431929Y-65875151D01*
X123447128Y-65759701D01*
X123447128Y-65759670D01*
X125456942Y-65759670D01*
X125472127Y-65875019D01*
X125472129Y-65875024D01*
X125531575Y-66018541D01*
X125531575Y-66018542D01*
X125626149Y-66141792D01*
X125749400Y-66236366D01*
X125892917Y-66295812D01*
X125892922Y-66295814D01*
X126008271Y-66311000D01*
X126156942Y-66311000D01*
X126656942Y-66311000D01*
X126805613Y-66311000D01*
X126920961Y-66295814D01*
X126920966Y-66295812D01*
X127064483Y-66236366D01*
X127064484Y-66236366D01*
X127187734Y-66141792D01*
X127282308Y-66018542D01*
X127282308Y-66018541D01*
X127341754Y-65875024D01*
X127341756Y-65875019D01*
X127356942Y-65759670D01*
X127356942Y-65311000D01*
X126656942Y-65311000D01*
X126656942Y-66311000D01*
X126156942Y-66311000D01*
X126156942Y-65311000D01*
X125456942Y-65311000D01*
X125456942Y-65759670D01*
X123447128Y-65759670D01*
X123447127Y-65013358D01*
X123466811Y-64946320D01*
X123483441Y-64925683D01*
X124046795Y-64362329D01*
X125456942Y-64362329D01*
X125456942Y-64811000D01*
X126156942Y-64811000D01*
X126656942Y-64811000D01*
X127356942Y-64811000D01*
X127356942Y-64362329D01*
X127356938Y-64362298D01*
X128756442Y-64362298D01*
X128756442Y-65759703D01*
X128771638Y-65875142D01*
X128771641Y-65875151D01*
X128831035Y-66018541D01*
X128831142Y-66018798D01*
X128925793Y-66142149D01*
X129049144Y-66236800D01*
X129192791Y-66296301D01*
X129308241Y-66311500D01*
X130105642Y-66311499D01*
X130105645Y-66311499D01*
X130221084Y-66296303D01*
X130221088Y-66296301D01*
X130221093Y-66296301D01*
X130364740Y-66236800D01*
X130488091Y-66142149D01*
X130582742Y-66018798D01*
X130642243Y-65875151D01*
X130657442Y-65759701D01*
X130657442Y-65759670D01*
X132667256Y-65759670D01*
X132682441Y-65875019D01*
X132682443Y-65875024D01*
X132741889Y-66018541D01*
X132741889Y-66018542D01*
X132836463Y-66141792D01*
X132959714Y-66236366D01*
X133103231Y-66295812D01*
X133103236Y-66295814D01*
X133218585Y-66311000D01*
X133367256Y-66311000D01*
X133867256Y-66311000D01*
X134015927Y-66311000D01*
X134131275Y-66295814D01*
X134131280Y-66295812D01*
X134274797Y-66236366D01*
X134274798Y-66236366D01*
X134398048Y-66141792D01*
X134492622Y-66018542D01*
X134492622Y-66018541D01*
X134552068Y-65875024D01*
X134552070Y-65875019D01*
X134567256Y-65759670D01*
X134567256Y-65311000D01*
X133867256Y-65311000D01*
X133867256Y-66311000D01*
X133367256Y-66311000D01*
X133367256Y-65311000D01*
X132667256Y-65311000D01*
X132667256Y-65759670D01*
X130657442Y-65759670D01*
X130657441Y-65013358D01*
X130677125Y-64946320D01*
X130693755Y-64925683D01*
X131257109Y-64362329D01*
X132667256Y-64362329D01*
X132667256Y-64811000D01*
X133367256Y-64811000D01*
X133867256Y-64811000D01*
X134567256Y-64811000D01*
X134567256Y-64362329D01*
X134552070Y-64246980D01*
X134552068Y-64246975D01*
X134492622Y-64103458D01*
X134492622Y-64103457D01*
X134398048Y-63980207D01*
X134274797Y-63885633D01*
X134131280Y-63826187D01*
X134131275Y-63826185D01*
X134015927Y-63811000D01*
X133867256Y-63811000D01*
X133867256Y-64811000D01*
X133367256Y-64811000D01*
X133367256Y-63811000D01*
X133218585Y-63811000D01*
X133103236Y-63826185D01*
X133103231Y-63826187D01*
X132959714Y-63885633D01*
X132959713Y-63885633D01*
X132836463Y-63980207D01*
X132741889Y-64103457D01*
X132741889Y-64103458D01*
X132682443Y-64246975D01*
X132682441Y-64246980D01*
X132667256Y-64362329D01*
X131257109Y-64362329D01*
X134099056Y-61520384D01*
X134099058Y-61520380D01*
X134099058Y-61520379D01*
X134099553Y-61519694D01*
X134100908Y-61517175D01*
X134161999Y-61411362D01*
X134212563Y-61363149D01*
X134221915Y-61358809D01*
X134275054Y-61336800D01*
X134398405Y-61242149D01*
X134493056Y-61118798D01*
X134552557Y-60975151D01*
X134567756Y-60859701D01*
X134567755Y-59462300D01*
X134567755Y-59462298D01*
X134567755Y-59462296D01*
X134552559Y-59346857D01*
X134552557Y-59346850D01*
X134552557Y-59346849D01*
X134493056Y-59203202D01*
X134398405Y-59079851D01*
X134275054Y-58985200D01*
X134275050Y-58985198D01*
X134131407Y-58925699D01*
X134131405Y-58925698D01*
X134015957Y-58910500D01*
X133218552Y-58910500D01*
X133103113Y-58925696D01*
X133103104Y-58925699D01*
X132959461Y-58985198D01*
X132836107Y-59079851D01*
X132741454Y-59203205D01*
X132681955Y-59346848D01*
X132681954Y-59346850D01*
X132666756Y-59462298D01*
X132666756Y-60859703D01*
X132681952Y-60975142D01*
X132681955Y-60975151D01*
X132726206Y-61081982D01*
X132733675Y-61151452D01*
X132702400Y-61213931D01*
X132699326Y-61217116D01*
X130142261Y-63774181D01*
X130080938Y-63807666D01*
X130054580Y-63810500D01*
X129308238Y-63810500D01*
X129192799Y-63825696D01*
X129192790Y-63825699D01*
X129049147Y-63885198D01*
X128925793Y-63979851D01*
X128831140Y-64103205D01*
X128771641Y-64246848D01*
X128771640Y-64246850D01*
X128756442Y-64362298D01*
X127356938Y-64362298D01*
X127341756Y-64246980D01*
X127341754Y-64246975D01*
X127282308Y-64103458D01*
X127282308Y-64103457D01*
X127187734Y-63980207D01*
X127064483Y-63885633D01*
X126920966Y-63826187D01*
X126920961Y-63826185D01*
X126805613Y-63811000D01*
X126656942Y-63811000D01*
X126656942Y-64811000D01*
X126156942Y-64811000D01*
X126156942Y-63811000D01*
X126008271Y-63811000D01*
X125892922Y-63826185D01*
X125892917Y-63826187D01*
X125749400Y-63885633D01*
X125749399Y-63885633D01*
X125626149Y-63980207D01*
X125531575Y-64103457D01*
X125531575Y-64103458D01*
X125472129Y-64246975D01*
X125472127Y-64246980D01*
X125456942Y-64362329D01*
X124046795Y-64362329D01*
X126888742Y-61520384D01*
X126888744Y-61520380D01*
X126888744Y-61520379D01*
X126889239Y-61519694D01*
X126890594Y-61517175D01*
X126951685Y-61411362D01*
X127002249Y-61363149D01*
X127011601Y-61358809D01*
X127064740Y-61336800D01*
X127188091Y-61242149D01*
X127282742Y-61118798D01*
X127342243Y-60975151D01*
X127357442Y-60859701D01*
X127357441Y-59462300D01*
X127357441Y-59462298D01*
X127357441Y-59462296D01*
X127342245Y-59346857D01*
X127342243Y-59346850D01*
X127342243Y-59346849D01*
X127282742Y-59203202D01*
X127188091Y-59079851D01*
X127064740Y-58985200D01*
X127064736Y-58985198D01*
X126921093Y-58925699D01*
X126921091Y-58925698D01*
X126805643Y-58910500D01*
X126008238Y-58910500D01*
X125892799Y-58925696D01*
X125892790Y-58925699D01*
X125749147Y-58985198D01*
X125625793Y-59079851D01*
X125531140Y-59203205D01*
X125471641Y-59346848D01*
X125471640Y-59346850D01*
X125456442Y-59462298D01*
X125456442Y-60859703D01*
X125471638Y-60975142D01*
X125471641Y-60975151D01*
X125515892Y-61081982D01*
X125523361Y-61151452D01*
X125492086Y-61213931D01*
X125489012Y-61217116D01*
X122931947Y-63774181D01*
X122870624Y-63807666D01*
X122844266Y-63810500D01*
X122097924Y-63810500D01*
X121982485Y-63825696D01*
X121982476Y-63825699D01*
X121838833Y-63885198D01*
X121715479Y-63979851D01*
X121620826Y-64103205D01*
X121561327Y-64246848D01*
X121561326Y-64246850D01*
X121546128Y-64362298D01*
X120146624Y-64362298D01*
X120131442Y-64246980D01*
X120131440Y-64246975D01*
X120071994Y-64103458D01*
X120071994Y-64103457D01*
X119977420Y-63980207D01*
X119854169Y-63885633D01*
X119710652Y-63826187D01*
X119710647Y-63826185D01*
X119595299Y-63811000D01*
X119446628Y-63811000D01*
X119446628Y-64811000D01*
X118946628Y-64811000D01*
X118946628Y-63811000D01*
X118797957Y-63811000D01*
X118682608Y-63826185D01*
X118682603Y-63826187D01*
X118539086Y-63885633D01*
X118539085Y-63885633D01*
X118415835Y-63980207D01*
X118321261Y-64103457D01*
X118321261Y-64103458D01*
X118261815Y-64246975D01*
X118261813Y-64246980D01*
X118246628Y-64362329D01*
X116836481Y-64362329D01*
X119678428Y-61520384D01*
X119678430Y-61520380D01*
X119678430Y-61520379D01*
X119678925Y-61519694D01*
X119680280Y-61517175D01*
X119741371Y-61411362D01*
X119791935Y-61363149D01*
X119801287Y-61358809D01*
X119854426Y-61336800D01*
X119977777Y-61242149D01*
X120072428Y-61118798D01*
X120131929Y-60975151D01*
X120147128Y-60859701D01*
X120147127Y-59462300D01*
X120147127Y-59462298D01*
X120147127Y-59462296D01*
X120131931Y-59346857D01*
X120131929Y-59346850D01*
X120131929Y-59346849D01*
X120072428Y-59203202D01*
X119977777Y-59079851D01*
X119854426Y-58985200D01*
X119854422Y-58985198D01*
X119710779Y-58925699D01*
X119710777Y-58925698D01*
X119595329Y-58910500D01*
X118797924Y-58910500D01*
X118682485Y-58925696D01*
X118682476Y-58925699D01*
X118538833Y-58985198D01*
X118415479Y-59079851D01*
X118320826Y-59203205D01*
X118261327Y-59346848D01*
X118261326Y-59346850D01*
X118246128Y-59462298D01*
X118246128Y-60859703D01*
X118261324Y-60975142D01*
X118261327Y-60975151D01*
X118305578Y-61081982D01*
X118313047Y-61151452D01*
X118281772Y-61213931D01*
X118278698Y-61217116D01*
X115721633Y-63774181D01*
X115660310Y-63807666D01*
X115633952Y-63810500D01*
X114887610Y-63810500D01*
X114772171Y-63825696D01*
X114772162Y-63825699D01*
X114628519Y-63885198D01*
X114505165Y-63979851D01*
X114410512Y-64103205D01*
X114351013Y-64246848D01*
X114351012Y-64246850D01*
X114335814Y-64362298D01*
X112936310Y-64362298D01*
X112921128Y-64246980D01*
X112921126Y-64246975D01*
X112861680Y-64103458D01*
X112861680Y-64103457D01*
X112767106Y-63980207D01*
X112643855Y-63885633D01*
X112500338Y-63826187D01*
X112500333Y-63826185D01*
X112384985Y-63811000D01*
X112236314Y-63811000D01*
X112236314Y-64811000D01*
X111736314Y-64811000D01*
X111736314Y-63811000D01*
X111587643Y-63811000D01*
X111472294Y-63826185D01*
X111472289Y-63826187D01*
X111328772Y-63885633D01*
X111328771Y-63885633D01*
X111205521Y-63980207D01*
X111110947Y-64103457D01*
X111110947Y-64103458D01*
X111051501Y-64246975D01*
X111051499Y-64246980D01*
X111036314Y-64362329D01*
X109626167Y-64362329D01*
X112468114Y-61520384D01*
X112468116Y-61520380D01*
X112468116Y-61520379D01*
X112468611Y-61519694D01*
X112469966Y-61517175D01*
X112531057Y-61411362D01*
X112581621Y-61363149D01*
X112590973Y-61358809D01*
X112644112Y-61336800D01*
X112767463Y-61242149D01*
X112862114Y-61118798D01*
X112921615Y-60975151D01*
X112936814Y-60859701D01*
X112936813Y-59462300D01*
X112936813Y-59462298D01*
X112936813Y-59462296D01*
X112921617Y-59346857D01*
X112921615Y-59346850D01*
X112921615Y-59346849D01*
X112862114Y-59203202D01*
X112767463Y-59079851D01*
X112644112Y-58985200D01*
X112644108Y-58985198D01*
X112500465Y-58925699D01*
X112500463Y-58925698D01*
X112385015Y-58910500D01*
X111587610Y-58910500D01*
X111472171Y-58925696D01*
X111472162Y-58925699D01*
X111328519Y-58985198D01*
X111205165Y-59079851D01*
X111110512Y-59203205D01*
X111051013Y-59346848D01*
X111051012Y-59346850D01*
X111035814Y-59462298D01*
X111035814Y-60859703D01*
X111051010Y-60975142D01*
X111051013Y-60975151D01*
X111095264Y-61081982D01*
X111102733Y-61151452D01*
X111071458Y-61213931D01*
X111068384Y-61217116D01*
X108511319Y-63774181D01*
X108449996Y-63807666D01*
X108423638Y-63810500D01*
X107677296Y-63810500D01*
X107561857Y-63825696D01*
X107561848Y-63825699D01*
X107418205Y-63885198D01*
X107294851Y-63979851D01*
X107200198Y-64103205D01*
X107140699Y-64246848D01*
X107140698Y-64246850D01*
X107125500Y-64362298D01*
X105725996Y-64362298D01*
X105710814Y-64246980D01*
X105710812Y-64246975D01*
X105651366Y-64103458D01*
X105651366Y-64103457D01*
X105556792Y-63980207D01*
X105433541Y-63885633D01*
X105290024Y-63826187D01*
X105290019Y-63826185D01*
X105174671Y-63811000D01*
X105026000Y-63811000D01*
X105026000Y-64811000D01*
X104526000Y-64811000D01*
X104526000Y-63811000D01*
X104377329Y-63811000D01*
X104261980Y-63826185D01*
X104261975Y-63826187D01*
X104118458Y-63885633D01*
X104118457Y-63885633D01*
X103995207Y-63980207D01*
X103900633Y-64103457D01*
X103900633Y-64103458D01*
X103841187Y-64246975D01*
X103841185Y-64246980D01*
X103826000Y-64362329D01*
X102415853Y-64362329D01*
X105257800Y-61520384D01*
X105257802Y-61520380D01*
X105257802Y-61520379D01*
X105258297Y-61519694D01*
X105259652Y-61517175D01*
X105320743Y-61411362D01*
X105371307Y-61363149D01*
X105380659Y-61358809D01*
X105433798Y-61336800D01*
X105557149Y-61242149D01*
X105651800Y-61118798D01*
X105711301Y-60975151D01*
X105726500Y-60859701D01*
X105726499Y-59462300D01*
X105726499Y-59462298D01*
X105726499Y-59462296D01*
X105711303Y-59346857D01*
X105711301Y-59346850D01*
X105711301Y-59346849D01*
X105651800Y-59203202D01*
X105557149Y-59079851D01*
X105433798Y-58985200D01*
X105433794Y-58985198D01*
X105290151Y-58925699D01*
X105290149Y-58925698D01*
X105174701Y-58910500D01*
X104377296Y-58910500D01*
X104261857Y-58925696D01*
X104261848Y-58925699D01*
X104118205Y-58985198D01*
X103994851Y-59079851D01*
X103900198Y-59203205D01*
X103840699Y-59346848D01*
X103840698Y-59346850D01*
X103825500Y-59462298D01*
X103825500Y-60859703D01*
X103840696Y-60975142D01*
X103840699Y-60975151D01*
X103884950Y-61081982D01*
X103892419Y-61151452D01*
X103861144Y-61213931D01*
X103858070Y-61217116D01*
X101301005Y-63774181D01*
X101239682Y-63807666D01*
X101213324Y-63810500D01*
X100466982Y-63810500D01*
X100351543Y-63825696D01*
X100351534Y-63825699D01*
X100207891Y-63885198D01*
X100084537Y-63979851D01*
X99989884Y-64103205D01*
X99930385Y-64246848D01*
X99930384Y-64246850D01*
X99915186Y-64362298D01*
X98515682Y-64362298D01*
X98500500Y-64246980D01*
X98500498Y-64246975D01*
X98441052Y-64103458D01*
X98441052Y-64103457D01*
X98346478Y-63980207D01*
X98223227Y-63885633D01*
X98079710Y-63826187D01*
X98079705Y-63826185D01*
X97964357Y-63811000D01*
X97815686Y-63811000D01*
X97815686Y-64811000D01*
X97315686Y-64811000D01*
X97315686Y-63811000D01*
X97167015Y-63811000D01*
X97051666Y-63826185D01*
X97051661Y-63826187D01*
X96908144Y-63885633D01*
X96908143Y-63885633D01*
X96784893Y-63980207D01*
X96690319Y-64103457D01*
X96690319Y-64103458D01*
X96630873Y-64246975D01*
X96630871Y-64246980D01*
X96615686Y-64362329D01*
X95205539Y-64362329D01*
X98047486Y-61520384D01*
X98047488Y-61520380D01*
X98047488Y-61520379D01*
X98047983Y-61519694D01*
X98049338Y-61517175D01*
X98110429Y-61411362D01*
X98160993Y-61363149D01*
X98170345Y-61358809D01*
X98223484Y-61336800D01*
X98346835Y-61242149D01*
X98441486Y-61118798D01*
X98500987Y-60975151D01*
X98516186Y-60859701D01*
X98516185Y-59462300D01*
X98516185Y-59462298D01*
X98516185Y-59462296D01*
X98500989Y-59346857D01*
X98500987Y-59346850D01*
X98500987Y-59346849D01*
X98441486Y-59203202D01*
X98346835Y-59079851D01*
X98223484Y-58985200D01*
X98223480Y-58985198D01*
X98079837Y-58925699D01*
X98079835Y-58925698D01*
X97964387Y-58910500D01*
X97166982Y-58910500D01*
X97051543Y-58925696D01*
X97051534Y-58925699D01*
X96907891Y-58985198D01*
X96784537Y-59079851D01*
X96689884Y-59203205D01*
X96630385Y-59346848D01*
X96630384Y-59346850D01*
X96615186Y-59462298D01*
X96615186Y-60859703D01*
X96630382Y-60975142D01*
X96630385Y-60975151D01*
X96674636Y-61081982D01*
X96682105Y-61151452D01*
X96650830Y-61213931D01*
X96647756Y-61217116D01*
X94090691Y-63774181D01*
X94029368Y-63807666D01*
X94003010Y-63810500D01*
X93256668Y-63810500D01*
X93141229Y-63825696D01*
X93141220Y-63825699D01*
X92997577Y-63885198D01*
X92874223Y-63979851D01*
X92779570Y-64103205D01*
X92720071Y-64246848D01*
X92720070Y-64246850D01*
X92704872Y-64362298D01*
X91305368Y-64362298D01*
X91290186Y-64246980D01*
X91290184Y-64246975D01*
X91230738Y-64103458D01*
X91230738Y-64103457D01*
X91136164Y-63980207D01*
X91012913Y-63885633D01*
X90869396Y-63826187D01*
X90869391Y-63826185D01*
X90754043Y-63811000D01*
X90605372Y-63811000D01*
X90605372Y-64811000D01*
X90105372Y-64811000D01*
X90105372Y-63811000D01*
X89956701Y-63811000D01*
X89841352Y-63826185D01*
X89841347Y-63826187D01*
X89697830Y-63885633D01*
X89697829Y-63885633D01*
X89574579Y-63980207D01*
X89480005Y-64103457D01*
X89480005Y-64103458D01*
X89420559Y-64246975D01*
X89420557Y-64246980D01*
X89405372Y-64362329D01*
X87995225Y-64362329D01*
X90837172Y-61520384D01*
X90837174Y-61520380D01*
X90837174Y-61520379D01*
X90837669Y-61519694D01*
X90839024Y-61517175D01*
X90900115Y-61411362D01*
X90950679Y-61363149D01*
X90960031Y-61358809D01*
X91013170Y-61336800D01*
X91136521Y-61242149D01*
X91231172Y-61118798D01*
X91290673Y-60975151D01*
X91305872Y-60859701D01*
X91305871Y-59462300D01*
X91305871Y-59462298D01*
X91305871Y-59462296D01*
X91290675Y-59346857D01*
X91290673Y-59346850D01*
X91290673Y-59346849D01*
X91231172Y-59203202D01*
X91136521Y-59079851D01*
X91013170Y-58985200D01*
X91013166Y-58985198D01*
X90869523Y-58925699D01*
X90869521Y-58925698D01*
X90754073Y-58910500D01*
X89956668Y-58910500D01*
X89841229Y-58925696D01*
X89841220Y-58925699D01*
X89697577Y-58985198D01*
X89574223Y-59079851D01*
X89479570Y-59203205D01*
X89420071Y-59346848D01*
X89420070Y-59346850D01*
X89404872Y-59462298D01*
X89404872Y-60859703D01*
X89420068Y-60975142D01*
X89420071Y-60975151D01*
X89464322Y-61081982D01*
X89471791Y-61151452D01*
X89440516Y-61213931D01*
X89437442Y-61217116D01*
X86880377Y-63774181D01*
X86819054Y-63807666D01*
X86792696Y-63810500D01*
X86046354Y-63810500D01*
X85930915Y-63825696D01*
X85930906Y-63825699D01*
X85787263Y-63885198D01*
X85663909Y-63979851D01*
X85569256Y-64103205D01*
X85509757Y-64246848D01*
X85509756Y-64246850D01*
X85494558Y-64362298D01*
X84095054Y-64362298D01*
X84079872Y-64246980D01*
X84079870Y-64246975D01*
X84020424Y-64103458D01*
X84020424Y-64103457D01*
X83925850Y-63980207D01*
X83802599Y-63885633D01*
X83659082Y-63826187D01*
X83659077Y-63826185D01*
X83543729Y-63811000D01*
X83395058Y-63811000D01*
X83395058Y-64811000D01*
X82895058Y-64811000D01*
X82895058Y-63811000D01*
X82746387Y-63811000D01*
X82631038Y-63826185D01*
X82631033Y-63826187D01*
X82487516Y-63885633D01*
X82487515Y-63885633D01*
X82364265Y-63980207D01*
X82269691Y-64103457D01*
X82269691Y-64103458D01*
X82210245Y-64246975D01*
X82210243Y-64246980D01*
X82195058Y-64362329D01*
X80784911Y-64362329D01*
X83626858Y-61520384D01*
X83626860Y-61520380D01*
X83626860Y-61520379D01*
X83627355Y-61519694D01*
X83628710Y-61517175D01*
X83689801Y-61411362D01*
X83740365Y-61363149D01*
X83749717Y-61358809D01*
X83802856Y-61336800D01*
X83926207Y-61242149D01*
X84020858Y-61118798D01*
X84080359Y-60975151D01*
X84095558Y-60859701D01*
X84095557Y-59462300D01*
X84095557Y-59462298D01*
X84095557Y-59462296D01*
X84080361Y-59346857D01*
X84080359Y-59346850D01*
X84080359Y-59346849D01*
X84020858Y-59203202D01*
X83926207Y-59079851D01*
X83802856Y-58985200D01*
X83802852Y-58985198D01*
X83659209Y-58925699D01*
X83659207Y-58925698D01*
X83543759Y-58910500D01*
X82746354Y-58910500D01*
X82630915Y-58925696D01*
X82630906Y-58925699D01*
X82487263Y-58985198D01*
X82363909Y-59079851D01*
X82269256Y-59203205D01*
X82209757Y-59346848D01*
X82209756Y-59346850D01*
X82194558Y-59462298D01*
X82194558Y-60859703D01*
X82209754Y-60975142D01*
X82209757Y-60975151D01*
X82254008Y-61081982D01*
X82261477Y-61151452D01*
X82230202Y-61213931D01*
X82227128Y-61217116D01*
X79670063Y-63774181D01*
X79608740Y-63807666D01*
X79582382Y-63810500D01*
X78836040Y-63810500D01*
X78720601Y-63825696D01*
X78720592Y-63825699D01*
X78576949Y-63885198D01*
X78453595Y-63979851D01*
X78358942Y-64103205D01*
X78299443Y-64246848D01*
X78299442Y-64246850D01*
X78284244Y-64362298D01*
X76884740Y-64362298D01*
X76869558Y-64246980D01*
X76869556Y-64246975D01*
X76810110Y-64103458D01*
X76810110Y-64103457D01*
X76715536Y-63980207D01*
X76592285Y-63885633D01*
X76448768Y-63826187D01*
X76448763Y-63826185D01*
X76333415Y-63811000D01*
X76184744Y-63811000D01*
X76184744Y-64811000D01*
X75684744Y-64811000D01*
X75684744Y-63811000D01*
X75536073Y-63811000D01*
X75420724Y-63826185D01*
X75420719Y-63826187D01*
X75277202Y-63885633D01*
X75277201Y-63885633D01*
X75153951Y-63980207D01*
X75059377Y-64103457D01*
X75059377Y-64103458D01*
X74999931Y-64246975D01*
X74999929Y-64246980D01*
X74984744Y-64362329D01*
X73574593Y-64362329D01*
X76416544Y-61520380D01*
X76419046Y-61516045D01*
X76479406Y-61411500D01*
X76479415Y-61411505D01*
X76479474Y-61411380D01*
X76479557Y-61411235D01*
X76530181Y-61363081D01*
X76539398Y-61358812D01*
X76592542Y-61336800D01*
X76715893Y-61242149D01*
X76810544Y-61118798D01*
X76870045Y-60975151D01*
X76885244Y-60859701D01*
X76885243Y-59462300D01*
X76885243Y-59462298D01*
X76885243Y-59462296D01*
X76870047Y-59346857D01*
X76870045Y-59346850D01*
X76870045Y-59346849D01*
X76810544Y-59203202D01*
X76715893Y-59079851D01*
X76592542Y-58985200D01*
X76592538Y-58985198D01*
X76448895Y-58925699D01*
X76448893Y-58925698D01*
X76333445Y-58910500D01*
X75536040Y-58910500D01*
X75420601Y-58925696D01*
X75420592Y-58925699D01*
X75276949Y-58985198D01*
X75153595Y-59079851D01*
X75058942Y-59203205D01*
X74999443Y-59346848D01*
X74999442Y-59346850D01*
X74984244Y-59462298D01*
X74984244Y-60859703D01*
X74999440Y-60975142D01*
X74999443Y-60975151D01*
X75043693Y-61081979D01*
X75051162Y-61151449D01*
X75019887Y-61213928D01*
X75016813Y-61217113D01*
X72459745Y-63774181D01*
X72398422Y-63807666D01*
X72372064Y-63810500D01*
X71625722Y-63810500D01*
X71510283Y-63825696D01*
X71510274Y-63825699D01*
X71366631Y-63885198D01*
X71243277Y-63979851D01*
X71148624Y-64103205D01*
X71089125Y-64246848D01*
X71089124Y-64246850D01*
X71073926Y-64362298D01*
X69674422Y-64362298D01*
X69659240Y-64246980D01*
X69659238Y-64246975D01*
X69599792Y-64103458D01*
X69599792Y-64103457D01*
X69505218Y-63980207D01*
X69381967Y-63885633D01*
X69238450Y-63826187D01*
X69238445Y-63826185D01*
X69123097Y-63811000D01*
X68974426Y-63811000D01*
X68974426Y-64811000D01*
X68474426Y-64811000D01*
X68474426Y-63811000D01*
X68325755Y-63811000D01*
X68210406Y-63826185D01*
X68210401Y-63826187D01*
X68066884Y-63885633D01*
X68066883Y-63885633D01*
X67943633Y-63980207D01*
X67849059Y-64103457D01*
X67849059Y-64103458D01*
X67789613Y-64246975D01*
X67789611Y-64246980D01*
X67774426Y-64362329D01*
X66057442Y-64362329D01*
X66057442Y-59462298D01*
X67773926Y-59462298D01*
X67773926Y-60859703D01*
X67789122Y-60975142D01*
X67789125Y-60975151D01*
X67848626Y-61118798D01*
X67943277Y-61242149D01*
X68066628Y-61336800D01*
X68210275Y-61396301D01*
X68325725Y-61411500D01*
X69123126Y-61411499D01*
X69123129Y-61411499D01*
X69238568Y-61396303D01*
X69238572Y-61396301D01*
X69238577Y-61396301D01*
X69382224Y-61336800D01*
X69505575Y-61242149D01*
X69600226Y-61118798D01*
X69659727Y-60975151D01*
X69674926Y-60859701D01*
X69674925Y-59462300D01*
X69674925Y-59462298D01*
X69674925Y-59462296D01*
X69659729Y-59346857D01*
X69659727Y-59346850D01*
X69659727Y-59346849D01*
X69600226Y-59203202D01*
X69505575Y-59079851D01*
X69382224Y-58985200D01*
X69382220Y-58985198D01*
X69238577Y-58925699D01*
X69238575Y-58925698D01*
X69123127Y-58910500D01*
X68325722Y-58910500D01*
X68210283Y-58925696D01*
X68210274Y-58925699D01*
X68066631Y-58985198D01*
X67943277Y-59079851D01*
X67848624Y-59203205D01*
X67789125Y-59346848D01*
X67789124Y-59346850D01*
X67773926Y-59462298D01*
X66057442Y-59462298D01*
X66057442Y-58253486D01*
X69426943Y-58253486D01*
X69437436Y-58356197D01*
X69492583Y-58522619D01*
X69492585Y-58522624D01*
X69584626Y-58671845D01*
X69708596Y-58795815D01*
X69857817Y-58887856D01*
X69857822Y-58887858D01*
X70024244Y-58943005D01*
X70024251Y-58943006D01*
X70126961Y-58953499D01*
X70176941Y-58953498D01*
X70176942Y-58953498D01*
X70176942Y-57978500D01*
X69426943Y-57978500D01*
X69426943Y-58253486D01*
X66057442Y-58253486D01*
X66057442Y-57203513D01*
X69426942Y-57203513D01*
X69426942Y-57478500D01*
X70176942Y-57478500D01*
X70176942Y-56503500D01*
X70676942Y-56503500D01*
X70676942Y-58953499D01*
X70726914Y-58953499D01*
X70726928Y-58953498D01*
X70829639Y-58943005D01*
X70996061Y-58887858D01*
X70996066Y-58887856D01*
X71145287Y-58795815D01*
X71269260Y-58671842D01*
X71271107Y-58668848D01*
X71272911Y-58667224D01*
X71273740Y-58666177D01*
X71273918Y-58666318D01*
X71323052Y-58622121D01*
X71392015Y-58610896D01*
X71456098Y-58638736D01*
X71482185Y-58668841D01*
X71484230Y-58672156D01*
X71484231Y-58672157D01*
X71539916Y-58727842D01*
X71573401Y-58789165D01*
X71568417Y-58858857D01*
X71526545Y-58914790D01*
X71499688Y-58930084D01*
X71366631Y-58985198D01*
X71243277Y-59079851D01*
X71148624Y-59203205D01*
X71089125Y-59346848D01*
X71089124Y-59346850D01*
X71073926Y-59462298D01*
X71073926Y-60859703D01*
X71089122Y-60975142D01*
X71089125Y-60975151D01*
X71148626Y-61118798D01*
X71243277Y-61242149D01*
X71366628Y-61336800D01*
X71510275Y-61396301D01*
X71625725Y-61411500D01*
X72423126Y-61411499D01*
X72423129Y-61411499D01*
X72538568Y-61396303D01*
X72538572Y-61396301D01*
X72538577Y-61396301D01*
X72682224Y-61336800D01*
X72805575Y-61242149D01*
X72900226Y-61118798D01*
X72959727Y-60975151D01*
X72974926Y-60859701D01*
X72974925Y-60213541D01*
X72994609Y-60146503D01*
X72995772Y-60144727D01*
X73026798Y-60098295D01*
X73078887Y-59972541D01*
X73102642Y-59853116D01*
X73105442Y-59839042D01*
X73105442Y-58787730D01*
X73125127Y-58720691D01*
X73141761Y-58700049D01*
X73169654Y-58672156D01*
X73261756Y-58522834D01*
X73316941Y-58356297D01*
X73327442Y-58253509D01*
X73327442Y-58253486D01*
X76589443Y-58253486D01*
X76599936Y-58356197D01*
X76655083Y-58522619D01*
X76655085Y-58522624D01*
X76747126Y-58671845D01*
X76871096Y-58795815D01*
X77020317Y-58887856D01*
X77020322Y-58887858D01*
X77186744Y-58943005D01*
X77186751Y-58943006D01*
X77289461Y-58953499D01*
X77339441Y-58953498D01*
X77339442Y-58953498D01*
X77339442Y-57978500D01*
X76589443Y-57978500D01*
X76589443Y-58253486D01*
X73327442Y-58253486D01*
X73327441Y-57844082D01*
X73347125Y-57777044D01*
X73363755Y-57756407D01*
X73779845Y-57340319D01*
X73841168Y-57306834D01*
X73867526Y-57304000D01*
X76465442Y-57304000D01*
X76532481Y-57323685D01*
X76578236Y-57376489D01*
X76589442Y-57428000D01*
X76589442Y-57478500D01*
X77715442Y-57478500D01*
X77782481Y-57498185D01*
X77828236Y-57550989D01*
X77839442Y-57602500D01*
X77839442Y-58953499D01*
X77889414Y-58953499D01*
X77889428Y-58953498D01*
X77992139Y-58943005D01*
X78158561Y-58887858D01*
X78158566Y-58887856D01*
X78307787Y-58795815D01*
X78431760Y-58671842D01*
X78433607Y-58668848D01*
X78435411Y-58667224D01*
X78436240Y-58666177D01*
X78436418Y-58666318D01*
X78485552Y-58622121D01*
X78554515Y-58610896D01*
X78618598Y-58638736D01*
X78644685Y-58668841D01*
X78646730Y-58672156D01*
X78646731Y-58672157D01*
X78716421Y-58741847D01*
X78749906Y-58803170D01*
X78744922Y-58872862D01*
X78703050Y-58928795D01*
X78676194Y-58944089D01*
X78576948Y-58985199D01*
X78576946Y-58985200D01*
X78453595Y-59079851D01*
X78358942Y-59203205D01*
X78299443Y-59346848D01*
X78299442Y-59346850D01*
X78284244Y-59462298D01*
X78284244Y-60859703D01*
X78299440Y-60975142D01*
X78299443Y-60975151D01*
X78358944Y-61118798D01*
X78453595Y-61242149D01*
X78576946Y-61336800D01*
X78720593Y-61396301D01*
X78836043Y-61411500D01*
X79633444Y-61411499D01*
X79633447Y-61411499D01*
X79748886Y-61396303D01*
X79748890Y-61396301D01*
X79748895Y-61396301D01*
X79892542Y-61336800D01*
X80015893Y-61242149D01*
X80110544Y-61118798D01*
X80170045Y-60975151D01*
X80185244Y-60859701D01*
X80185243Y-60180565D01*
X80194681Y-60133116D01*
X80241387Y-60020359D01*
X80251531Y-59969360D01*
X80255632Y-59948745D01*
X80255632Y-59948743D01*
X80267942Y-59886861D01*
X80267942Y-58787730D01*
X80287627Y-58720691D01*
X80304261Y-58700049D01*
X80332154Y-58672156D01*
X80424256Y-58522834D01*
X80479441Y-58356297D01*
X80489942Y-58253509D01*
X80489942Y-58253486D01*
X83864443Y-58253486D01*
X83874936Y-58356197D01*
X83930083Y-58522619D01*
X83930085Y-58522624D01*
X84022126Y-58671845D01*
X84146096Y-58795815D01*
X84295317Y-58887856D01*
X84295322Y-58887858D01*
X84461744Y-58943005D01*
X84461751Y-58943006D01*
X84564461Y-58953499D01*
X84614441Y-58953498D01*
X84614442Y-58953498D01*
X84614442Y-57978500D01*
X83864443Y-57978500D01*
X83864443Y-58253486D01*
X80489942Y-58253486D01*
X80489941Y-57844082D01*
X80509625Y-57777044D01*
X80526255Y-57756407D01*
X80942345Y-57340319D01*
X81003668Y-57306834D01*
X81030026Y-57304000D01*
X83740442Y-57304000D01*
X83807481Y-57323685D01*
X83853236Y-57376489D01*
X83864442Y-57428000D01*
X83864442Y-57478500D01*
X84990442Y-57478500D01*
X85057481Y-57498185D01*
X85103236Y-57550989D01*
X85114442Y-57602500D01*
X85114442Y-58953499D01*
X85164414Y-58953499D01*
X85164428Y-58953498D01*
X85267139Y-58943005D01*
X85433561Y-58887858D01*
X85433566Y-58887856D01*
X85582787Y-58795815D01*
X85706760Y-58671842D01*
X85708607Y-58668848D01*
X85710411Y-58667224D01*
X85711240Y-58666177D01*
X85711418Y-58666318D01*
X85760552Y-58622121D01*
X85829515Y-58610896D01*
X85893598Y-58638736D01*
X85919685Y-58668841D01*
X85921730Y-58672156D01*
X85921731Y-58672157D01*
X85972475Y-58722901D01*
X86005960Y-58784224D01*
X86000976Y-58853916D01*
X85959104Y-58909849D01*
X85932247Y-58925143D01*
X85787263Y-58985198D01*
X85663909Y-59079851D01*
X85569256Y-59203205D01*
X85509757Y-59346848D01*
X85509756Y-59346850D01*
X85494558Y-59462298D01*
X85494558Y-60859703D01*
X85509754Y-60975142D01*
X85509757Y-60975151D01*
X85569258Y-61118798D01*
X85663909Y-61242149D01*
X85787260Y-61336800D01*
X85930907Y-61396301D01*
X86046357Y-61411500D01*
X86843758Y-61411499D01*
X86843761Y-61411499D01*
X86959200Y-61396303D01*
X86959204Y-61396301D01*
X86959209Y-61396301D01*
X87102856Y-61336800D01*
X87226207Y-61242149D01*
X87320858Y-61118798D01*
X87380359Y-60975151D01*
X87395558Y-60859701D01*
X87395557Y-60221918D01*
X87415241Y-60154880D01*
X87416455Y-60153028D01*
X87420815Y-60146503D01*
X87464298Y-60081427D01*
X87516387Y-59955673D01*
X87536788Y-59853113D01*
X87542942Y-59822175D01*
X87542942Y-58787730D01*
X87562627Y-58720691D01*
X87579261Y-58700049D01*
X87607154Y-58672156D01*
X87699256Y-58522834D01*
X87754441Y-58356297D01*
X87764942Y-58253509D01*
X87764942Y-58253486D01*
X90989443Y-58253486D01*
X90999936Y-58356197D01*
X91055083Y-58522619D01*
X91055085Y-58522624D01*
X91147126Y-58671845D01*
X91271096Y-58795815D01*
X91420317Y-58887856D01*
X91420322Y-58887858D01*
X91586744Y-58943005D01*
X91586751Y-58943006D01*
X91689461Y-58953499D01*
X91739441Y-58953498D01*
X91739442Y-58953498D01*
X91739442Y-57978500D01*
X90989443Y-57978500D01*
X90989443Y-58253486D01*
X87764942Y-58253486D01*
X87764941Y-57844082D01*
X87784625Y-57777044D01*
X87801255Y-57756407D01*
X88217345Y-57340319D01*
X88278668Y-57306834D01*
X88305026Y-57304000D01*
X90865442Y-57304000D01*
X90932481Y-57323685D01*
X90978236Y-57376489D01*
X90989442Y-57428000D01*
X90989442Y-57478500D01*
X92115442Y-57478500D01*
X92182481Y-57498185D01*
X92228236Y-57550989D01*
X92239442Y-57602500D01*
X92239442Y-58953499D01*
X92289414Y-58953499D01*
X92289428Y-58953498D01*
X92392139Y-58943005D01*
X92558561Y-58887858D01*
X92558566Y-58887856D01*
X92707787Y-58795815D01*
X92831760Y-58671842D01*
X92833607Y-58668848D01*
X92835411Y-58667224D01*
X92836240Y-58666177D01*
X92836418Y-58666318D01*
X92885552Y-58622121D01*
X92954515Y-58610896D01*
X93018598Y-58638736D01*
X93044685Y-58668841D01*
X93046730Y-58672156D01*
X93046731Y-58672157D01*
X93122463Y-58747889D01*
X93155948Y-58809212D01*
X93150964Y-58878904D01*
X93109092Y-58934837D01*
X93082236Y-58950131D01*
X92997576Y-58985199D01*
X92997574Y-58985200D01*
X92874223Y-59079851D01*
X92779570Y-59203205D01*
X92720071Y-59346848D01*
X92720070Y-59346850D01*
X92704872Y-59462298D01*
X92704872Y-60859703D01*
X92720068Y-60975142D01*
X92720071Y-60975151D01*
X92779572Y-61118798D01*
X92874223Y-61242149D01*
X92997574Y-61336800D01*
X93141221Y-61396301D01*
X93256671Y-61411500D01*
X94054072Y-61411499D01*
X94054075Y-61411499D01*
X94169514Y-61396303D01*
X94169518Y-61396301D01*
X94169523Y-61396301D01*
X94313170Y-61336800D01*
X94436521Y-61242149D01*
X94531172Y-61118798D01*
X94590673Y-60975151D01*
X94605872Y-60859701D01*
X94605871Y-60151393D01*
X94615310Y-60103941D01*
X94621352Y-60089355D01*
X94641387Y-60040987D01*
X94655002Y-59972541D01*
X94655632Y-59969373D01*
X94655632Y-59969371D01*
X94659736Y-59948743D01*
X94667942Y-59907488D01*
X94667942Y-58787730D01*
X94687627Y-58720691D01*
X94704261Y-58700049D01*
X94732154Y-58672156D01*
X94824256Y-58522834D01*
X94879441Y-58356297D01*
X94889942Y-58253509D01*
X94889942Y-58253486D01*
X98189443Y-58253486D01*
X98199936Y-58356197D01*
X98255083Y-58522619D01*
X98255085Y-58522624D01*
X98347126Y-58671845D01*
X98471096Y-58795815D01*
X98620317Y-58887856D01*
X98620322Y-58887858D01*
X98786744Y-58943005D01*
X98786751Y-58943006D01*
X98889461Y-58953499D01*
X98939441Y-58953498D01*
X98939442Y-58953498D01*
X98939442Y-57978500D01*
X98189443Y-57978500D01*
X98189443Y-58253486D01*
X94889942Y-58253486D01*
X94889941Y-57844082D01*
X94909625Y-57777044D01*
X94926255Y-57756407D01*
X95342345Y-57340319D01*
X95403668Y-57306834D01*
X95430026Y-57304000D01*
X98065442Y-57304000D01*
X98132481Y-57323685D01*
X98178236Y-57376489D01*
X98189442Y-57428000D01*
X98189442Y-57478500D01*
X99315442Y-57478500D01*
X99382481Y-57498185D01*
X99428236Y-57550989D01*
X99439442Y-57602500D01*
X99439442Y-58953499D01*
X99489414Y-58953499D01*
X99489428Y-58953498D01*
X99592139Y-58943005D01*
X99758561Y-58887858D01*
X99758566Y-58887856D01*
X99907787Y-58795815D01*
X100031760Y-58671842D01*
X100033607Y-58668848D01*
X100035411Y-58667224D01*
X100036240Y-58666177D01*
X100036418Y-58666318D01*
X100085552Y-58622121D01*
X100154515Y-58610896D01*
X100218598Y-58638736D01*
X100244685Y-58668841D01*
X100246730Y-58672156D01*
X100246731Y-58672157D01*
X100325484Y-58750910D01*
X100358969Y-58812233D01*
X100353985Y-58881925D01*
X100312113Y-58937858D01*
X100285257Y-58953152D01*
X100207890Y-58985199D01*
X100207888Y-58985200D01*
X100084537Y-59079851D01*
X99989884Y-59203205D01*
X99930385Y-59346848D01*
X99930384Y-59346850D01*
X99915186Y-59462298D01*
X99915186Y-60859703D01*
X99930382Y-60975142D01*
X99930385Y-60975151D01*
X99989886Y-61118798D01*
X100084537Y-61242149D01*
X100207888Y-61336800D01*
X100351535Y-61396301D01*
X100466985Y-61411500D01*
X101264386Y-61411499D01*
X101264389Y-61411499D01*
X101379828Y-61396303D01*
X101379832Y-61396301D01*
X101379837Y-61396301D01*
X101523484Y-61336800D01*
X101646835Y-61242149D01*
X101741486Y-61118798D01*
X101800987Y-60975151D01*
X101816186Y-60859701D01*
X101816185Y-60136808D01*
X101825625Y-60089355D01*
X101841384Y-60051310D01*
X101841384Y-60051307D01*
X101841387Y-60051302D01*
X101854254Y-59986615D01*
X101861787Y-59948744D01*
X101867942Y-59917804D01*
X101867942Y-58787730D01*
X101887627Y-58720691D01*
X101904261Y-58700049D01*
X101932154Y-58672156D01*
X102024256Y-58522834D01*
X102079441Y-58356297D01*
X102089942Y-58253509D01*
X102089942Y-58253486D01*
X105464443Y-58253486D01*
X105474936Y-58356197D01*
X105530083Y-58522619D01*
X105530085Y-58522624D01*
X105622126Y-58671845D01*
X105746096Y-58795815D01*
X105895317Y-58887856D01*
X105895322Y-58887858D01*
X106061744Y-58943005D01*
X106061751Y-58943006D01*
X106164461Y-58953499D01*
X106214441Y-58953498D01*
X106214442Y-58953498D01*
X106214442Y-57978500D01*
X105464443Y-57978500D01*
X105464443Y-58253486D01*
X102089942Y-58253486D01*
X102089941Y-57844082D01*
X102109625Y-57777044D01*
X102126255Y-57756407D01*
X102542345Y-57340319D01*
X102603668Y-57306834D01*
X102630026Y-57304000D01*
X105340442Y-57304000D01*
X105407481Y-57323685D01*
X105453236Y-57376489D01*
X105464442Y-57428000D01*
X105464442Y-57478500D01*
X106590442Y-57478500D01*
X106657481Y-57498185D01*
X106703236Y-57550989D01*
X106714442Y-57602500D01*
X106714442Y-58953499D01*
X106764414Y-58953499D01*
X106764428Y-58953498D01*
X106867139Y-58943005D01*
X107033561Y-58887858D01*
X107033566Y-58887856D01*
X107182787Y-58795815D01*
X107306760Y-58671842D01*
X107308607Y-58668848D01*
X107310411Y-58667224D01*
X107311240Y-58666177D01*
X107311418Y-58666318D01*
X107360552Y-58622121D01*
X107429515Y-58610896D01*
X107493598Y-58638736D01*
X107519685Y-58668841D01*
X107521730Y-58672156D01*
X107521731Y-58672157D01*
X107581538Y-58731964D01*
X107615023Y-58793287D01*
X107610039Y-58862979D01*
X107568167Y-58918912D01*
X107541310Y-58934206D01*
X107418205Y-58985198D01*
X107294851Y-59079851D01*
X107200198Y-59203205D01*
X107140699Y-59346848D01*
X107140698Y-59346850D01*
X107125500Y-59462298D01*
X107125500Y-60859703D01*
X107140696Y-60975142D01*
X107140699Y-60975151D01*
X107200200Y-61118798D01*
X107294851Y-61242149D01*
X107418202Y-61336800D01*
X107561849Y-61396301D01*
X107677299Y-61411500D01*
X108474700Y-61411499D01*
X108474703Y-61411499D01*
X108590142Y-61396303D01*
X108590146Y-61396301D01*
X108590151Y-61396301D01*
X108733798Y-61336800D01*
X108857149Y-61242149D01*
X108951800Y-61118798D01*
X109011301Y-60975151D01*
X109026500Y-60859701D01*
X109026499Y-60206553D01*
X109046183Y-60139515D01*
X109047398Y-60137661D01*
X109064298Y-60112369D01*
X109116387Y-59986615D01*
X109130075Y-59917802D01*
X109142942Y-59853118D01*
X109142942Y-58787730D01*
X109162627Y-58720691D01*
X109179261Y-58700049D01*
X109207154Y-58672156D01*
X109299256Y-58522834D01*
X109354441Y-58356297D01*
X109364942Y-58253509D01*
X109364942Y-58253486D01*
X112589443Y-58253486D01*
X112599936Y-58356197D01*
X112655083Y-58522619D01*
X112655085Y-58522624D01*
X112747126Y-58671845D01*
X112871096Y-58795815D01*
X113020317Y-58887856D01*
X113020322Y-58887858D01*
X113186744Y-58943005D01*
X113186751Y-58943006D01*
X113289461Y-58953499D01*
X113339441Y-58953498D01*
X113339442Y-58953498D01*
X113339442Y-57978500D01*
X112589443Y-57978500D01*
X112589443Y-58253486D01*
X109364942Y-58253486D01*
X109364941Y-57969082D01*
X109384625Y-57902044D01*
X109401255Y-57881407D01*
X109942345Y-57340319D01*
X110003668Y-57306834D01*
X110030026Y-57304000D01*
X112465442Y-57304000D01*
X112532481Y-57323685D01*
X112578236Y-57376489D01*
X112589442Y-57428000D01*
X112589442Y-57478500D01*
X113715442Y-57478500D01*
X113782481Y-57498185D01*
X113828236Y-57550989D01*
X113839442Y-57602500D01*
X113839442Y-58953499D01*
X113889414Y-58953499D01*
X113889428Y-58953498D01*
X113992139Y-58943005D01*
X114158561Y-58887858D01*
X114158566Y-58887856D01*
X114307787Y-58795815D01*
X114431760Y-58671842D01*
X114433607Y-58668848D01*
X114435411Y-58667224D01*
X114436240Y-58666177D01*
X114436418Y-58666318D01*
X114485552Y-58622121D01*
X114554515Y-58610896D01*
X114618598Y-58638736D01*
X114644685Y-58668841D01*
X114646730Y-58672156D01*
X114646731Y-58672157D01*
X114731526Y-58756952D01*
X114765011Y-58818275D01*
X114760027Y-58887967D01*
X114718155Y-58943900D01*
X114691298Y-58959194D01*
X114628519Y-58985198D01*
X114505165Y-59079851D01*
X114410512Y-59203205D01*
X114351013Y-59346848D01*
X114351012Y-59346850D01*
X114335814Y-59462298D01*
X114335814Y-60859703D01*
X114351010Y-60975142D01*
X114351013Y-60975151D01*
X114410514Y-61118798D01*
X114505165Y-61242149D01*
X114628516Y-61336800D01*
X114772163Y-61396301D01*
X114887613Y-61411500D01*
X115685014Y-61411499D01*
X115685017Y-61411499D01*
X115800456Y-61396303D01*
X115800460Y-61396301D01*
X115800465Y-61396301D01*
X115944112Y-61336800D01*
X116067463Y-61242149D01*
X116162114Y-61118798D01*
X116221615Y-60975151D01*
X116236814Y-60859701D01*
X116236813Y-60105401D01*
X116240872Y-60078039D01*
X116240198Y-60077905D01*
X116241387Y-60071929D01*
X116265890Y-59948744D01*
X116265891Y-59948744D01*
X116265891Y-59948738D01*
X116267942Y-59938430D01*
X116267942Y-58787730D01*
X116287627Y-58720691D01*
X116304261Y-58700049D01*
X116332154Y-58672156D01*
X116424256Y-58522834D01*
X116479441Y-58356297D01*
X116489942Y-58253509D01*
X116489942Y-58253486D01*
X119789443Y-58253486D01*
X119799936Y-58356197D01*
X119855083Y-58522619D01*
X119855085Y-58522624D01*
X119947126Y-58671845D01*
X120071096Y-58795815D01*
X120220317Y-58887856D01*
X120220322Y-58887858D01*
X120386744Y-58943005D01*
X120386751Y-58943006D01*
X120489461Y-58953499D01*
X120539441Y-58953498D01*
X120539442Y-58953498D01*
X120539442Y-57978500D01*
X119789443Y-57978500D01*
X119789443Y-58253486D01*
X116489942Y-58253486D01*
X116489941Y-57844082D01*
X116509625Y-57777044D01*
X116526255Y-57756407D01*
X116942345Y-57340319D01*
X117003668Y-57306834D01*
X117030026Y-57304000D01*
X117508884Y-57304000D01*
X119665442Y-57304000D01*
X119732481Y-57323685D01*
X119778236Y-57376489D01*
X119789442Y-57428000D01*
X119789442Y-57478500D01*
X120915442Y-57478500D01*
X120982481Y-57498185D01*
X121028236Y-57550989D01*
X121039442Y-57602500D01*
X121039442Y-58953499D01*
X121089414Y-58953499D01*
X121089428Y-58953498D01*
X121192139Y-58943005D01*
X121358561Y-58887858D01*
X121358566Y-58887856D01*
X121507787Y-58795815D01*
X121631760Y-58671842D01*
X121633607Y-58668848D01*
X121635411Y-58667224D01*
X121636240Y-58666177D01*
X121636418Y-58666318D01*
X121685552Y-58622121D01*
X121754515Y-58610896D01*
X121818598Y-58638736D01*
X121844685Y-58668841D01*
X121846730Y-58672156D01*
X121846731Y-58672157D01*
X121934547Y-58759973D01*
X121968032Y-58821296D01*
X121963048Y-58890988D01*
X121921176Y-58946921D01*
X121894319Y-58962215D01*
X121838833Y-58985198D01*
X121715479Y-59079851D01*
X121620826Y-59203205D01*
X121561327Y-59346848D01*
X121561326Y-59346850D01*
X121546128Y-59462298D01*
X121546128Y-60859703D01*
X121561324Y-60975142D01*
X121561327Y-60975151D01*
X121620828Y-61118798D01*
X121715479Y-61242149D01*
X121838830Y-61336800D01*
X121982477Y-61396301D01*
X122097927Y-61411500D01*
X122895328Y-61411499D01*
X122895331Y-61411499D01*
X123010770Y-61396303D01*
X123010774Y-61396301D01*
X123010779Y-61396301D01*
X123154426Y-61336800D01*
X123277777Y-61242149D01*
X123372428Y-61118798D01*
X123431929Y-60975151D01*
X123447128Y-60859701D01*
X123447127Y-60065595D01*
X123449510Y-60041404D01*
X123465890Y-59959058D01*
X123465891Y-59959058D01*
X123465891Y-59959052D01*
X123467942Y-59948744D01*
X123467942Y-58787730D01*
X123487627Y-58720691D01*
X123504261Y-58700049D01*
X123532154Y-58672156D01*
X123624256Y-58522834D01*
X123679441Y-58356297D01*
X123689942Y-58253509D01*
X123689942Y-58253486D01*
X126989443Y-58253486D01*
X126999936Y-58356197D01*
X127055083Y-58522619D01*
X127055085Y-58522624D01*
X127147126Y-58671845D01*
X127271096Y-58795815D01*
X127420317Y-58887856D01*
X127420322Y-58887858D01*
X127586744Y-58943005D01*
X127586751Y-58943006D01*
X127689461Y-58953499D01*
X127739441Y-58953498D01*
X127739442Y-58953498D01*
X127739442Y-57978500D01*
X126989443Y-57978500D01*
X126989443Y-58253486D01*
X123689942Y-58253486D01*
X123689941Y-57844082D01*
X123709625Y-57777044D01*
X123726255Y-57756407D01*
X124142345Y-57340319D01*
X124203668Y-57306834D01*
X124230026Y-57304000D01*
X126865442Y-57304000D01*
X126932481Y-57323685D01*
X126978236Y-57376489D01*
X126989442Y-57428000D01*
X126989442Y-57478500D01*
X128115442Y-57478500D01*
X128182481Y-57498185D01*
X128228236Y-57550989D01*
X128239442Y-57602500D01*
X128239442Y-58953499D01*
X128289414Y-58953499D01*
X128289428Y-58953498D01*
X128392139Y-58943005D01*
X128558561Y-58887858D01*
X128558566Y-58887856D01*
X128707787Y-58795815D01*
X128831760Y-58671842D01*
X128833607Y-58668848D01*
X128835411Y-58667224D01*
X128836240Y-58666177D01*
X128836418Y-58666318D01*
X128885552Y-58622121D01*
X128954515Y-58610896D01*
X129018598Y-58638736D01*
X129044685Y-58668841D01*
X129046730Y-58672156D01*
X129046731Y-58672157D01*
X129137568Y-58762994D01*
X129171053Y-58824317D01*
X129166069Y-58894009D01*
X129124197Y-58949942D01*
X129097340Y-58965236D01*
X129049147Y-58985198D01*
X128925793Y-59079851D01*
X128831140Y-59203205D01*
X128771641Y-59346848D01*
X128771640Y-59346850D01*
X128756442Y-59462298D01*
X128756442Y-60859703D01*
X128771638Y-60975142D01*
X128771641Y-60975151D01*
X128831142Y-61118798D01*
X128925793Y-61242149D01*
X129049144Y-61336800D01*
X129192791Y-61396301D01*
X129308241Y-61411500D01*
X130105642Y-61411499D01*
X130105645Y-61411499D01*
X130221084Y-61396303D01*
X130221088Y-61396301D01*
X130221093Y-61396301D01*
X130364740Y-61336800D01*
X130488091Y-61242149D01*
X130582742Y-61118798D01*
X130642243Y-60975151D01*
X130657442Y-60859701D01*
X130657441Y-60024057D01*
X130659824Y-59999865D01*
X130664299Y-59977372D01*
X130665890Y-59969372D01*
X130665890Y-59969371D01*
X130665891Y-59969371D01*
X130665891Y-59969366D01*
X130667942Y-59959058D01*
X130667942Y-58787730D01*
X130687627Y-58720691D01*
X130704261Y-58700049D01*
X130732154Y-58672156D01*
X130824256Y-58522834D01*
X130879441Y-58356297D01*
X130889942Y-58253509D01*
X130889942Y-58253486D01*
X134189443Y-58253486D01*
X134199936Y-58356197D01*
X134255083Y-58522619D01*
X134255085Y-58522624D01*
X134347126Y-58671845D01*
X134471096Y-58795815D01*
X134620317Y-58887856D01*
X134620322Y-58887858D01*
X134786744Y-58943005D01*
X134786751Y-58943006D01*
X134889461Y-58953499D01*
X134939441Y-58953498D01*
X134939442Y-58953498D01*
X134939442Y-57978500D01*
X134189443Y-57978500D01*
X134189443Y-58253486D01*
X130889942Y-58253486D01*
X130889941Y-57844082D01*
X130909625Y-57777044D01*
X130926255Y-57756407D01*
X131342345Y-57340319D01*
X131403668Y-57306834D01*
X131430026Y-57304000D01*
X134065442Y-57304000D01*
X134132481Y-57323685D01*
X134178236Y-57376489D01*
X134189442Y-57428000D01*
X134189442Y-57478500D01*
X135315442Y-57478500D01*
X135382481Y-57498185D01*
X135428236Y-57550989D01*
X135439442Y-57602500D01*
X135439442Y-58953499D01*
X135489414Y-58953499D01*
X135489428Y-58953498D01*
X135592139Y-58943005D01*
X135758561Y-58887858D01*
X135758566Y-58887856D01*
X135907787Y-58795815D01*
X136031760Y-58671842D01*
X136033607Y-58668848D01*
X136035411Y-58667224D01*
X136036240Y-58666177D01*
X136036418Y-58666318D01*
X136085552Y-58622121D01*
X136154515Y-58610896D01*
X136218598Y-58638736D01*
X136244685Y-58668841D01*
X136246730Y-58672156D01*
X136246731Y-58672157D01*
X136340589Y-58766015D01*
X136374074Y-58827338D01*
X136369090Y-58897030D01*
X136327218Y-58952963D01*
X136300361Y-58968257D01*
X136259461Y-58985198D01*
X136136107Y-59079851D01*
X136041454Y-59203205D01*
X135981955Y-59346848D01*
X135981954Y-59346850D01*
X135966756Y-59462298D01*
X135966756Y-60859703D01*
X135981952Y-60975142D01*
X135981955Y-60975151D01*
X136041456Y-61118798D01*
X136136107Y-61242149D01*
X136259458Y-61336800D01*
X136403105Y-61396301D01*
X136518555Y-61411500D01*
X137315956Y-61411499D01*
X137315959Y-61411499D01*
X137431398Y-61396303D01*
X137431402Y-61396301D01*
X137431407Y-61396301D01*
X137575054Y-61336800D01*
X137698405Y-61242149D01*
X137793056Y-61118798D01*
X137852557Y-60975151D01*
X137867756Y-60859701D01*
X137867755Y-59977371D01*
X137867942Y-59973570D01*
X137867942Y-58787730D01*
X137887627Y-58720691D01*
X137904261Y-58700049D01*
X137932154Y-58672156D01*
X138024256Y-58522834D01*
X138079441Y-58356297D01*
X138089942Y-58253509D01*
X138089941Y-57203492D01*
X138079441Y-57100703D01*
X138024256Y-56934166D01*
X137932154Y-56784844D01*
X137808098Y-56660788D01*
X137658776Y-56568686D01*
X137492239Y-56513501D01*
X137492237Y-56513500D01*
X137389458Y-56503000D01*
X137389451Y-56503000D01*
X136980026Y-56503000D01*
X136912987Y-56483315D01*
X136892345Y-56466681D01*
X136730058Y-56304394D01*
X136707716Y-56268808D01*
X136705754Y-56269754D01*
X136702734Y-56263483D01*
X136606757Y-56110737D01*
X136479204Y-55983184D01*
X136326465Y-55887211D01*
X136156196Y-55827631D01*
X136156191Y-55827630D01*
X135976946Y-55807435D01*
X135976938Y-55807435D01*
X135797692Y-55827630D01*
X135797687Y-55827631D01*
X135627418Y-55887211D01*
X135602301Y-55902994D01*
X135536329Y-55922000D01*
X131024382Y-55922000D01*
X130890890Y-55948553D01*
X130890880Y-55948556D01*
X130765132Y-56000642D01*
X130765129Y-56000644D01*
X130651956Y-56076263D01*
X130651949Y-56076269D01*
X130261538Y-56466681D01*
X130200215Y-56500166D01*
X130173857Y-56503000D01*
X129780026Y-56503000D01*
X129712987Y-56483315D01*
X129692345Y-56466681D01*
X129301934Y-56076269D01*
X129301927Y-56076263D01*
X129188754Y-56000644D01*
X129188751Y-56000642D01*
X129063003Y-55948556D01*
X129062993Y-55948553D01*
X128929502Y-55922000D01*
X128929500Y-55922000D01*
X123824384Y-55922000D01*
X123824382Y-55922000D01*
X123690890Y-55948553D01*
X123690880Y-55948556D01*
X123565132Y-56000642D01*
X123565129Y-56000644D01*
X123451956Y-56076263D01*
X123451949Y-56076269D01*
X123061538Y-56466681D01*
X123000215Y-56500166D01*
X122973857Y-56503000D01*
X122580026Y-56503000D01*
X122512987Y-56483315D01*
X122492345Y-56466681D01*
X122101934Y-56076269D01*
X122101927Y-56076263D01*
X121988754Y-56000644D01*
X121988751Y-56000642D01*
X121863003Y-55948556D01*
X121862993Y-55948553D01*
X121729502Y-55922000D01*
X121729500Y-55922000D01*
X117645000Y-55922000D01*
X116624384Y-55922000D01*
X116624382Y-55922000D01*
X116490890Y-55948553D01*
X116490880Y-55948556D01*
X116365132Y-56000642D01*
X116365129Y-56000644D01*
X116251956Y-56076263D01*
X116251949Y-56076269D01*
X115861538Y-56466681D01*
X115800215Y-56500166D01*
X115773857Y-56503000D01*
X115380026Y-56503000D01*
X115312987Y-56483315D01*
X115292345Y-56466681D01*
X114901934Y-56076269D01*
X114901927Y-56076263D01*
X114788754Y-56000644D01*
X114788751Y-56000642D01*
X114663003Y-55948556D01*
X114662993Y-55948553D01*
X114529502Y-55922000D01*
X114529500Y-55922000D01*
X109624384Y-55922000D01*
X109624382Y-55922000D01*
X109490890Y-55948553D01*
X109490880Y-55948556D01*
X109365132Y-56000642D01*
X109365129Y-56000644D01*
X109251956Y-56076263D01*
X109251949Y-56076269D01*
X108851982Y-56476236D01*
X108790659Y-56509721D01*
X108751699Y-56511913D01*
X108664460Y-56503000D01*
X108664451Y-56503000D01*
X108255026Y-56503000D01*
X108187987Y-56483315D01*
X108167345Y-56466681D01*
X107776934Y-56076269D01*
X107776927Y-56076263D01*
X107663754Y-56000644D01*
X107663751Y-56000642D01*
X107538003Y-55948556D01*
X107537993Y-55948553D01*
X107404502Y-55922000D01*
X107404500Y-55922000D01*
X102224384Y-55922000D01*
X102224382Y-55922000D01*
X102090890Y-55948553D01*
X102090880Y-55948556D01*
X101965132Y-56000642D01*
X101965129Y-56000644D01*
X101851956Y-56076263D01*
X101851949Y-56076269D01*
X101461538Y-56466681D01*
X101400215Y-56500166D01*
X101373857Y-56503000D01*
X100980026Y-56503000D01*
X100912987Y-56483315D01*
X100892345Y-56466681D01*
X100501934Y-56076269D01*
X100501927Y-56076263D01*
X100388754Y-56000644D01*
X100388751Y-56000642D01*
X100263003Y-55948556D01*
X100262993Y-55948553D01*
X100129502Y-55922000D01*
X100129500Y-55922000D01*
X95024384Y-55922000D01*
X95024382Y-55922000D01*
X94890890Y-55948553D01*
X94890880Y-55948556D01*
X94765132Y-56000642D01*
X94765129Y-56000644D01*
X94651956Y-56076263D01*
X94651949Y-56076269D01*
X94261538Y-56466681D01*
X94200215Y-56500166D01*
X94173857Y-56503000D01*
X93780026Y-56503000D01*
X93712987Y-56483315D01*
X93692345Y-56466681D01*
X93301934Y-56076269D01*
X93301927Y-56076263D01*
X93188754Y-56000644D01*
X93188751Y-56000642D01*
X93063003Y-55948556D01*
X93062993Y-55948553D01*
X92929502Y-55922000D01*
X92929500Y-55922000D01*
X87899384Y-55922000D01*
X87899382Y-55922000D01*
X87765890Y-55948553D01*
X87765880Y-55948556D01*
X87640132Y-56000642D01*
X87640129Y-56000644D01*
X87526956Y-56076263D01*
X87526949Y-56076269D01*
X87136538Y-56466681D01*
X87075215Y-56500166D01*
X87048857Y-56503000D01*
X86655026Y-56503000D01*
X86587987Y-56483315D01*
X86567345Y-56466681D01*
X86176934Y-56076269D01*
X86176927Y-56076263D01*
X86063754Y-56000644D01*
X86063751Y-56000642D01*
X85938003Y-55948556D01*
X85937993Y-55948553D01*
X85804502Y-55922000D01*
X85804500Y-55922000D01*
X80624384Y-55922000D01*
X80624382Y-55922000D01*
X80490890Y-55948553D01*
X80490880Y-55948556D01*
X80365132Y-56000642D01*
X80365129Y-56000644D01*
X80251956Y-56076263D01*
X80251949Y-56076269D01*
X79861538Y-56466681D01*
X79800215Y-56500166D01*
X79773857Y-56503000D01*
X79380026Y-56503000D01*
X79312987Y-56483315D01*
X79292345Y-56466681D01*
X78901934Y-56076269D01*
X78901927Y-56076263D01*
X78788754Y-56000644D01*
X78788751Y-56000642D01*
X78663003Y-55948556D01*
X78662993Y-55948553D01*
X78529502Y-55922000D01*
X78529500Y-55922000D01*
X73461884Y-55922000D01*
X73461882Y-55922000D01*
X73328390Y-55948553D01*
X73328380Y-55948556D01*
X73202632Y-56000642D01*
X73202629Y-56000644D01*
X73089456Y-56076263D01*
X73089449Y-56076269D01*
X72699037Y-56466681D01*
X72637714Y-56500166D01*
X72611356Y-56503000D01*
X72026940Y-56503000D01*
X72026922Y-56503001D01*
X71924145Y-56513500D01*
X71924142Y-56513501D01*
X71757610Y-56568685D01*
X71757605Y-56568687D01*
X71608284Y-56660789D01*
X71484230Y-56784843D01*
X71484225Y-56784849D01*
X71482183Y-56788161D01*
X71480189Y-56789953D01*
X71479749Y-56790511D01*
X71479653Y-56790435D01*
X71430233Y-56834883D01*
X71361270Y-56846102D01*
X71297189Y-56818255D01*
X71271110Y-56788156D01*
X71269261Y-56785159D01*
X71269258Y-56785155D01*
X71145287Y-56661184D01*
X70996066Y-56569143D01*
X70996061Y-56569141D01*
X70829639Y-56513994D01*
X70829632Y-56513993D01*
X70726928Y-56503500D01*
X70676942Y-56503500D01*
X70176942Y-56503500D01*
X70176941Y-56503499D01*
X70126971Y-56503500D01*
X70126953Y-56503501D01*
X70024244Y-56513994D01*
X69857822Y-56569141D01*
X69857817Y-56569143D01*
X69708596Y-56661184D01*
X69584626Y-56785154D01*
X69492585Y-56934375D01*
X69492583Y-56934380D01*
X69437436Y-57100802D01*
X69437435Y-57100809D01*
X69426942Y-57203513D01*
X66057442Y-57203513D01*
X66057442Y-55115066D01*
X66057707Y-55106956D01*
X66061771Y-55044951D01*
X66074017Y-54858105D01*
X66076132Y-54842051D01*
X66123990Y-54601454D01*
X66128179Y-54585817D01*
X66207034Y-54353522D01*
X66213236Y-54338551D01*
X66321730Y-54118548D01*
X66329833Y-54104512D01*
X66466124Y-53900541D01*
X66475988Y-53887688D01*
X66637730Y-53703261D01*
X66649185Y-53691805D01*
X66833624Y-53530060D01*
X66846470Y-53520202D01*
X67050435Y-53383920D01*
X67064482Y-53375811D01*
X67284478Y-53267324D01*
X67299453Y-53261122D01*
X67531741Y-53182274D01*
X67547391Y-53178081D01*
X67787987Y-53130227D01*
X67804046Y-53128113D01*
X68053542Y-53111764D01*
X68061626Y-53111500D01*
X68122826Y-53111501D01*
X68122830Y-53111500D01*
X137552879Y-53111500D01*
X137560991Y-53111766D01*
G37*
%TD.AperFunction*%
%TD*%
M02*
