%TF.GenerationSoftware,KiCad,Pcbnew,9.0.3*%
%TF.CreationDate,2025-07-20T20:49:32+01:00*%
%TF.ProjectId,disturbance-free-calling,64697374-7572-4626-916e-63652d667265,0.2*%
%TF.SameCoordinates,Original*%
%TF.FileFunction,Copper,L1,Top*%
%TF.FilePolarity,Positive*%
%FSLAX46Y46*%
G04 Gerber Fmt 4.6, Leading zero omitted, Abs format (unit mm)*
G04 Created by KiCad (PCBNEW 9.0.3) date 2025-07-20 20:49:32*
%MOMM*%
%LPD*%
G01*
G04 APERTURE LIST*
G04 Aperture macros list*
%AMRoundRect*
0 Rectangle with rounded corners*
0 $1 Rounding radius*
0 $2 $3 $4 $5 $6 $7 $8 $9 X,Y pos of 4 corners*
0 Add a 4 corners polygon primitive as box body*
4,1,4,$2,$3,$4,$5,$6,$7,$8,$9,$2,$3,0*
0 Add four circle primitives for the rounded corners*
1,1,$1+$1,$2,$3*
1,1,$1+$1,$4,$5*
1,1,$1+$1,$6,$7*
1,1,$1+$1,$8,$9*
0 Add four rect primitives between the rounded corners*
20,1,$1+$1,$2,$3,$4,$5,0*
20,1,$1+$1,$4,$5,$6,$7,0*
20,1,$1+$1,$6,$7,$8,$9,0*
20,1,$1+$1,$8,$9,$2,$3,0*%
G04 Aperture macros list end*
%TA.AperFunction,SMDPad,CuDef*%
%ADD10RoundRect,0.250000X0.250000X0.475000X-0.250000X0.475000X-0.250000X-0.475000X0.250000X-0.475000X0*%
%TD*%
%TA.AperFunction,ComponentPad*%
%ADD11C,4.400000*%
%TD*%
%TA.AperFunction,SMDPad,CuDef*%
%ADD12RoundRect,0.090000X-0.360000X0.660000X-0.360000X-0.660000X0.360000X-0.660000X0.360000X0.660000X0*%
%TD*%
%TA.AperFunction,SMDPad,CuDef*%
%ADD13RoundRect,0.250000X-0.262500X-0.450000X0.262500X-0.450000X0.262500X0.450000X-0.262500X0.450000X0*%
%TD*%
%TA.AperFunction,ViaPad*%
%ADD14C,0.600000*%
%TD*%
%TA.AperFunction,Conductor*%
%ADD15C,0.381000*%
%TD*%
%TA.AperFunction,Conductor*%
%ADD16C,0.200000*%
%TD*%
G04 APERTURE END LIST*
D10*
%TO.P,C2,1*%
%TO.N,+5V*%
X130977667Y-57463111D03*
%TO.P,C2,2*%
%TO.N,GND*%
X129077667Y-57463111D03*
%TD*%
%TO.P,C7,1*%
%TO.N,+5V*%
X95591400Y-57463111D03*
%TO.P,C7,2*%
%TO.N,GND*%
X93691400Y-57463111D03*
%TD*%
%TO.P,C3,1*%
%TO.N,+5V*%
X124734333Y-57463111D03*
%TO.P,C3,2*%
%TO.N,GND*%
X122834333Y-57463111D03*
%TD*%
D11*
%TO.P,H1,1*%
%TO.N,N/C*%
X70840600Y-56946800D03*
%TD*%
D10*
%TO.P,C9,1*%
%TO.N,+5V*%
X83171800Y-57463111D03*
%TO.P,C9,2*%
%TO.N,GND*%
X81271800Y-57463111D03*
%TD*%
%TO.P,C8,1*%
%TO.N,+5V*%
X89381600Y-57463111D03*
%TO.P,C8,2*%
%TO.N,GND*%
X87481600Y-57463111D03*
%TD*%
D12*
%TO.P,D4,1,VDD*%
%TO.N,+5V*%
X115650000Y-61100000D03*
%TO.P,D4,2,DOUT*%
%TO.N,Net-(D4-DOUT)*%
X112350000Y-61100000D03*
%TO.P,D4,3,VSS*%
%TO.N,GND*%
X112350000Y-66000000D03*
%TO.P,D4,4,DIN*%
%TO.N,Net-(D3-DOUT)*%
X115650000Y-66000000D03*
%TD*%
D10*
%TO.P,C1,1*%
%TO.N,+5V*%
X137221000Y-57463111D03*
%TO.P,C1,2*%
%TO.N,GND*%
X135321000Y-57463111D03*
%TD*%
D11*
%TO.P,H2,1*%
%TO.N,N/C*%
X70866000Y-70104000D03*
%TD*%
D10*
%TO.P,C5,1*%
%TO.N,+5V*%
X108011000Y-57463111D03*
%TO.P,C5,2*%
%TO.N,GND*%
X106111000Y-57463111D03*
%TD*%
D11*
%TO.P,H4,1*%
%TO.N,N/C*%
X112268000Y-70129400D03*
%TD*%
D12*
%TO.P,D1,1,VDD*%
%TO.N,+5V*%
X137280942Y-61100000D03*
%TO.P,D1,2,DOUT*%
%TO.N,Net-(D1-DOUT)*%
X133980942Y-61100000D03*
%TO.P,D1,3,VSS*%
%TO.N,GND*%
X133980942Y-66000000D03*
%TO.P,D1,4,DIN*%
%TO.N,DATA*%
X137280942Y-66000000D03*
%TD*%
D11*
%TO.P,H3,1*%
%TO.N,N/C*%
X112268000Y-56946800D03*
%TD*%
D12*
%TO.P,D2,1,VDD*%
%TO.N,+5V*%
X130070628Y-61100000D03*
%TO.P,D2,2,DOUT*%
%TO.N,Net-(D2-DOUT)*%
X126770628Y-61100000D03*
%TO.P,D2,3,VSS*%
%TO.N,GND*%
X126770628Y-66000000D03*
%TO.P,D2,4,DIN*%
%TO.N,Net-(D1-DOUT)*%
X130070628Y-66000000D03*
%TD*%
D13*
%TO.P,R1,1*%
%TO.N,Net-(U1-PA6_A10_D10_MOSI)*%
X134977500Y-69977000D03*
%TO.P,R1,2*%
%TO.N,DATA*%
X136802500Y-69977000D03*
%TD*%
D12*
%TO.P,D3,1,VDD*%
%TO.N,+5V*%
X122860314Y-61100000D03*
%TO.P,D3,2,DOUT*%
%TO.N,Net-(D3-DOUT)*%
X119560314Y-61100000D03*
%TO.P,D3,3,VSS*%
%TO.N,GND*%
X119560314Y-66000000D03*
%TO.P,D3,4,DIN*%
%TO.N,Net-(D2-DOUT)*%
X122860314Y-66000000D03*
%TD*%
%TO.P,D7,1,VDD*%
%TO.N,+5V*%
X94019058Y-61100000D03*
%TO.P,D7,2,DOUT*%
%TO.N,Net-(D7-DOUT)*%
X90719058Y-61100000D03*
%TO.P,D7,3,VSS*%
%TO.N,GND*%
X90719058Y-66000000D03*
%TO.P,D7,4,DIN*%
%TO.N,Net-(D6-DOUT)*%
X94019058Y-66000000D03*
%TD*%
%TO.P,D8,1,VDD*%
%TO.N,+5V*%
X86808744Y-61100000D03*
%TO.P,D8,2,DOUT*%
%TO.N,Net-(D8-DOUT)*%
X83508744Y-61100000D03*
%TO.P,D8,3,VSS*%
%TO.N,GND*%
X83508744Y-66000000D03*
%TO.P,D8,4,DIN*%
%TO.N,Net-(D7-DOUT)*%
X86808744Y-66000000D03*
%TD*%
%TO.P,D5,1,VDD*%
%TO.N,+5V*%
X108439686Y-61100000D03*
%TO.P,D5,2,DOUT*%
%TO.N,Net-(D5-DOUT)*%
X105139686Y-61100000D03*
%TO.P,D5,3,VSS*%
%TO.N,GND*%
X105139686Y-66000000D03*
%TO.P,D5,4,DIN*%
%TO.N,Net-(D4-DOUT)*%
X108439686Y-66000000D03*
%TD*%
%TO.P,D9,1,VDD*%
%TO.N,+5V*%
X79598430Y-61100000D03*
%TO.P,D9,2,DOUT*%
%TO.N,Net-(D10-DIN)*%
X76298430Y-61100000D03*
%TO.P,D9,3,VSS*%
%TO.N,GND*%
X76298430Y-66000000D03*
%TO.P,D9,4,DIN*%
%TO.N,Net-(D8-DOUT)*%
X79598430Y-66000000D03*
%TD*%
%TO.P,D6,1,VDD*%
%TO.N,+5V*%
X101229372Y-61100000D03*
%TO.P,D6,2,DOUT*%
%TO.N,Net-(D6-DOUT)*%
X97929372Y-61100000D03*
%TO.P,D6,3,VSS*%
%TO.N,GND*%
X97929372Y-66000000D03*
%TO.P,D6,4,DIN*%
%TO.N,Net-(D5-DOUT)*%
X101229372Y-66000000D03*
%TD*%
D10*
%TO.P,C6,1*%
%TO.N,+5V*%
X101801200Y-57463111D03*
%TO.P,C6,2*%
%TO.N,GND*%
X99901200Y-57463111D03*
%TD*%
%TO.P,C4,1*%
%TO.N,+5V*%
X118491000Y-57463111D03*
%TO.P,C4,2*%
%TO.N,GND*%
X116591000Y-57463111D03*
%TD*%
D12*
%TO.P,D10,1,VDD*%
%TO.N,+5V*%
X72388112Y-61100000D03*
%TO.P,D10,2,DOUT*%
%TO.N,unconnected-(D10-DOUT-Pad2)*%
X69088112Y-61100000D03*
%TO.P,D10,3,VSS*%
%TO.N,GND*%
X69088112Y-66000000D03*
%TO.P,D10,4,DIN*%
%TO.N,Net-(D10-DIN)*%
X72388112Y-66000000D03*
%TD*%
D10*
%TO.P,C10,1*%
%TO.N,+5V*%
X76962000Y-57463111D03*
%TO.P,C10,2*%
%TO.N,GND*%
X75062000Y-57463111D03*
%TD*%
D14*
%TO.N,+5V*%
X108356400Y-55829200D03*
X136309100Y-55765700D03*
X116052600Y-56083200D03*
%TO.N,GND*%
X77978000Y-63627000D03*
X128524000Y-63627000D03*
X92329000Y-63627000D03*
X114046000Y-63627000D03*
%TO.N,Net-(U1-PA6_A10_D10_MOSI)*%
X130124200Y-68224400D03*
%TD*%
D15*
%TO.N,+5V*%
X130977667Y-60192961D02*
X130070628Y-61100000D01*
X136305304Y-55765700D02*
X135923500Y-56147504D01*
X126031833Y-56165611D02*
X129680167Y-56165611D01*
X106713500Y-56165611D02*
X103098700Y-56165611D01*
X103098700Y-56165611D02*
X101801200Y-57463111D01*
X72324000Y-61035888D02*
X72388112Y-61100000D01*
X100503700Y-56165611D02*
X101801200Y-57463111D01*
X136309100Y-55765700D02*
X135909189Y-56165611D01*
X118491000Y-57463111D02*
X119788500Y-56165611D01*
X137221000Y-56728400D02*
X137221000Y-57463111D01*
X136309100Y-55765700D02*
X136305304Y-55765700D01*
X101801200Y-57463111D02*
X101801200Y-60528172D01*
X137221000Y-56728400D02*
X136658211Y-56165611D01*
X95591400Y-59527658D02*
X94019058Y-61100000D01*
X88084100Y-56165611D02*
X89381600Y-57463111D01*
X89381600Y-57463111D02*
X89381600Y-58527144D01*
X132275167Y-56165611D02*
X130977667Y-57463111D01*
X137221000Y-61040058D02*
X137280942Y-61100000D01*
X108011000Y-57463111D02*
X106713500Y-56165611D01*
X73325111Y-61100000D02*
X72388112Y-61100000D01*
X96888900Y-56165611D02*
X100503700Y-56165611D01*
X118491000Y-57463111D02*
X118491000Y-58259000D01*
X89381600Y-57463111D02*
X90679100Y-56165611D01*
X129680167Y-56165611D02*
X130977667Y-57463111D01*
X116052600Y-56083200D02*
X117449600Y-56083200D01*
X81791889Y-56083200D02*
X83171800Y-57463111D01*
X135909189Y-56165611D02*
X132275167Y-56165611D01*
X123436833Y-56165611D02*
X124734333Y-57463111D01*
X124734333Y-57463111D02*
X124734333Y-59225981D01*
X84469300Y-56165611D02*
X88084100Y-56165611D01*
X95591400Y-57463111D02*
X96888900Y-56165611D01*
X117449600Y-56083200D02*
X118491000Y-57124600D01*
X95591400Y-57463111D02*
X95591400Y-59527658D01*
X90679100Y-56165611D02*
X94293900Y-56165611D01*
X94293900Y-56165611D02*
X95591400Y-57463111D01*
X76962000Y-57463111D02*
X73325111Y-61100000D01*
X78341911Y-56083200D02*
X81791889Y-56083200D01*
X76962000Y-57463111D02*
X78341911Y-56083200D01*
X130977667Y-57463111D02*
X130977667Y-60192961D01*
X89381600Y-58527144D02*
X86808744Y-61100000D01*
X137280942Y-61100000D02*
X137280942Y-57523053D01*
X124734333Y-59225981D02*
X122860314Y-61100000D01*
X101153000Y-61023628D02*
X101229372Y-61100000D01*
X101801200Y-60528172D02*
X101229372Y-61100000D01*
X83171800Y-57463111D02*
X83171800Y-58712600D01*
X83171800Y-58712600D02*
X80784400Y-61100000D01*
X80784400Y-61100000D02*
X79598430Y-61100000D01*
X83171800Y-57463111D02*
X84469300Y-56165611D01*
X136658211Y-56165611D02*
X135909189Y-56165611D01*
X108011000Y-57463111D02*
X108011000Y-60671314D01*
X108011000Y-56174600D02*
X108011000Y-57463111D01*
X79563000Y-61064570D02*
X79598430Y-61100000D01*
X118491000Y-58259000D02*
X115650000Y-61100000D01*
X119788500Y-56165611D02*
X123436833Y-56165611D01*
X86802000Y-61093256D02*
X86808744Y-61100000D01*
X124734333Y-57463111D02*
X126031833Y-56165611D01*
X108356400Y-55829200D02*
X108011000Y-56174600D01*
X108011000Y-60671314D02*
X108439686Y-61100000D01*
X115631000Y-61081000D02*
X115650000Y-61100000D01*
X118491000Y-57124600D02*
X118491000Y-57463111D01*
X137280942Y-57523053D02*
X137221000Y-57463111D01*
D16*
%TO.N,Net-(D2-DOUT)*%
X126770628Y-62089686D02*
X122860314Y-66000000D01*
X126770628Y-61100000D02*
X126770628Y-62089686D01*
%TO.N,Net-(D5-DOUT)*%
X105139686Y-62089686D02*
X101229372Y-66000000D01*
X105139686Y-61100000D02*
X105139686Y-62089686D01*
%TO.N,Net-(D10-DIN)*%
X76298430Y-61100000D02*
X76298430Y-62089682D01*
X76298430Y-62089682D02*
X72388112Y-66000000D01*
%TO.N,Net-(U1-PA6_A10_D10_MOSI)*%
X131006200Y-69970000D02*
X133827500Y-69970000D01*
X133827500Y-69970000D02*
X133834500Y-69977000D01*
X133834500Y-69977000D02*
X134977500Y-69977000D01*
X130124200Y-68224400D02*
X130124200Y-69088000D01*
X130124200Y-69088000D02*
X131006200Y-69970000D01*
%TO.N,DATA*%
X137280942Y-67570058D02*
X136802500Y-68048500D01*
X136802500Y-68048500D02*
X136802500Y-69977000D01*
X137280942Y-66000000D02*
X137280942Y-67570058D01*
%TO.N,Net-(D4-DOUT)*%
X112350000Y-61100000D02*
X112350000Y-62089686D01*
X112350000Y-62089686D02*
X108439686Y-66000000D01*
%TO.N,Net-(D6-DOUT)*%
X97929372Y-62089686D02*
X94019058Y-66000000D01*
X97929372Y-61100000D02*
X97929372Y-62089686D01*
%TO.N,Net-(D8-DOUT)*%
X83508744Y-62089686D02*
X79598430Y-66000000D01*
X83508744Y-61100000D02*
X83508744Y-62089686D01*
%TO.N,Net-(D3-DOUT)*%
X119560314Y-61100000D02*
X119560314Y-62089686D01*
X119560314Y-62089686D02*
X115650000Y-66000000D01*
%TO.N,Net-(D7-DOUT)*%
X90719058Y-61100000D02*
X90719058Y-62089686D01*
X90719058Y-62089686D02*
X86808744Y-66000000D01*
%TO.N,Net-(D1-DOUT)*%
X133980942Y-62089686D02*
X130070628Y-66000000D01*
X133980942Y-61100000D02*
X133980942Y-62089686D01*
%TD*%
%TA.AperFunction,Conductor*%
%TO.N,GND*%
G36*
X134672859Y-54050631D02*
G01*
X135071048Y-54069041D01*
X135082438Y-54070097D01*
X135474392Y-54124772D01*
X135485636Y-54126874D01*
X135870872Y-54217481D01*
X135881862Y-54220608D01*
X136257116Y-54346380D01*
X136267770Y-54350508D01*
X136629803Y-54510361D01*
X136640029Y-54515453D01*
X136907322Y-54664334D01*
X136985763Y-54708026D01*
X136995501Y-54714055D01*
X137034702Y-54740908D01*
X137310772Y-54930020D01*
X137321984Y-54937700D01*
X137331124Y-54944603D01*
X137635583Y-55197422D01*
X137644047Y-55205138D01*
X137923861Y-55484953D01*
X137931578Y-55493417D01*
X138184397Y-55797877D01*
X138191298Y-55807017D01*
X138414944Y-56133498D01*
X138420974Y-56143236D01*
X138613535Y-56488949D01*
X138618640Y-56499202D01*
X138778489Y-56861226D01*
X138782626Y-56871905D01*
X138797856Y-56917343D01*
X138908388Y-57247124D01*
X138911522Y-57258140D01*
X139002123Y-57643356D01*
X139004228Y-57654615D01*
X139058901Y-58046555D01*
X139059958Y-58057959D01*
X139078367Y-58456133D01*
X139078499Y-58461848D01*
X139078501Y-58482168D01*
X139078501Y-58532457D01*
X139078504Y-58532516D01*
X139079298Y-68638147D01*
X139079166Y-68643883D01*
X139060759Y-69042039D01*
X139059702Y-69053444D01*
X139005029Y-69445384D01*
X139002924Y-69456643D01*
X138912323Y-69841859D01*
X138909189Y-69852875D01*
X138783425Y-70228103D01*
X138779287Y-70238783D01*
X138619446Y-70600789D01*
X138614341Y-70611042D01*
X138421774Y-70956763D01*
X138415745Y-70966501D01*
X138192100Y-71292984D01*
X138185197Y-71302124D01*
X137932378Y-71606583D01*
X137924662Y-71615047D01*
X137644841Y-71894867D01*
X137636377Y-71902583D01*
X137331931Y-72155393D01*
X137322791Y-72162296D01*
X136996302Y-72385945D01*
X136986564Y-72391974D01*
X136640843Y-72584540D01*
X136630590Y-72589645D01*
X136268583Y-72749487D01*
X136257903Y-72753625D01*
X135882676Y-72879388D01*
X135871660Y-72882522D01*
X135486444Y-72973124D01*
X135475185Y-72975229D01*
X135083245Y-73029902D01*
X135071841Y-73030959D01*
X134673677Y-73049368D01*
X134667950Y-73049500D01*
X112678682Y-73049500D01*
X112611643Y-73029815D01*
X112565888Y-72977011D01*
X112555944Y-72907853D01*
X112584969Y-72844297D01*
X112643747Y-72806523D01*
X112664799Y-72802280D01*
X112721048Y-72795942D01*
X112721051Y-72795941D01*
X112721063Y-72795940D01*
X113016772Y-72728446D01*
X113303065Y-72628268D01*
X113576341Y-72496665D01*
X113833164Y-72335292D01*
X114070304Y-72146179D01*
X114284779Y-71931704D01*
X114473892Y-71694564D01*
X114635265Y-71437741D01*
X114766868Y-71164465D01*
X114867046Y-70878172D01*
X114934540Y-70582463D01*
X114934841Y-70579797D01*
X114962491Y-70334385D01*
X114968500Y-70281057D01*
X114968500Y-69977743D01*
X114934540Y-69676337D01*
X114867046Y-69380628D01*
X114766868Y-69094335D01*
X114635265Y-68821059D01*
X114473892Y-68564236D01*
X114284779Y-68327096D01*
X114070304Y-68112621D01*
X114038453Y-68087221D01*
X113917683Y-67990910D01*
X113833164Y-67923508D01*
X113576341Y-67762135D01*
X113576338Y-67762133D01*
X113303068Y-67630533D01*
X113016783Y-67530357D01*
X113016771Y-67530353D01*
X112813041Y-67483853D01*
X112752063Y-67449744D01*
X112719205Y-67388083D01*
X112724900Y-67318445D01*
X112767340Y-67262942D01*
X112824450Y-67240023D01*
X112864019Y-67234814D01*
X112864024Y-67234812D01*
X113007541Y-67175366D01*
X113007542Y-67175366D01*
X113130792Y-67080792D01*
X113225366Y-66957542D01*
X113225366Y-66957541D01*
X113284812Y-66814024D01*
X113284814Y-66814019D01*
X113300000Y-66698670D01*
X113300000Y-66250000D01*
X111400000Y-66250000D01*
X111400000Y-66698670D01*
X111415185Y-66814019D01*
X111415187Y-66814024D01*
X111474633Y-66957541D01*
X111474633Y-66957542D01*
X111569207Y-67080792D01*
X111692458Y-67175366D01*
X111824031Y-67229865D01*
X111878435Y-67273706D01*
X111900500Y-67340000D01*
X111883221Y-67407699D01*
X111832084Y-67455310D01*
X111804172Y-67465317D01*
X111519228Y-67530353D01*
X111519216Y-67530357D01*
X111232931Y-67630533D01*
X110959661Y-67762133D01*
X110702837Y-67923507D01*
X110465696Y-68112620D01*
X110251220Y-68327096D01*
X110062107Y-68564237D01*
X109900733Y-68821061D01*
X109769133Y-69094331D01*
X109668957Y-69380616D01*
X109668953Y-69380628D01*
X109601460Y-69676337D01*
X109601457Y-69676351D01*
X109567500Y-69977736D01*
X109567500Y-70281063D01*
X109601457Y-70582448D01*
X109601459Y-70582460D01*
X109601460Y-70582463D01*
X109605463Y-70600002D01*
X109668953Y-70878171D01*
X109668957Y-70878183D01*
X109769133Y-71164468D01*
X109900733Y-71437738D01*
X109900735Y-71437741D01*
X110062108Y-71694564D01*
X110251221Y-71931704D01*
X110465696Y-72146179D01*
X110702836Y-72335292D01*
X110959659Y-72496665D01*
X111232935Y-72628268D01*
X111446627Y-72703042D01*
X111519216Y-72728442D01*
X111519228Y-72728446D01*
X111814937Y-72795940D01*
X111814946Y-72795941D01*
X111814951Y-72795942D01*
X111871201Y-72802280D01*
X111935615Y-72829346D01*
X111975171Y-72886941D01*
X111977308Y-72956778D01*
X111941350Y-73016685D01*
X111878712Y-73047640D01*
X111857318Y-73049500D01*
X71961873Y-73049500D01*
X71956146Y-73049368D01*
X71557959Y-73030958D01*
X71546554Y-73029901D01*
X71369265Y-73005170D01*
X71305588Y-72976412D01*
X71267568Y-72917793D01*
X71267274Y-72847924D01*
X71304802Y-72788988D01*
X71358801Y-72761469D01*
X71614772Y-72703046D01*
X71901065Y-72602868D01*
X72174341Y-72471265D01*
X72431164Y-72309892D01*
X72668304Y-72120779D01*
X72882779Y-71906304D01*
X73071892Y-71669164D01*
X73233265Y-71412341D01*
X73364868Y-71139065D01*
X73465046Y-70852772D01*
X73532540Y-70557063D01*
X73535638Y-70529573D01*
X73551893Y-70385297D01*
X73566500Y-70255657D01*
X73566500Y-69952343D01*
X73543934Y-69752061D01*
X73532542Y-69650951D01*
X73532541Y-69650946D01*
X73532540Y-69650937D01*
X73477588Y-69410178D01*
X73465046Y-69355227D01*
X73465042Y-69355216D01*
X73440105Y-69283951D01*
X73364868Y-69068935D01*
X73233265Y-68795659D01*
X73071892Y-68538836D01*
X72882779Y-68301696D01*
X72668304Y-68087221D01*
X72431164Y-67898108D01*
X72174341Y-67736735D01*
X72174338Y-67736733D01*
X71901068Y-67605133D01*
X71614783Y-67504957D01*
X71614771Y-67504953D01*
X71348356Y-67444146D01*
X71319063Y-67437460D01*
X71319060Y-67437459D01*
X71319048Y-67437457D01*
X71017663Y-67403500D01*
X71017657Y-67403500D01*
X70714343Y-67403500D01*
X70714336Y-67403500D01*
X70412951Y-67437457D01*
X70412937Y-67437460D01*
X70117228Y-67504953D01*
X70117216Y-67504957D01*
X69830931Y-67605133D01*
X69557661Y-67736733D01*
X69300837Y-67898107D01*
X69063696Y-68087220D01*
X68849220Y-68301696D01*
X68660107Y-68538837D01*
X68498733Y-68795661D01*
X68367133Y-69068931D01*
X68266957Y-69355216D01*
X68266954Y-69355227D01*
X68199460Y-69650937D01*
X68199457Y-69650951D01*
X68165500Y-69952336D01*
X68165500Y-70255663D01*
X68180106Y-70385297D01*
X68177219Y-70401778D01*
X68179392Y-70418372D01*
X68171315Y-70435483D01*
X68168051Y-70454119D01*
X68156710Y-70466424D01*
X68149568Y-70481557D01*
X68133524Y-70491584D01*
X68120702Y-70505498D01*
X68104509Y-70509718D01*
X68090319Y-70518588D01*
X68071399Y-70518349D01*
X68053092Y-70523122D01*
X68037188Y-70517918D01*
X68020455Y-70517708D01*
X68004666Y-70507277D01*
X67986686Y-70501395D01*
X67975688Y-70488135D01*
X67962157Y-70479196D01*
X67943452Y-70449266D01*
X67850510Y-70238773D01*
X67846376Y-70228103D01*
X67720607Y-69852862D01*
X67717480Y-69841872D01*
X67626874Y-69456636D01*
X67624771Y-69445384D01*
X67615736Y-69380616D01*
X67570097Y-69053437D01*
X67569041Y-69042040D01*
X67568750Y-69035751D01*
X67550632Y-68643854D01*
X67550500Y-68638127D01*
X67550500Y-66698670D01*
X68138112Y-66698670D01*
X68153297Y-66814019D01*
X68153299Y-66814024D01*
X68212745Y-66957541D01*
X68212745Y-66957542D01*
X68307319Y-67080792D01*
X68430570Y-67175366D01*
X68574087Y-67234812D01*
X68574092Y-67234814D01*
X68689441Y-67250000D01*
X68838112Y-67250000D01*
X69338112Y-67250000D01*
X69486783Y-67250000D01*
X69602131Y-67234814D01*
X69602136Y-67234812D01*
X69745653Y-67175366D01*
X69745654Y-67175366D01*
X69868904Y-67080792D01*
X69963478Y-66957542D01*
X69963478Y-66957541D01*
X70022924Y-66814024D01*
X70022926Y-66814019D01*
X70038112Y-66698670D01*
X70038112Y-66250000D01*
X69338112Y-66250000D01*
X69338112Y-67250000D01*
X68838112Y-67250000D01*
X68838112Y-66250000D01*
X68138112Y-66250000D01*
X68138112Y-66698670D01*
X67550500Y-66698670D01*
X67550500Y-65301329D01*
X68138112Y-65301329D01*
X68138112Y-65750000D01*
X68838112Y-65750000D01*
X69338112Y-65750000D01*
X70038112Y-65750000D01*
X70038112Y-65301329D01*
X70022926Y-65185980D01*
X70022924Y-65185975D01*
X69963478Y-65042458D01*
X69963478Y-65042457D01*
X69868904Y-64919207D01*
X69745653Y-64824633D01*
X69602136Y-64765187D01*
X69602131Y-64765185D01*
X69486783Y-64750000D01*
X69338112Y-64750000D01*
X69338112Y-65750000D01*
X68838112Y-65750000D01*
X68838112Y-64750000D01*
X68689441Y-64750000D01*
X68574092Y-64765185D01*
X68574087Y-64765187D01*
X68430570Y-64824633D01*
X68430569Y-64824633D01*
X68307319Y-64919207D01*
X68212745Y-65042457D01*
X68212745Y-65042458D01*
X68153299Y-65185975D01*
X68153297Y-65185980D01*
X68138112Y-65301329D01*
X67550500Y-65301329D01*
X67550500Y-60401298D01*
X68137612Y-60401298D01*
X68137612Y-61798703D01*
X68152808Y-61914142D01*
X68152811Y-61914150D01*
X68152811Y-61914151D01*
X68212312Y-62057798D01*
X68306963Y-62181149D01*
X68430314Y-62275800D01*
X68573961Y-62335301D01*
X68689411Y-62350500D01*
X69486812Y-62350499D01*
X69486815Y-62350499D01*
X69602254Y-62335303D01*
X69602258Y-62335301D01*
X69602263Y-62335301D01*
X69745910Y-62275800D01*
X69869261Y-62181149D01*
X69963912Y-62057798D01*
X70023413Y-61914151D01*
X70038612Y-61798701D01*
X70038611Y-60401300D01*
X70038611Y-60401298D01*
X71437612Y-60401298D01*
X71437612Y-61798703D01*
X71452808Y-61914142D01*
X71452811Y-61914150D01*
X71452811Y-61914151D01*
X71512312Y-62057798D01*
X71606963Y-62181149D01*
X71730314Y-62275800D01*
X71873961Y-62335301D01*
X71989411Y-62350500D01*
X72786812Y-62350499D01*
X72786815Y-62350499D01*
X72902254Y-62335303D01*
X72902258Y-62335301D01*
X72902263Y-62335301D01*
X73045910Y-62275800D01*
X73169261Y-62181149D01*
X73263912Y-62057798D01*
X73323413Y-61914151D01*
X73326588Y-61890031D01*
X73354851Y-61826140D01*
X73413175Y-61787667D01*
X73425335Y-61784602D01*
X73460263Y-61777653D01*
X73526668Y-61764445D01*
X73652422Y-61712356D01*
X73765598Y-61636735D01*
X75142225Y-60260106D01*
X75203546Y-60226623D01*
X75273237Y-60231607D01*
X75329171Y-60273478D01*
X75353588Y-60338943D01*
X75352843Y-60363972D01*
X75347930Y-60401295D01*
X75347930Y-61798703D01*
X75363126Y-61914142D01*
X75363130Y-61914154D01*
X75408041Y-62022580D01*
X75415510Y-62092049D01*
X75384234Y-62154528D01*
X75381161Y-62157713D01*
X72825694Y-64713181D01*
X72764371Y-64746666D01*
X72738013Y-64749500D01*
X71989408Y-64749500D01*
X71873969Y-64764696D01*
X71873960Y-64764699D01*
X71730317Y-64824198D01*
X71606963Y-64918851D01*
X71512310Y-65042205D01*
X71452811Y-65185848D01*
X71452810Y-65185850D01*
X71437612Y-65301298D01*
X71437612Y-66698703D01*
X71452808Y-66814142D01*
X71452811Y-66814151D01*
X71512205Y-66957541D01*
X71512312Y-66957798D01*
X71606963Y-67081149D01*
X71730314Y-67175800D01*
X71873961Y-67235301D01*
X71989411Y-67250500D01*
X72786812Y-67250499D01*
X72786815Y-67250499D01*
X72902254Y-67235303D01*
X72902258Y-67235301D01*
X72902263Y-67235301D01*
X73045910Y-67175800D01*
X73169261Y-67081149D01*
X73263912Y-66957798D01*
X73323413Y-66814151D01*
X73338612Y-66698701D01*
X73338612Y-66698670D01*
X75348430Y-66698670D01*
X75363615Y-66814019D01*
X75363617Y-66814024D01*
X75423063Y-66957541D01*
X75423063Y-66957542D01*
X75517637Y-67080792D01*
X75640888Y-67175366D01*
X75784405Y-67234812D01*
X75784410Y-67234814D01*
X75899759Y-67250000D01*
X76048430Y-67250000D01*
X76548430Y-67250000D01*
X76697101Y-67250000D01*
X76812449Y-67234814D01*
X76812454Y-67234812D01*
X76955971Y-67175366D01*
X76955972Y-67175366D01*
X77079222Y-67080792D01*
X77173796Y-66957542D01*
X77173796Y-66957541D01*
X77233242Y-66814024D01*
X77233244Y-66814019D01*
X77248430Y-66698670D01*
X77248430Y-66250000D01*
X76548430Y-66250000D01*
X76548430Y-67250000D01*
X76048430Y-67250000D01*
X76048430Y-66250000D01*
X75348430Y-66250000D01*
X75348430Y-66698670D01*
X73338612Y-66698670D01*
X73338611Y-65950095D01*
X73358296Y-65883057D01*
X73374925Y-65862420D01*
X73936016Y-65301329D01*
X75348430Y-65301329D01*
X75348430Y-65750000D01*
X76048430Y-65750000D01*
X76548430Y-65750000D01*
X77248430Y-65750000D01*
X77248430Y-65301329D01*
X77233244Y-65185980D01*
X77233242Y-65185975D01*
X77173796Y-65042458D01*
X77173796Y-65042457D01*
X77079222Y-64919207D01*
X76955971Y-64824633D01*
X76812454Y-64765187D01*
X76812449Y-64765185D01*
X76697101Y-64750000D01*
X76548430Y-64750000D01*
X76548430Y-65750000D01*
X76048430Y-65750000D01*
X76048430Y-64750000D01*
X75899759Y-64750000D01*
X75784410Y-64765185D01*
X75784405Y-64765187D01*
X75640888Y-64824633D01*
X75640887Y-64824633D01*
X75517637Y-64919207D01*
X75423063Y-65042457D01*
X75423063Y-65042458D01*
X75363617Y-65185975D01*
X75363615Y-65185980D01*
X75348430Y-65301329D01*
X73936016Y-65301329D01*
X76778950Y-62458398D01*
X76840742Y-62351369D01*
X76891308Y-62303155D01*
X76900655Y-62298818D01*
X76956228Y-62275800D01*
X77079579Y-62181149D01*
X77174230Y-62057798D01*
X77233731Y-61914151D01*
X77248930Y-61798701D01*
X77248929Y-60401300D01*
X77248929Y-60401298D01*
X77248929Y-60401296D01*
X77233733Y-60285857D01*
X77233731Y-60285850D01*
X77233731Y-60285849D01*
X77174230Y-60142202D01*
X77079579Y-60018851D01*
X76956228Y-59924200D01*
X76956224Y-59924198D01*
X76812581Y-59864699D01*
X76812579Y-59864698D01*
X76697131Y-59849500D01*
X75899733Y-59849500D01*
X75862400Y-59854415D01*
X75793365Y-59843647D01*
X75741110Y-59797266D01*
X75722227Y-59729996D01*
X75742709Y-59663196D01*
X75758534Y-59643797D01*
X76677402Y-58724928D01*
X76738725Y-58691444D01*
X76765083Y-58688610D01*
X77262002Y-58688610D01*
X77262008Y-58688610D01*
X77364797Y-58678110D01*
X77531334Y-58622925D01*
X77680656Y-58530823D01*
X77804712Y-58406767D01*
X77896814Y-58257445D01*
X77951999Y-58090908D01*
X77962500Y-57988120D01*
X77962500Y-57988097D01*
X80271801Y-57988097D01*
X80282294Y-58090808D01*
X80337441Y-58257230D01*
X80337443Y-58257235D01*
X80429484Y-58406456D01*
X80553454Y-58530426D01*
X80702675Y-58622467D01*
X80702680Y-58622469D01*
X80869102Y-58677616D01*
X80869109Y-58677617D01*
X80971819Y-58688110D01*
X81021799Y-58688109D01*
X81021800Y-58688109D01*
X81021800Y-57713111D01*
X80271801Y-57713111D01*
X80271801Y-57988097D01*
X77962500Y-57988097D01*
X77962499Y-57491193D01*
X77982184Y-57424155D01*
X77998813Y-57403518D01*
X78591813Y-56810519D01*
X78653136Y-56777034D01*
X78679494Y-56774200D01*
X80151234Y-56774200D01*
X80218273Y-56793885D01*
X80264028Y-56846689D01*
X80274592Y-56910803D01*
X80271800Y-56938124D01*
X80271800Y-57213111D01*
X81147800Y-57213111D01*
X81214839Y-57232796D01*
X81260594Y-57285600D01*
X81271800Y-57337111D01*
X81271800Y-57463111D01*
X81397800Y-57463111D01*
X81464839Y-57482796D01*
X81510594Y-57535600D01*
X81521800Y-57587111D01*
X81521800Y-58688110D01*
X81571772Y-58688110D01*
X81571786Y-58688109D01*
X81674497Y-58677616D01*
X81840919Y-58622469D01*
X81840924Y-58622467D01*
X81990145Y-58530426D01*
X82114118Y-58406453D01*
X82115965Y-58403459D01*
X82117769Y-58401835D01*
X82118598Y-58400788D01*
X82118776Y-58400929D01*
X82139589Y-58382207D01*
X82162059Y-58359730D01*
X82165381Y-58359006D01*
X82167910Y-58356732D01*
X82199272Y-58351627D01*
X82230329Y-58344865D01*
X82233516Y-58346053D01*
X82236873Y-58345507D01*
X82266021Y-58358170D01*
X82295798Y-58369270D01*
X82298581Y-58372315D01*
X82300956Y-58373347D01*
X82320759Y-58394222D01*
X82324111Y-58398698D01*
X82329088Y-58406767D01*
X82333331Y-58411010D01*
X82338640Y-58418099D01*
X82347883Y-58442867D01*
X82360553Y-58466070D01*
X82359908Y-58475088D01*
X82363069Y-58483559D01*
X82357455Y-58509389D01*
X82355569Y-58535762D01*
X82349758Y-58544803D01*
X82348230Y-58551835D01*
X82339854Y-58560213D01*
X82327068Y-58580109D01*
X80690611Y-60216565D01*
X80629288Y-60250050D01*
X80559596Y-60245066D01*
X80503663Y-60203194D01*
X80488371Y-60176341D01*
X80474230Y-60142202D01*
X80379579Y-60018851D01*
X80256228Y-59924200D01*
X80256224Y-59924198D01*
X80112581Y-59864699D01*
X80112579Y-59864698D01*
X79997131Y-59849500D01*
X79199726Y-59849500D01*
X79084287Y-59864696D01*
X79084278Y-59864699D01*
X78940635Y-59924198D01*
X78940632Y-59924199D01*
X78940632Y-59924200D01*
X78817281Y-60018851D01*
X78735904Y-60124904D01*
X78722628Y-60142205D01*
X78663129Y-60285848D01*
X78663128Y-60285850D01*
X78647930Y-60401298D01*
X78647930Y-61798703D01*
X78663126Y-61914142D01*
X78663129Y-61914150D01*
X78663129Y-61914151D01*
X78722630Y-62057798D01*
X78817281Y-62181149D01*
X78940632Y-62275800D01*
X79084279Y-62335301D01*
X79199729Y-62350500D01*
X79997130Y-62350499D01*
X79997133Y-62350499D01*
X80112572Y-62335303D01*
X80112576Y-62335301D01*
X80112581Y-62335301D01*
X80256228Y-62275800D01*
X80379579Y-62181149D01*
X80474230Y-62057798D01*
X80533731Y-61914151D01*
X80535750Y-61898813D01*
X80564017Y-61834918D01*
X80622341Y-61796447D01*
X80658689Y-61791000D01*
X80852460Y-61791000D01*
X80942270Y-61773134D01*
X80985957Y-61764445D01*
X81111711Y-61712356D01*
X81224887Y-61636735D01*
X82346563Y-60515057D01*
X82407886Y-60481573D01*
X82477577Y-60486557D01*
X82533511Y-60528428D01*
X82557928Y-60593893D01*
X82558244Y-60602739D01*
X82558244Y-61798703D01*
X82573440Y-61914142D01*
X82573443Y-61914151D01*
X82618357Y-62022582D01*
X82625826Y-62092052D01*
X82594551Y-62154531D01*
X82591477Y-62157716D01*
X80036012Y-64713181D01*
X79974689Y-64746666D01*
X79948331Y-64749500D01*
X79199726Y-64749500D01*
X79084287Y-64764696D01*
X79084278Y-64764699D01*
X78940635Y-64824198D01*
X78817281Y-64918851D01*
X78722628Y-65042205D01*
X78663129Y-65185848D01*
X78663128Y-65185850D01*
X78647930Y-65301298D01*
X78647930Y-66698703D01*
X78663126Y-66814142D01*
X78663129Y-66814151D01*
X78722523Y-66957541D01*
X78722630Y-66957798D01*
X78817281Y-67081149D01*
X78940632Y-67175800D01*
X79084279Y-67235301D01*
X79199729Y-67250500D01*
X79997130Y-67250499D01*
X79997133Y-67250499D01*
X80112572Y-67235303D01*
X80112576Y-67235301D01*
X80112581Y-67235301D01*
X80256228Y-67175800D01*
X80379579Y-67081149D01*
X80474230Y-66957798D01*
X80533731Y-66814151D01*
X80548930Y-66698701D01*
X80548930Y-66698670D01*
X82558744Y-66698670D01*
X82573929Y-66814019D01*
X82573931Y-66814024D01*
X82633377Y-66957541D01*
X82633377Y-66957542D01*
X82727951Y-67080792D01*
X82851202Y-67175366D01*
X82994719Y-67234812D01*
X82994724Y-67234814D01*
X83110073Y-67250000D01*
X83258744Y-67250000D01*
X83758744Y-67250000D01*
X83907415Y-67250000D01*
X84022763Y-67234814D01*
X84022768Y-67234812D01*
X84166285Y-67175366D01*
X84166286Y-67175366D01*
X84289536Y-67080792D01*
X84384110Y-66957542D01*
X84384110Y-66957541D01*
X84443556Y-66814024D01*
X84443558Y-66814019D01*
X84458744Y-66698670D01*
X84458744Y-66250000D01*
X83758744Y-66250000D01*
X83758744Y-67250000D01*
X83258744Y-67250000D01*
X83258744Y-66250000D01*
X82558744Y-66250000D01*
X82558744Y-66698670D01*
X80548930Y-66698670D01*
X80548929Y-65950095D01*
X80568614Y-65883057D01*
X80585243Y-65862420D01*
X81146334Y-65301329D01*
X82558744Y-65301329D01*
X82558744Y-65750000D01*
X83258744Y-65750000D01*
X83758744Y-65750000D01*
X84458744Y-65750000D01*
X84458744Y-65301329D01*
X84458740Y-65301298D01*
X85858244Y-65301298D01*
X85858244Y-66698703D01*
X85873440Y-66814142D01*
X85873443Y-66814151D01*
X85932837Y-66957541D01*
X85932944Y-66957798D01*
X86027595Y-67081149D01*
X86150946Y-67175800D01*
X86294593Y-67235301D01*
X86410043Y-67250500D01*
X87207444Y-67250499D01*
X87207447Y-67250499D01*
X87322886Y-67235303D01*
X87322890Y-67235301D01*
X87322895Y-67235301D01*
X87466542Y-67175800D01*
X87589893Y-67081149D01*
X87684544Y-66957798D01*
X87744045Y-66814151D01*
X87759244Y-66698701D01*
X87759244Y-66698670D01*
X89769058Y-66698670D01*
X89784243Y-66814019D01*
X89784245Y-66814024D01*
X89843691Y-66957541D01*
X89843691Y-66957542D01*
X89938265Y-67080792D01*
X90061516Y-67175366D01*
X90205033Y-67234812D01*
X90205038Y-67234814D01*
X90320387Y-67250000D01*
X90469058Y-67250000D01*
X90969058Y-67250000D01*
X91117729Y-67250000D01*
X91233077Y-67234814D01*
X91233082Y-67234812D01*
X91376599Y-67175366D01*
X91376600Y-67175366D01*
X91499850Y-67080792D01*
X91594424Y-66957542D01*
X91594424Y-66957541D01*
X91653870Y-66814024D01*
X91653872Y-66814019D01*
X91669058Y-66698670D01*
X91669058Y-66250000D01*
X90969058Y-66250000D01*
X90969058Y-67250000D01*
X90469058Y-67250000D01*
X90469058Y-66250000D01*
X89769058Y-66250000D01*
X89769058Y-66698670D01*
X87759244Y-66698670D01*
X87759243Y-65950095D01*
X87778928Y-65883057D01*
X87795557Y-65862420D01*
X88356648Y-65301329D01*
X89769058Y-65301329D01*
X89769058Y-65750000D01*
X90469058Y-65750000D01*
X90969058Y-65750000D01*
X91669058Y-65750000D01*
X91669058Y-65301329D01*
X91669054Y-65301298D01*
X93068558Y-65301298D01*
X93068558Y-66698703D01*
X93083754Y-66814142D01*
X93083757Y-66814151D01*
X93143151Y-66957541D01*
X93143258Y-66957798D01*
X93237909Y-67081149D01*
X93361260Y-67175800D01*
X93504907Y-67235301D01*
X93620357Y-67250500D01*
X94417758Y-67250499D01*
X94417761Y-67250499D01*
X94533200Y-67235303D01*
X94533204Y-67235301D01*
X94533209Y-67235301D01*
X94676856Y-67175800D01*
X94800207Y-67081149D01*
X94894858Y-66957798D01*
X94954359Y-66814151D01*
X94969558Y-66698701D01*
X94969558Y-66698670D01*
X96979372Y-66698670D01*
X96994557Y-66814019D01*
X96994559Y-66814024D01*
X97054005Y-66957541D01*
X97054005Y-66957542D01*
X97148579Y-67080792D01*
X97271830Y-67175366D01*
X97415347Y-67234812D01*
X97415352Y-67234814D01*
X97530701Y-67250000D01*
X97679372Y-67250000D01*
X98179372Y-67250000D01*
X98328043Y-67250000D01*
X98443391Y-67234814D01*
X98443396Y-67234812D01*
X98586913Y-67175366D01*
X98586914Y-67175366D01*
X98710164Y-67080792D01*
X98804738Y-66957542D01*
X98804738Y-66957541D01*
X98864184Y-66814024D01*
X98864186Y-66814019D01*
X98879372Y-66698670D01*
X98879372Y-66250000D01*
X98179372Y-66250000D01*
X98179372Y-67250000D01*
X97679372Y-67250000D01*
X97679372Y-66250000D01*
X96979372Y-66250000D01*
X96979372Y-66698670D01*
X94969558Y-66698670D01*
X94969557Y-65950095D01*
X94989242Y-65883057D01*
X95005871Y-65862420D01*
X95566962Y-65301329D01*
X96979372Y-65301329D01*
X96979372Y-65750000D01*
X97679372Y-65750000D01*
X98179372Y-65750000D01*
X98879372Y-65750000D01*
X98879372Y-65301329D01*
X98879368Y-65301298D01*
X100278872Y-65301298D01*
X100278872Y-66698703D01*
X100294068Y-66814142D01*
X100294071Y-66814151D01*
X100353465Y-66957541D01*
X100353572Y-66957798D01*
X100448223Y-67081149D01*
X100571574Y-67175800D01*
X100715221Y-67235301D01*
X100830671Y-67250500D01*
X101628072Y-67250499D01*
X101628075Y-67250499D01*
X101743514Y-67235303D01*
X101743518Y-67235301D01*
X101743523Y-67235301D01*
X101887170Y-67175800D01*
X102010521Y-67081149D01*
X102105172Y-66957798D01*
X102164673Y-66814151D01*
X102179872Y-66698701D01*
X102179872Y-66698670D01*
X104189686Y-66698670D01*
X104204871Y-66814019D01*
X104204873Y-66814024D01*
X104264319Y-66957541D01*
X104264319Y-66957542D01*
X104358893Y-67080792D01*
X104482144Y-67175366D01*
X104625661Y-67234812D01*
X104625666Y-67234814D01*
X104741015Y-67250000D01*
X104889686Y-67250000D01*
X105389686Y-67250000D01*
X105538357Y-67250000D01*
X105653705Y-67234814D01*
X105653710Y-67234812D01*
X105797227Y-67175366D01*
X105797228Y-67175366D01*
X105920478Y-67080792D01*
X106015052Y-66957542D01*
X106015052Y-66957541D01*
X106074498Y-66814024D01*
X106074500Y-66814019D01*
X106089686Y-66698670D01*
X106089686Y-66250000D01*
X105389686Y-66250000D01*
X105389686Y-67250000D01*
X104889686Y-67250000D01*
X104889686Y-66250000D01*
X104189686Y-66250000D01*
X104189686Y-66698670D01*
X102179872Y-66698670D01*
X102179871Y-65950095D01*
X102199556Y-65883057D01*
X102216185Y-65862420D01*
X102777276Y-65301329D01*
X104189686Y-65301329D01*
X104189686Y-65750000D01*
X104889686Y-65750000D01*
X105389686Y-65750000D01*
X106089686Y-65750000D01*
X106089686Y-65301329D01*
X106074500Y-65185980D01*
X106074498Y-65185975D01*
X106015052Y-65042458D01*
X106015052Y-65042457D01*
X105920478Y-64919207D01*
X105797227Y-64824633D01*
X105653710Y-64765187D01*
X105653705Y-64765185D01*
X105538357Y-64750000D01*
X105389686Y-64750000D01*
X105389686Y-65750000D01*
X104889686Y-65750000D01*
X104889686Y-64750000D01*
X104741015Y-64750000D01*
X104625666Y-64765185D01*
X104625661Y-64765187D01*
X104482144Y-64824633D01*
X104482143Y-64824633D01*
X104358893Y-64919207D01*
X104264319Y-65042457D01*
X104264319Y-65042458D01*
X104204873Y-65185975D01*
X104204871Y-65185980D01*
X104189686Y-65301329D01*
X102777276Y-65301329D01*
X105498192Y-62580414D01*
X105498197Y-62580410D01*
X105508400Y-62570206D01*
X105508402Y-62570206D01*
X105620206Y-62458402D01*
X105682002Y-62351366D01*
X105732566Y-62303154D01*
X105741914Y-62298817D01*
X105797484Y-62275800D01*
X105920835Y-62181149D01*
X106015486Y-62057798D01*
X106074987Y-61914151D01*
X106090186Y-61798701D01*
X106090185Y-60401300D01*
X106090185Y-60401298D01*
X106090185Y-60401296D01*
X106074989Y-60285857D01*
X106074987Y-60285850D01*
X106074987Y-60285849D01*
X106015486Y-60142202D01*
X105920835Y-60018851D01*
X105797484Y-59924200D01*
X105797480Y-59924198D01*
X105653837Y-59864699D01*
X105653835Y-59864698D01*
X105538387Y-59849500D01*
X104740982Y-59849500D01*
X104625543Y-59864696D01*
X104625534Y-59864699D01*
X104481891Y-59924198D01*
X104481888Y-59924199D01*
X104481888Y-59924200D01*
X104358537Y-60018851D01*
X104277160Y-60124904D01*
X104263884Y-60142205D01*
X104204385Y-60285848D01*
X104204384Y-60285850D01*
X104189186Y-60401298D01*
X104189186Y-61798703D01*
X104204382Y-61914142D01*
X104204385Y-61914151D01*
X104249299Y-62022582D01*
X104256768Y-62092052D01*
X104225493Y-62154531D01*
X104222419Y-62157716D01*
X101666954Y-64713181D01*
X101605631Y-64746666D01*
X101579273Y-64749500D01*
X100830668Y-64749500D01*
X100715229Y-64764696D01*
X100715220Y-64764699D01*
X100571577Y-64824198D01*
X100448223Y-64918851D01*
X100353570Y-65042205D01*
X100294071Y-65185848D01*
X100294070Y-65185850D01*
X100278872Y-65301298D01*
X98879368Y-65301298D01*
X98864186Y-65185980D01*
X98864184Y-65185975D01*
X98804738Y-65042458D01*
X98804738Y-65042457D01*
X98710164Y-64919207D01*
X98586913Y-64824633D01*
X98443396Y-64765187D01*
X98443391Y-64765185D01*
X98328043Y-64750000D01*
X98179372Y-64750000D01*
X98179372Y-65750000D01*
X97679372Y-65750000D01*
X97679372Y-64750000D01*
X97530701Y-64750000D01*
X97415352Y-64765185D01*
X97415347Y-64765187D01*
X97271830Y-64824633D01*
X97271829Y-64824633D01*
X97148579Y-64919207D01*
X97054005Y-65042457D01*
X97054005Y-65042458D01*
X96994559Y-65185975D01*
X96994557Y-65185980D01*
X96979372Y-65301329D01*
X95566962Y-65301329D01*
X98287878Y-62580414D01*
X98287883Y-62580410D01*
X98298086Y-62570206D01*
X98298088Y-62570206D01*
X98409892Y-62458402D01*
X98471688Y-62351366D01*
X98522252Y-62303154D01*
X98531600Y-62298817D01*
X98587170Y-62275800D01*
X98710521Y-62181149D01*
X98805172Y-62057798D01*
X98864673Y-61914151D01*
X98879872Y-61798701D01*
X98879871Y-60401300D01*
X98879871Y-60401298D01*
X98879871Y-60401296D01*
X98864675Y-60285857D01*
X98864673Y-60285850D01*
X98864673Y-60285849D01*
X98805172Y-60142202D01*
X98710521Y-60018851D01*
X98587170Y-59924200D01*
X98587166Y-59924198D01*
X98443523Y-59864699D01*
X98443521Y-59864698D01*
X98328073Y-59849500D01*
X97530668Y-59849500D01*
X97415229Y-59864696D01*
X97415220Y-59864699D01*
X97271577Y-59924198D01*
X97271574Y-59924199D01*
X97271574Y-59924200D01*
X97148223Y-60018851D01*
X97066846Y-60124904D01*
X97053570Y-60142205D01*
X96994071Y-60285848D01*
X96994070Y-60285850D01*
X96978872Y-60401298D01*
X96978872Y-61798703D01*
X96994068Y-61914142D01*
X96994071Y-61914151D01*
X97038985Y-62022582D01*
X97046454Y-62092052D01*
X97015179Y-62154531D01*
X97012105Y-62157716D01*
X94456640Y-64713181D01*
X94395317Y-64746666D01*
X94368959Y-64749500D01*
X93620354Y-64749500D01*
X93504915Y-64764696D01*
X93504906Y-64764699D01*
X93361263Y-64824198D01*
X93237909Y-64918851D01*
X93143256Y-65042205D01*
X93083757Y-65185848D01*
X93083756Y-65185850D01*
X93068558Y-65301298D01*
X91669054Y-65301298D01*
X91653872Y-65185980D01*
X91653870Y-65185975D01*
X91594424Y-65042458D01*
X91594424Y-65042457D01*
X91499850Y-64919207D01*
X91376599Y-64824633D01*
X91233082Y-64765187D01*
X91233077Y-64765185D01*
X91117729Y-64750000D01*
X90969058Y-64750000D01*
X90969058Y-65750000D01*
X90469058Y-65750000D01*
X90469058Y-64750000D01*
X90320387Y-64750000D01*
X90205038Y-64765185D01*
X90205033Y-64765187D01*
X90061516Y-64824633D01*
X90061515Y-64824633D01*
X89938265Y-64919207D01*
X89843691Y-65042457D01*
X89843691Y-65042458D01*
X89784245Y-65185975D01*
X89784243Y-65185980D01*
X89769058Y-65301329D01*
X88356648Y-65301329D01*
X91077564Y-62580414D01*
X91077569Y-62580410D01*
X91087772Y-62570206D01*
X91087774Y-62570206D01*
X91199578Y-62458402D01*
X91261374Y-62351366D01*
X91311938Y-62303154D01*
X91321286Y-62298817D01*
X91376856Y-62275800D01*
X91500207Y-62181149D01*
X91594858Y-62057798D01*
X91654359Y-61914151D01*
X91669558Y-61798701D01*
X91669557Y-60401300D01*
X91669557Y-60401298D01*
X91669557Y-60401296D01*
X91654361Y-60285857D01*
X91654359Y-60285850D01*
X91654359Y-60285849D01*
X91594858Y-60142202D01*
X91500207Y-60018851D01*
X91376856Y-59924200D01*
X91376852Y-59924198D01*
X91233209Y-59864699D01*
X91233207Y-59864698D01*
X91117759Y-59849500D01*
X90320354Y-59849500D01*
X90204915Y-59864696D01*
X90204906Y-59864699D01*
X90061263Y-59924198D01*
X90061260Y-59924199D01*
X90061260Y-59924200D01*
X89937909Y-60018851D01*
X89856532Y-60124904D01*
X89843256Y-60142205D01*
X89783757Y-60285848D01*
X89783756Y-60285850D01*
X89768558Y-60401298D01*
X89768558Y-61798703D01*
X89783754Y-61914142D01*
X89783757Y-61914151D01*
X89828671Y-62022582D01*
X89836140Y-62092052D01*
X89804865Y-62154531D01*
X89801791Y-62157716D01*
X87246326Y-64713181D01*
X87185003Y-64746666D01*
X87158645Y-64749500D01*
X86410040Y-64749500D01*
X86294601Y-64764696D01*
X86294592Y-64764699D01*
X86150949Y-64824198D01*
X86027595Y-64918851D01*
X85932942Y-65042205D01*
X85873443Y-65185848D01*
X85873442Y-65185850D01*
X85858244Y-65301298D01*
X84458740Y-65301298D01*
X84443558Y-65185980D01*
X84443556Y-65185975D01*
X84384110Y-65042458D01*
X84384110Y-65042457D01*
X84289536Y-64919207D01*
X84166285Y-64824633D01*
X84022768Y-64765187D01*
X84022763Y-64765185D01*
X83907415Y-64750000D01*
X83758744Y-64750000D01*
X83758744Y-65750000D01*
X83258744Y-65750000D01*
X83258744Y-64750000D01*
X83110073Y-64750000D01*
X82994724Y-64765185D01*
X82994719Y-64765187D01*
X82851202Y-64824633D01*
X82851201Y-64824633D01*
X82727951Y-64919207D01*
X82633377Y-65042457D01*
X82633377Y-65042458D01*
X82573931Y-65185975D01*
X82573929Y-65185980D01*
X82558744Y-65301329D01*
X81146334Y-65301329D01*
X83867250Y-62580414D01*
X83867255Y-62580410D01*
X83877458Y-62570206D01*
X83877460Y-62570206D01*
X83989264Y-62458402D01*
X84051060Y-62351366D01*
X84101624Y-62303154D01*
X84110972Y-62298817D01*
X84166542Y-62275800D01*
X84289893Y-62181149D01*
X84384544Y-62057798D01*
X84444045Y-61914151D01*
X84459244Y-61798701D01*
X84459243Y-60401300D01*
X84459243Y-60401298D01*
X84459243Y-60401296D01*
X84444047Y-60285857D01*
X84444045Y-60285850D01*
X84444045Y-60285849D01*
X84384544Y-60142202D01*
X84289893Y-60018851D01*
X84166542Y-59924200D01*
X84166538Y-59924198D01*
X84022895Y-59864699D01*
X84022893Y-59864698D01*
X83907446Y-59849500D01*
X83311482Y-59849500D01*
X83244443Y-59829815D01*
X83198688Y-59777011D01*
X83188744Y-59707853D01*
X83217769Y-59644297D01*
X83223769Y-59637851D01*
X83708535Y-59153087D01*
X83784156Y-59039912D01*
X83836245Y-58914158D01*
X83844759Y-58871356D01*
X83850772Y-58841123D01*
X83862800Y-58780660D01*
X83862800Y-58609841D01*
X83882485Y-58542802D01*
X83899119Y-58522160D01*
X83956220Y-58465059D01*
X84014512Y-58406767D01*
X84106614Y-58257445D01*
X84161799Y-58090908D01*
X84172300Y-57988120D01*
X84172300Y-57988097D01*
X86481601Y-57988097D01*
X86492094Y-58090808D01*
X86547241Y-58257230D01*
X86547243Y-58257235D01*
X86639284Y-58406456D01*
X86763254Y-58530426D01*
X86912475Y-58622467D01*
X86912480Y-58622469D01*
X87078902Y-58677616D01*
X87078909Y-58677617D01*
X87181619Y-58688110D01*
X87231599Y-58688109D01*
X87231600Y-58688109D01*
X87231600Y-57713111D01*
X86481601Y-57713111D01*
X86481601Y-57988097D01*
X84172300Y-57988097D01*
X84172299Y-57491193D01*
X84191984Y-57424155D01*
X84208613Y-57403518D01*
X84719203Y-56892930D01*
X84780526Y-56859445D01*
X84806884Y-56856611D01*
X86357600Y-56856611D01*
X86424639Y-56876296D01*
X86470394Y-56929100D01*
X86481600Y-56980611D01*
X86481600Y-57213111D01*
X87357600Y-57213111D01*
X87424639Y-57232796D01*
X87470394Y-57285600D01*
X87481600Y-57337111D01*
X87481600Y-57463111D01*
X87607600Y-57463111D01*
X87674639Y-57482796D01*
X87720394Y-57535600D01*
X87731600Y-57587111D01*
X87731600Y-58688110D01*
X87781572Y-58688110D01*
X87781586Y-58688109D01*
X87884295Y-58677617D01*
X87940434Y-58659014D01*
X88010262Y-58656612D01*
X88070304Y-58692343D01*
X88101498Y-58754863D01*
X88093938Y-58824323D01*
X88067120Y-58864401D01*
X87118340Y-59813181D01*
X87057017Y-59846666D01*
X87030659Y-59849500D01*
X86410040Y-59849500D01*
X86294601Y-59864696D01*
X86294592Y-59864699D01*
X86150949Y-59924198D01*
X86150946Y-59924199D01*
X86150946Y-59924200D01*
X86027595Y-60018851D01*
X85946218Y-60124904D01*
X85932942Y-60142205D01*
X85873443Y-60285848D01*
X85873442Y-60285850D01*
X85858244Y-60401298D01*
X85858244Y-61798703D01*
X85873440Y-61914142D01*
X85873443Y-61914150D01*
X85873443Y-61914151D01*
X85932944Y-62057798D01*
X86027595Y-62181149D01*
X86150946Y-62275800D01*
X86294593Y-62335301D01*
X86410043Y-62350500D01*
X87207444Y-62350499D01*
X87207447Y-62350499D01*
X87322886Y-62335303D01*
X87322890Y-62335301D01*
X87322895Y-62335301D01*
X87466542Y-62275800D01*
X87589893Y-62181149D01*
X87684544Y-62057798D01*
X87744045Y-61914151D01*
X87759244Y-61798701D01*
X87759243Y-61178082D01*
X87778927Y-61111044D01*
X87795557Y-61090407D01*
X89918335Y-58967630D01*
X89993956Y-58854455D01*
X90046045Y-58728701D01*
X90053893Y-58689246D01*
X90072600Y-58595202D01*
X90072600Y-58593959D01*
X90073989Y-58586885D01*
X90087470Y-58560955D01*
X90098409Y-58533851D01*
X90105993Y-58525329D01*
X90106220Y-58524894D01*
X90106548Y-58524705D01*
X90107968Y-58523110D01*
X90224312Y-58406767D01*
X90316414Y-58257445D01*
X90371599Y-58090908D01*
X90382100Y-57988120D01*
X90382100Y-57988097D01*
X92691401Y-57988097D01*
X92701894Y-58090808D01*
X92757041Y-58257230D01*
X92757043Y-58257235D01*
X92849084Y-58406456D01*
X92973054Y-58530426D01*
X93122275Y-58622467D01*
X93122280Y-58622469D01*
X93288702Y-58677616D01*
X93288709Y-58677617D01*
X93391419Y-58688110D01*
X93441399Y-58688109D01*
X93441400Y-58688109D01*
X93441400Y-57713111D01*
X92691401Y-57713111D01*
X92691401Y-57988097D01*
X90382100Y-57988097D01*
X90382099Y-57491193D01*
X90401784Y-57424155D01*
X90418413Y-57403518D01*
X90929003Y-56892930D01*
X90990326Y-56859445D01*
X91016684Y-56856611D01*
X92567400Y-56856611D01*
X92634439Y-56876296D01*
X92680194Y-56929100D01*
X92691400Y-56980611D01*
X92691400Y-57213111D01*
X93567400Y-57213111D01*
X93634439Y-57232796D01*
X93680194Y-57285600D01*
X93691400Y-57337111D01*
X93691400Y-57463111D01*
X93817400Y-57463111D01*
X93884439Y-57482796D01*
X93930194Y-57535600D01*
X93941400Y-57587111D01*
X93941400Y-58688110D01*
X93991372Y-58688110D01*
X93991386Y-58688109D01*
X94094097Y-58677616D01*
X94260519Y-58622469D01*
X94260524Y-58622467D01*
X94409745Y-58530426D01*
X94533718Y-58406453D01*
X94535565Y-58403459D01*
X94537369Y-58401835D01*
X94538198Y-58400788D01*
X94538376Y-58400929D01*
X94587510Y-58356732D01*
X94656473Y-58345507D01*
X94720556Y-58373347D01*
X94730667Y-58382791D01*
X94739750Y-58392277D01*
X94748688Y-58406767D01*
X94865035Y-58523114D01*
X94865961Y-58524081D01*
X94881446Y-58553962D01*
X94897566Y-58583483D01*
X94897780Y-58585481D01*
X94898109Y-58586115D01*
X94897988Y-58587409D01*
X94900400Y-58609841D01*
X94900400Y-59190073D01*
X94880715Y-59257112D01*
X94864081Y-59277754D01*
X94328653Y-59813181D01*
X94267330Y-59846666D01*
X94240972Y-59849500D01*
X93620354Y-59849500D01*
X93504915Y-59864696D01*
X93504906Y-59864699D01*
X93361263Y-59924198D01*
X93361260Y-59924199D01*
X93361260Y-59924200D01*
X93237909Y-60018851D01*
X93156532Y-60124904D01*
X93143256Y-60142205D01*
X93083757Y-60285848D01*
X93083756Y-60285850D01*
X93068558Y-60401298D01*
X93068558Y-61798703D01*
X93083754Y-61914142D01*
X93083757Y-61914150D01*
X93083757Y-61914151D01*
X93143258Y-62057798D01*
X93237909Y-62181149D01*
X93361260Y-62275800D01*
X93504907Y-62335301D01*
X93620357Y-62350500D01*
X94417758Y-62350499D01*
X94417761Y-62350499D01*
X94533200Y-62335303D01*
X94533204Y-62335301D01*
X94533209Y-62335301D01*
X94676856Y-62275800D01*
X94800207Y-62181149D01*
X94894858Y-62057798D01*
X94954359Y-61914151D01*
X94969558Y-61798701D01*
X94969557Y-61178082D01*
X94989241Y-61111044D01*
X95005871Y-61090407D01*
X96128135Y-59968145D01*
X96203756Y-59854970D01*
X96255845Y-59729216D01*
X96261352Y-59701530D01*
X96268326Y-59666471D01*
X96268326Y-59666468D01*
X96282400Y-59595716D01*
X96282400Y-58609841D01*
X96302085Y-58542802D01*
X96318719Y-58522160D01*
X96375820Y-58465059D01*
X96434112Y-58406767D01*
X96526214Y-58257445D01*
X96581399Y-58090908D01*
X96591900Y-57988120D01*
X96591900Y-57988097D01*
X98901201Y-57988097D01*
X98911694Y-58090808D01*
X98966841Y-58257230D01*
X98966843Y-58257235D01*
X99058884Y-58406456D01*
X99182854Y-58530426D01*
X99332075Y-58622467D01*
X99332080Y-58622469D01*
X99498502Y-58677616D01*
X99498509Y-58677617D01*
X99601219Y-58688110D01*
X99651199Y-58688109D01*
X99651200Y-58688109D01*
X99651200Y-57713111D01*
X98901201Y-57713111D01*
X98901201Y-57988097D01*
X96591900Y-57988097D01*
X96591899Y-57491193D01*
X96611584Y-57424155D01*
X96628213Y-57403518D01*
X97138803Y-56892930D01*
X97200126Y-56859445D01*
X97226484Y-56856611D01*
X98777200Y-56856611D01*
X98844239Y-56876296D01*
X98889994Y-56929100D01*
X98901200Y-56980611D01*
X98901200Y-57213111D01*
X99777200Y-57213111D01*
X99844239Y-57232796D01*
X99889994Y-57285600D01*
X99901200Y-57337111D01*
X99901200Y-57463111D01*
X100027200Y-57463111D01*
X100094239Y-57482796D01*
X100139994Y-57535600D01*
X100151200Y-57587111D01*
X100151200Y-58688110D01*
X100201172Y-58688110D01*
X100201186Y-58688109D01*
X100303897Y-58677616D01*
X100470319Y-58622469D01*
X100470324Y-58622467D01*
X100619545Y-58530426D01*
X100743518Y-58406453D01*
X100745365Y-58403459D01*
X100747169Y-58401835D01*
X100747998Y-58400788D01*
X100748176Y-58400929D01*
X100797310Y-58356732D01*
X100866273Y-58345507D01*
X100930356Y-58373347D01*
X100940467Y-58382791D01*
X100949550Y-58392277D01*
X100958488Y-58406767D01*
X101074835Y-58523114D01*
X101075761Y-58524081D01*
X101091246Y-58553962D01*
X101107366Y-58583483D01*
X101107580Y-58585481D01*
X101107909Y-58586115D01*
X101107788Y-58587409D01*
X101110200Y-58609841D01*
X101110200Y-59725500D01*
X101090515Y-59792539D01*
X101037711Y-59838294D01*
X100986201Y-59849500D01*
X100830668Y-59849500D01*
X100715229Y-59864696D01*
X100715220Y-59864699D01*
X100571577Y-59924198D01*
X100571574Y-59924199D01*
X100571574Y-59924200D01*
X100448223Y-60018851D01*
X100366846Y-60124904D01*
X100353570Y-60142205D01*
X100294071Y-60285848D01*
X100294070Y-60285850D01*
X100278872Y-60401298D01*
X100278872Y-61798703D01*
X100294068Y-61914142D01*
X100294071Y-61914150D01*
X100294071Y-61914151D01*
X100353572Y-62057798D01*
X100448223Y-62181149D01*
X100571574Y-62275800D01*
X100715221Y-62335301D01*
X100830671Y-62350500D01*
X101628072Y-62350499D01*
X101628075Y-62350499D01*
X101743514Y-62335303D01*
X101743518Y-62335301D01*
X101743523Y-62335301D01*
X101887170Y-62275800D01*
X102010521Y-62181149D01*
X102105172Y-62057798D01*
X102164673Y-61914151D01*
X102179872Y-61798701D01*
X102179871Y-61178083D01*
X102199555Y-61111045D01*
X102216190Y-61090402D01*
X102337935Y-60968658D01*
X102413556Y-60855483D01*
X102465645Y-60729729D01*
X102479612Y-60659513D01*
X102492200Y-60596232D01*
X102492200Y-58609841D01*
X102511885Y-58542802D01*
X102528519Y-58522160D01*
X102585620Y-58465059D01*
X102643912Y-58406767D01*
X102736014Y-58257445D01*
X102791199Y-58090908D01*
X102801700Y-57988120D01*
X102801700Y-57988097D01*
X105111001Y-57988097D01*
X105121494Y-58090808D01*
X105176641Y-58257230D01*
X105176643Y-58257235D01*
X105268684Y-58406456D01*
X105392654Y-58530426D01*
X105541875Y-58622467D01*
X105541880Y-58622469D01*
X105708302Y-58677616D01*
X105708309Y-58677617D01*
X105811019Y-58688110D01*
X105860999Y-58688109D01*
X105861000Y-58688109D01*
X105861000Y-57713111D01*
X105111001Y-57713111D01*
X105111001Y-57988097D01*
X102801700Y-57988097D01*
X102801699Y-57491193D01*
X102821384Y-57424155D01*
X102838013Y-57403518D01*
X103348603Y-56892930D01*
X103409926Y-56859445D01*
X103436284Y-56856611D01*
X104987000Y-56856611D01*
X105054039Y-56876296D01*
X105099794Y-56929100D01*
X105111000Y-56980611D01*
X105111000Y-57213111D01*
X105987000Y-57213111D01*
X106054039Y-57232796D01*
X106099794Y-57285600D01*
X106111000Y-57337111D01*
X106111000Y-57463111D01*
X106237000Y-57463111D01*
X106304039Y-57482796D01*
X106349794Y-57535600D01*
X106361000Y-57587111D01*
X106361000Y-58688110D01*
X106410972Y-58688110D01*
X106410986Y-58688109D01*
X106513697Y-58677616D01*
X106680119Y-58622469D01*
X106680124Y-58622467D01*
X106829345Y-58530426D01*
X106953318Y-58406453D01*
X106955165Y-58403459D01*
X106956969Y-58401835D01*
X106957798Y-58400788D01*
X106957976Y-58400929D01*
X107007110Y-58356732D01*
X107076073Y-58345507D01*
X107140156Y-58373347D01*
X107150267Y-58382791D01*
X107159350Y-58392277D01*
X107168288Y-58406767D01*
X107284635Y-58523114D01*
X107285561Y-58524081D01*
X107301046Y-58553962D01*
X107317166Y-58583483D01*
X107317380Y-58585481D01*
X107317709Y-58586115D01*
X107317588Y-58587409D01*
X107320000Y-58609841D01*
X107320000Y-60739372D01*
X107320000Y-60739374D01*
X107319999Y-60739374D01*
X107336450Y-60822071D01*
X107336450Y-60822072D01*
X107346553Y-60872863D01*
X107346556Y-60872875D01*
X107398642Y-60998622D01*
X107468288Y-61102855D01*
X107489166Y-61169533D01*
X107489186Y-61171746D01*
X107489186Y-61798703D01*
X107504382Y-61914142D01*
X107504385Y-61914150D01*
X107504385Y-61914151D01*
X107563886Y-62057798D01*
X107658537Y-62181149D01*
X107781888Y-62275800D01*
X107925535Y-62335301D01*
X108040985Y-62350500D01*
X108838386Y-62350499D01*
X108838389Y-62350499D01*
X108953828Y-62335303D01*
X108953832Y-62335301D01*
X108953837Y-62335301D01*
X109097484Y-62275800D01*
X109220835Y-62181149D01*
X109315486Y-62057798D01*
X109374987Y-61914151D01*
X109390186Y-61798701D01*
X109390185Y-60401300D01*
X109390185Y-60401298D01*
X109390185Y-60401296D01*
X109374989Y-60285857D01*
X109374987Y-60285850D01*
X109374987Y-60285849D01*
X109315486Y-60142202D01*
X109220835Y-60018851D01*
X109097484Y-59924200D01*
X109097480Y-59924198D01*
X108953837Y-59864699D01*
X108953835Y-59864698D01*
X108838388Y-59849500D01*
X108838387Y-59849500D01*
X108826000Y-59849500D01*
X108758961Y-59829815D01*
X108713206Y-59777011D01*
X108702000Y-59725500D01*
X108702000Y-58609841D01*
X108721685Y-58542802D01*
X108738319Y-58522160D01*
X108795420Y-58465059D01*
X108853712Y-58406767D01*
X108945814Y-58257445D01*
X109000999Y-58090908D01*
X109011500Y-57988120D01*
X109011499Y-56938103D01*
X109010579Y-56929100D01*
X109000999Y-56835314D01*
X109000998Y-56835311D01*
X108999928Y-56832081D01*
X108945814Y-56668777D01*
X108884013Y-56568581D01*
X108865574Y-56501191D01*
X108886497Y-56434528D01*
X108901867Y-56415810D01*
X108978189Y-56339489D01*
X109065794Y-56208379D01*
X109070082Y-56198028D01*
X109126135Y-56062701D01*
X109126137Y-56062697D01*
X109156900Y-55908042D01*
X109156900Y-55750358D01*
X109156900Y-55750355D01*
X109156899Y-55750353D01*
X109147683Y-55704021D01*
X109126137Y-55595703D01*
X109105742Y-55546464D01*
X109065797Y-55450027D01*
X109065790Y-55450014D01*
X108978189Y-55318911D01*
X108978186Y-55318907D01*
X108866692Y-55207413D01*
X108866688Y-55207410D01*
X108735585Y-55119809D01*
X108735572Y-55119802D01*
X108589901Y-55059464D01*
X108589889Y-55059461D01*
X108435245Y-55028700D01*
X108435242Y-55028700D01*
X108277558Y-55028700D01*
X108277555Y-55028700D01*
X108122910Y-55059461D01*
X108122898Y-55059464D01*
X107977227Y-55119802D01*
X107977214Y-55119809D01*
X107846111Y-55207410D01*
X107846107Y-55207413D01*
X107734613Y-55318907D01*
X107734610Y-55318911D01*
X107647009Y-55450014D01*
X107647002Y-55450027D01*
X107586663Y-55595700D01*
X107584893Y-55601537D01*
X107582574Y-55600833D01*
X107579380Y-55606973D01*
X107576065Y-55624056D01*
X107556764Y-55650450D01*
X107555554Y-55652778D01*
X107554570Y-55653807D01*
X107474265Y-55734113D01*
X107466072Y-55746373D01*
X107458602Y-55754188D01*
X107437309Y-55766443D01*
X107418456Y-55782198D01*
X107407561Y-55783565D01*
X107398047Y-55789042D01*
X107373509Y-55787840D01*
X107349131Y-55790901D01*
X107339227Y-55786161D01*
X107328261Y-55785625D01*
X107308268Y-55771348D01*
X107286105Y-55760743D01*
X107281292Y-55756180D01*
X107153992Y-55628880D01*
X107153985Y-55628874D01*
X107040812Y-55553255D01*
X107040809Y-55553253D01*
X106915061Y-55501167D01*
X106915051Y-55501164D01*
X106781560Y-55474611D01*
X106781558Y-55474611D01*
X103030642Y-55474611D01*
X103030640Y-55474611D01*
X102897148Y-55501164D01*
X102897138Y-55501167D01*
X102771390Y-55553253D01*
X102771387Y-55553255D01*
X102658214Y-55628874D01*
X102658207Y-55628880D01*
X102085796Y-56201292D01*
X102024473Y-56234777D01*
X101998115Y-56237611D01*
X101604284Y-56237611D01*
X101537245Y-56217926D01*
X101516603Y-56201292D01*
X100944192Y-55628880D01*
X100944185Y-55628874D01*
X100831012Y-55553255D01*
X100831009Y-55553253D01*
X100705261Y-55501167D01*
X100705251Y-55501164D01*
X100571760Y-55474611D01*
X100571758Y-55474611D01*
X96820842Y-55474611D01*
X96820840Y-55474611D01*
X96687348Y-55501164D01*
X96687338Y-55501167D01*
X96561590Y-55553253D01*
X96561587Y-55553255D01*
X96448414Y-55628874D01*
X96448407Y-55628880D01*
X95875996Y-56201292D01*
X95814673Y-56234777D01*
X95788315Y-56237611D01*
X95394484Y-56237611D01*
X95327445Y-56217926D01*
X95306803Y-56201292D01*
X94734392Y-55628880D01*
X94734385Y-55628874D01*
X94621212Y-55553255D01*
X94621209Y-55553253D01*
X94495461Y-55501167D01*
X94495451Y-55501164D01*
X94361960Y-55474611D01*
X94361958Y-55474611D01*
X90611042Y-55474611D01*
X90611040Y-55474611D01*
X90477548Y-55501164D01*
X90477538Y-55501167D01*
X90351790Y-55553253D01*
X90351787Y-55553255D01*
X90238614Y-55628874D01*
X90238607Y-55628880D01*
X89666196Y-56201292D01*
X89604873Y-56234777D01*
X89578515Y-56237611D01*
X89184684Y-56237611D01*
X89117645Y-56217926D01*
X89097003Y-56201292D01*
X88524592Y-55628880D01*
X88524585Y-55628874D01*
X88411412Y-55553255D01*
X88411409Y-55553253D01*
X88285661Y-55501167D01*
X88285651Y-55501164D01*
X88152160Y-55474611D01*
X88152158Y-55474611D01*
X84401242Y-55474611D01*
X84401240Y-55474611D01*
X84267748Y-55501164D01*
X84267738Y-55501167D01*
X84141990Y-55553253D01*
X84141987Y-55553255D01*
X84028814Y-55628874D01*
X84028807Y-55628880D01*
X83456396Y-56201292D01*
X83395073Y-56234777D01*
X83368715Y-56237611D01*
X82974884Y-56237611D01*
X82907845Y-56217926D01*
X82887203Y-56201292D01*
X82232381Y-55546469D01*
X82232374Y-55546463D01*
X82119201Y-55470844D01*
X82119198Y-55470842D01*
X81993450Y-55418756D01*
X81993446Y-55418755D01*
X81972211Y-55414531D01*
X81859949Y-55392200D01*
X81859947Y-55392200D01*
X78273853Y-55392200D01*
X78273851Y-55392200D01*
X78161589Y-55414531D01*
X78145625Y-55417706D01*
X78140353Y-55418755D01*
X78140349Y-55418756D01*
X78014606Y-55470840D01*
X78014593Y-55470847D01*
X77901425Y-55546464D01*
X77901421Y-55546467D01*
X77246596Y-56201292D01*
X77185273Y-56234777D01*
X77158915Y-56237611D01*
X76661998Y-56237611D01*
X76661980Y-56237612D01*
X76559203Y-56248111D01*
X76559200Y-56248112D01*
X76392668Y-56303296D01*
X76392663Y-56303298D01*
X76243342Y-56395400D01*
X76119288Y-56519454D01*
X76119283Y-56519460D01*
X76117241Y-56522772D01*
X76115247Y-56524564D01*
X76114807Y-56525122D01*
X76114711Y-56525046D01*
X76065291Y-56569494D01*
X75996328Y-56580713D01*
X75932247Y-56552866D01*
X75906168Y-56522767D01*
X75904319Y-56519770D01*
X75904316Y-56519766D01*
X75780345Y-56395795D01*
X75631124Y-56303754D01*
X75631119Y-56303752D01*
X75464697Y-56248605D01*
X75464690Y-56248604D01*
X75361986Y-56238111D01*
X75312000Y-56238111D01*
X75312000Y-57339111D01*
X75292315Y-57406150D01*
X75239511Y-57451905D01*
X75188000Y-57463111D01*
X75062000Y-57463111D01*
X75062000Y-57589111D01*
X75042315Y-57656150D01*
X74989511Y-57701905D01*
X74938000Y-57713111D01*
X74062001Y-57713111D01*
X74062001Y-57988097D01*
X74072494Y-58090808D01*
X74127641Y-58257230D01*
X74127643Y-58257235D01*
X74219684Y-58406456D01*
X74343654Y-58530426D01*
X74492875Y-58622467D01*
X74492884Y-58622471D01*
X74551821Y-58642000D01*
X74609267Y-58681771D01*
X74636091Y-58746287D01*
X74623777Y-58815063D01*
X74600500Y-58847387D01*
X73382030Y-60065857D01*
X73320707Y-60099342D01*
X73251015Y-60094358D01*
X73195974Y-60053664D01*
X73169261Y-60018851D01*
X73045910Y-59924200D01*
X73045906Y-59924198D01*
X72902263Y-59864699D01*
X72902261Y-59864698D01*
X72786813Y-59849500D01*
X71989408Y-59849500D01*
X71873969Y-59864696D01*
X71873960Y-59864699D01*
X71730317Y-59924198D01*
X71730314Y-59924199D01*
X71730314Y-59924200D01*
X71606963Y-60018851D01*
X71525586Y-60124904D01*
X71512310Y-60142205D01*
X71452811Y-60285848D01*
X71452810Y-60285850D01*
X71437612Y-60401298D01*
X70038611Y-60401298D01*
X70038611Y-60401296D01*
X70023415Y-60285857D01*
X70023413Y-60285850D01*
X70023413Y-60285849D01*
X69963912Y-60142202D01*
X69869261Y-60018851D01*
X69745910Y-59924200D01*
X69745906Y-59924198D01*
X69602263Y-59864699D01*
X69602261Y-59864698D01*
X69486813Y-59849500D01*
X68689408Y-59849500D01*
X68573969Y-59864696D01*
X68573960Y-59864699D01*
X68430317Y-59924198D01*
X68430314Y-59924199D01*
X68430314Y-59924200D01*
X68306963Y-60018851D01*
X68225586Y-60124904D01*
X68212310Y-60142205D01*
X68152811Y-60285848D01*
X68152810Y-60285850D01*
X68137612Y-60401298D01*
X67550500Y-60401298D01*
X67550500Y-58465059D01*
X67550632Y-58459332D01*
X67553339Y-58400788D01*
X67569042Y-58061143D01*
X67570099Y-58049745D01*
X67570544Y-58046555D01*
X67624776Y-57657786D01*
X67626874Y-57646562D01*
X67717485Y-57261313D01*
X67720608Y-57250334D01*
X67846385Y-56875068D01*
X67850504Y-56864435D01*
X67902667Y-56746299D01*
X67947752Y-56692925D01*
X68014539Y-56672398D01*
X68081821Y-56691237D01*
X68128237Y-56743460D01*
X68140100Y-56796388D01*
X68140100Y-57098463D01*
X68174057Y-57399848D01*
X68174060Y-57399862D01*
X68241553Y-57695571D01*
X68241557Y-57695583D01*
X68341733Y-57981868D01*
X68473333Y-58255138D01*
X68474651Y-58257235D01*
X68634708Y-58511964D01*
X68723195Y-58622923D01*
X68821574Y-58746287D01*
X68823821Y-58749104D01*
X69038296Y-58963579D01*
X69275436Y-59152692D01*
X69532259Y-59314065D01*
X69805535Y-59445668D01*
X70020551Y-59520905D01*
X70091816Y-59545842D01*
X70091828Y-59545846D01*
X70387537Y-59613340D01*
X70387546Y-59613341D01*
X70387551Y-59613342D01*
X70582182Y-59635271D01*
X70688937Y-59647299D01*
X70688940Y-59647300D01*
X70688943Y-59647300D01*
X70992260Y-59647300D01*
X70992261Y-59647299D01*
X71146294Y-59629944D01*
X71293648Y-59613342D01*
X71293651Y-59613341D01*
X71293663Y-59613340D01*
X71589372Y-59545846D01*
X71875665Y-59445668D01*
X72148941Y-59314065D01*
X72405764Y-59152692D01*
X72642904Y-58963579D01*
X72857379Y-58749104D01*
X73046492Y-58511964D01*
X73207865Y-58255141D01*
X73339468Y-57981865D01*
X73439646Y-57695572D01*
X73507140Y-57399863D01*
X73512991Y-57347939D01*
X73541099Y-57098463D01*
X73541100Y-57098459D01*
X73541100Y-56938124D01*
X74062000Y-56938124D01*
X74062000Y-57213111D01*
X74812000Y-57213111D01*
X74812000Y-56238111D01*
X74811999Y-56238110D01*
X74762029Y-56238111D01*
X74762011Y-56238112D01*
X74659302Y-56248605D01*
X74492880Y-56303752D01*
X74492875Y-56303754D01*
X74343654Y-56395795D01*
X74219684Y-56519765D01*
X74127643Y-56668986D01*
X74127641Y-56668991D01*
X74072494Y-56835413D01*
X74072493Y-56835420D01*
X74062000Y-56938124D01*
X73541100Y-56938124D01*
X73541100Y-56795140D01*
X73541099Y-56795136D01*
X73539059Y-56777034D01*
X73513802Y-56552866D01*
X73507142Y-56493751D01*
X73507141Y-56493746D01*
X73507140Y-56493737D01*
X73439646Y-56198028D01*
X73420473Y-56143236D01*
X73371876Y-56004353D01*
X73339468Y-55911735D01*
X73207865Y-55638459D01*
X73046492Y-55381636D01*
X72857379Y-55144496D01*
X72642904Y-54930021D01*
X72405764Y-54740908D01*
X72148941Y-54579535D01*
X72148938Y-54579533D01*
X71875668Y-54447933D01*
X71589383Y-54347757D01*
X71589371Y-54347753D01*
X71485533Y-54324053D01*
X71474099Y-54317657D01*
X71461142Y-54315739D01*
X71444196Y-54300930D01*
X71424555Y-54289944D01*
X71418394Y-54278383D01*
X71408530Y-54269763D01*
X71402280Y-54248143D01*
X71391697Y-54228283D01*
X71392764Y-54215226D01*
X71389127Y-54202642D01*
X71395557Y-54181076D01*
X71397392Y-54158645D01*
X71405349Y-54148237D01*
X71409093Y-54135685D01*
X71426162Y-54121019D01*
X71439832Y-54103142D01*
X71453357Y-54097653D01*
X71462088Y-54090152D01*
X71495991Y-54080351D01*
X71546566Y-54073296D01*
X71557950Y-54072241D01*
X71956428Y-54053818D01*
X71962153Y-54053687D01*
X72034129Y-54053687D01*
X72034180Y-54053682D01*
X111715936Y-54051666D01*
X111782975Y-54071347D01*
X111828733Y-54124149D01*
X111838680Y-54193307D01*
X111809658Y-54256864D01*
X111750882Y-54294641D01*
X111743534Y-54296557D01*
X111519228Y-54347753D01*
X111519216Y-54347757D01*
X111232931Y-54447933D01*
X110959661Y-54579533D01*
X110702837Y-54740907D01*
X110465696Y-54930020D01*
X110251220Y-55144496D01*
X110062107Y-55381637D01*
X109900733Y-55638461D01*
X109769133Y-55911731D01*
X109668957Y-56198016D01*
X109668953Y-56198028D01*
X109601460Y-56493737D01*
X109601457Y-56493751D01*
X109567500Y-56795136D01*
X109567500Y-57098463D01*
X109601457Y-57399848D01*
X109601460Y-57399862D01*
X109668953Y-57695571D01*
X109668957Y-57695583D01*
X109769133Y-57981868D01*
X109900733Y-58255138D01*
X109902051Y-58257235D01*
X110062108Y-58511964D01*
X110150595Y-58622923D01*
X110248974Y-58746287D01*
X110251221Y-58749104D01*
X110465696Y-58963579D01*
X110702836Y-59152692D01*
X110959659Y-59314065D01*
X111232935Y-59445668D01*
X111447951Y-59520905D01*
X111519216Y-59545842D01*
X111519228Y-59545846D01*
X111814937Y-59613340D01*
X111826776Y-59614674D01*
X111846244Y-59616868D01*
X111910658Y-59643935D01*
X111950213Y-59701530D01*
X111952350Y-59771366D01*
X111916392Y-59831273D01*
X111853754Y-59862229D01*
X111848544Y-59863027D01*
X111835857Y-59864697D01*
X111835848Y-59864699D01*
X111692205Y-59924198D01*
X111692202Y-59924199D01*
X111692202Y-59924200D01*
X111568851Y-60018851D01*
X111487474Y-60124904D01*
X111474198Y-60142205D01*
X111414699Y-60285848D01*
X111414698Y-60285850D01*
X111399500Y-60401298D01*
X111399500Y-61798703D01*
X111414696Y-61914142D01*
X111414699Y-61914151D01*
X111459613Y-62022582D01*
X111467082Y-62092052D01*
X111435807Y-62154531D01*
X111432733Y-62157716D01*
X108877268Y-64713181D01*
X108815945Y-64746666D01*
X108789587Y-64749500D01*
X108040982Y-64749500D01*
X107925543Y-64764696D01*
X107925534Y-64764699D01*
X107781891Y-64824198D01*
X107658537Y-64918851D01*
X107563884Y-65042205D01*
X107504385Y-65185848D01*
X107504384Y-65185850D01*
X107489186Y-65301298D01*
X107489186Y-66698703D01*
X107504382Y-66814142D01*
X107504385Y-66814151D01*
X107563779Y-66957541D01*
X107563886Y-66957798D01*
X107658537Y-67081149D01*
X107781888Y-67175800D01*
X107925535Y-67235301D01*
X108040985Y-67250500D01*
X108838386Y-67250499D01*
X108838389Y-67250499D01*
X108953828Y-67235303D01*
X108953832Y-67235301D01*
X108953837Y-67235301D01*
X109097484Y-67175800D01*
X109220835Y-67081149D01*
X109315486Y-66957798D01*
X109374987Y-66814151D01*
X109390186Y-66698701D01*
X109390185Y-65950095D01*
X109409869Y-65883057D01*
X109426499Y-65862420D01*
X109987590Y-65301329D01*
X111400000Y-65301329D01*
X111400000Y-65750000D01*
X112100000Y-65750000D01*
X112600000Y-65750000D01*
X113300000Y-65750000D01*
X113300000Y-65301329D01*
X113299996Y-65301298D01*
X114699500Y-65301298D01*
X114699500Y-66698703D01*
X114714696Y-66814142D01*
X114714699Y-66814151D01*
X114774093Y-66957541D01*
X114774200Y-66957798D01*
X114868851Y-67081149D01*
X114992202Y-67175800D01*
X115135849Y-67235301D01*
X115251299Y-67250500D01*
X116048700Y-67250499D01*
X116048703Y-67250499D01*
X116164142Y-67235303D01*
X116164146Y-67235301D01*
X116164151Y-67235301D01*
X116307798Y-67175800D01*
X116431149Y-67081149D01*
X116525800Y-66957798D01*
X116585301Y-66814151D01*
X116600500Y-66698701D01*
X116600500Y-66698670D01*
X118610314Y-66698670D01*
X118625499Y-66814019D01*
X118625501Y-66814024D01*
X118684947Y-66957541D01*
X118684947Y-66957542D01*
X118779521Y-67080792D01*
X118902772Y-67175366D01*
X119046289Y-67234812D01*
X119046294Y-67234814D01*
X119161643Y-67250000D01*
X119310314Y-67250000D01*
X119810314Y-67250000D01*
X119958985Y-67250000D01*
X120074333Y-67234814D01*
X120074338Y-67234812D01*
X120217855Y-67175366D01*
X120217856Y-67175366D01*
X120341106Y-67080792D01*
X120435680Y-66957542D01*
X120435680Y-66957541D01*
X120495126Y-66814024D01*
X120495128Y-66814019D01*
X120510314Y-66698670D01*
X120510314Y-66250000D01*
X119810314Y-66250000D01*
X119810314Y-67250000D01*
X119310314Y-67250000D01*
X119310314Y-66250000D01*
X118610314Y-66250000D01*
X118610314Y-66698670D01*
X116600500Y-66698670D01*
X116600499Y-65950095D01*
X116620184Y-65883057D01*
X116636813Y-65862420D01*
X117197904Y-65301329D01*
X118610314Y-65301329D01*
X118610314Y-65750000D01*
X119310314Y-65750000D01*
X119810314Y-65750000D01*
X120510314Y-65750000D01*
X120510314Y-65301329D01*
X120510310Y-65301298D01*
X121909814Y-65301298D01*
X121909814Y-66698703D01*
X121925010Y-66814142D01*
X121925013Y-66814151D01*
X121984407Y-66957541D01*
X121984514Y-66957798D01*
X122079165Y-67081149D01*
X122202516Y-67175800D01*
X122346163Y-67235301D01*
X122461613Y-67250500D01*
X123259014Y-67250499D01*
X123259017Y-67250499D01*
X123374456Y-67235303D01*
X123374460Y-67235301D01*
X123374465Y-67235301D01*
X123518112Y-67175800D01*
X123641463Y-67081149D01*
X123736114Y-66957798D01*
X123795615Y-66814151D01*
X123810814Y-66698701D01*
X123810814Y-66698670D01*
X125820628Y-66698670D01*
X125835813Y-66814019D01*
X125835815Y-66814024D01*
X125895261Y-66957541D01*
X125895261Y-66957542D01*
X125989835Y-67080792D01*
X126113086Y-67175366D01*
X126256603Y-67234812D01*
X126256608Y-67234814D01*
X126371957Y-67250000D01*
X126520628Y-67250000D01*
X127020628Y-67250000D01*
X127169299Y-67250000D01*
X127284647Y-67234814D01*
X127284652Y-67234812D01*
X127428169Y-67175366D01*
X127428170Y-67175366D01*
X127551420Y-67080792D01*
X127645994Y-66957542D01*
X127645994Y-66957541D01*
X127705440Y-66814024D01*
X127705442Y-66814019D01*
X127720628Y-66698670D01*
X127720628Y-66250000D01*
X127020628Y-66250000D01*
X127020628Y-67250000D01*
X126520628Y-67250000D01*
X126520628Y-66250000D01*
X125820628Y-66250000D01*
X125820628Y-66698670D01*
X123810814Y-66698670D01*
X123810813Y-65950095D01*
X123830498Y-65883057D01*
X123847127Y-65862420D01*
X124408218Y-65301329D01*
X125820628Y-65301329D01*
X125820628Y-65750000D01*
X126520628Y-65750000D01*
X127020628Y-65750000D01*
X127720628Y-65750000D01*
X127720628Y-65301329D01*
X127720624Y-65301298D01*
X129120128Y-65301298D01*
X129120128Y-66698703D01*
X129135324Y-66814142D01*
X129135327Y-66814151D01*
X129194721Y-66957541D01*
X129194828Y-66957798D01*
X129289479Y-67081149D01*
X129412830Y-67175800D01*
X129556477Y-67235301D01*
X129671927Y-67250500D01*
X129760207Y-67250499D01*
X129827243Y-67270183D01*
X129872999Y-67322986D01*
X129882943Y-67392145D01*
X129853919Y-67455701D01*
X129807659Y-67489060D01*
X129745021Y-67515006D01*
X129745014Y-67515009D01*
X129613911Y-67602610D01*
X129613907Y-67602613D01*
X129502413Y-67714107D01*
X129502410Y-67714111D01*
X129414809Y-67845214D01*
X129414802Y-67845227D01*
X129354464Y-67990898D01*
X129354461Y-67990910D01*
X129323700Y-68145553D01*
X129323700Y-68303246D01*
X129354461Y-68457889D01*
X129354464Y-68457901D01*
X129414802Y-68603572D01*
X129414809Y-68603585D01*
X129502802Y-68735274D01*
X129508452Y-68753320D01*
X129518677Y-68769230D01*
X129523128Y-68800189D01*
X129523680Y-68801951D01*
X129523700Y-68804165D01*
X129523700Y-69001330D01*
X129523699Y-69001348D01*
X129523699Y-69167054D01*
X129523698Y-69167054D01*
X129523699Y-69167057D01*
X129564623Y-69319785D01*
X129585086Y-69355228D01*
X129643677Y-69456712D01*
X129643681Y-69456717D01*
X129762549Y-69575585D01*
X129762555Y-69575590D01*
X130521339Y-70334374D01*
X130521349Y-70334385D01*
X130525679Y-70338715D01*
X130525680Y-70338716D01*
X130637484Y-70450520D01*
X130637486Y-70450521D01*
X130637490Y-70450524D01*
X130774409Y-70529573D01*
X130774416Y-70529577D01*
X130886219Y-70559534D01*
X130927142Y-70570500D01*
X130927143Y-70570500D01*
X133712993Y-70570500D01*
X133718044Y-70570603D01*
X133731794Y-70571163D01*
X133755442Y-70577500D01*
X133755443Y-70577500D01*
X133887223Y-70577500D01*
X133889750Y-70577603D01*
X133920549Y-70588027D01*
X133951738Y-70597185D01*
X133953451Y-70599162D01*
X133955932Y-70600002D01*
X133976211Y-70625428D01*
X133997493Y-70649989D01*
X133999135Y-70654171D01*
X133999498Y-70654626D01*
X133999562Y-70655259D01*
X134002403Y-70662492D01*
X134030186Y-70746334D01*
X134122288Y-70895656D01*
X134246344Y-71019712D01*
X134395666Y-71111814D01*
X134562203Y-71166999D01*
X134664991Y-71177500D01*
X135290008Y-71177499D01*
X135290016Y-71177498D01*
X135290019Y-71177498D01*
X135346302Y-71171748D01*
X135392797Y-71166999D01*
X135559334Y-71111814D01*
X135708656Y-71019712D01*
X135802319Y-70926049D01*
X135863642Y-70892564D01*
X135933334Y-70897548D01*
X135977681Y-70926049D01*
X136071344Y-71019712D01*
X136220666Y-71111814D01*
X136387203Y-71166999D01*
X136489991Y-71177500D01*
X137115008Y-71177499D01*
X137115016Y-71177498D01*
X137115019Y-71177498D01*
X137171302Y-71171748D01*
X137217797Y-71166999D01*
X137384334Y-71111814D01*
X137533656Y-71019712D01*
X137657712Y-70895656D01*
X137749814Y-70746334D01*
X137804999Y-70579797D01*
X137815500Y-70477009D01*
X137815499Y-69476992D01*
X137813427Y-69456712D01*
X137804999Y-69374203D01*
X137804998Y-69374200D01*
X137797410Y-69351301D01*
X137749814Y-69207666D01*
X137657712Y-69058344D01*
X137533656Y-68934288D01*
X137533655Y-68934287D01*
X137461902Y-68890029D01*
X137415178Y-68838081D01*
X137403000Y-68784491D01*
X137403000Y-68348596D01*
X137422685Y-68281557D01*
X137439315Y-68260919D01*
X137639448Y-68060785D01*
X137639453Y-68060782D01*
X137649656Y-68050578D01*
X137649658Y-68050578D01*
X137761462Y-67938774D01*
X137831932Y-67816716D01*
X137840519Y-67801843D01*
X137881442Y-67649115D01*
X137881442Y-67491001D01*
X137881442Y-67280472D01*
X137901127Y-67213433D01*
X137933609Y-67182467D01*
X137932291Y-67180749D01*
X137967507Y-67153725D01*
X138062091Y-67081149D01*
X138156742Y-66957798D01*
X138216243Y-66814151D01*
X138231442Y-66698701D01*
X138231441Y-65301300D01*
X138231441Y-65301298D01*
X138231441Y-65301296D01*
X138216245Y-65185857D01*
X138216243Y-65185850D01*
X138216243Y-65185849D01*
X138156742Y-65042202D01*
X138062091Y-64918851D01*
X137938740Y-64824200D01*
X137938736Y-64824198D01*
X137795093Y-64764699D01*
X137795091Y-64764698D01*
X137679643Y-64749500D01*
X136882238Y-64749500D01*
X136766799Y-64764696D01*
X136766790Y-64764699D01*
X136623147Y-64824198D01*
X136499793Y-64918851D01*
X136405140Y-65042205D01*
X136345641Y-65185848D01*
X136345640Y-65185850D01*
X136330442Y-65301298D01*
X136330442Y-66698703D01*
X136345638Y-66814142D01*
X136345641Y-66814151D01*
X136405035Y-66957541D01*
X136405142Y-66957798D01*
X136499793Y-67081149D01*
X136623144Y-67175800D01*
X136623147Y-67175801D01*
X136625730Y-67177783D01*
X136666932Y-67234211D01*
X136671087Y-67303957D01*
X136637924Y-67363840D01*
X136321981Y-67679782D01*
X136321980Y-67679784D01*
X136274435Y-67762135D01*
X136242923Y-67816715D01*
X136201999Y-67969443D01*
X136201999Y-67969445D01*
X136201999Y-68137546D01*
X136202000Y-68137559D01*
X136202000Y-68784491D01*
X136201599Y-68785853D01*
X136201970Y-68787225D01*
X136191783Y-68819284D01*
X136182315Y-68851530D01*
X136181103Y-68852897D01*
X136180812Y-68853814D01*
X136177323Y-68857163D01*
X136157116Y-68879972D01*
X136150451Y-68885494D01*
X136071344Y-68934288D01*
X135973579Y-69032052D01*
X135969116Y-69035751D01*
X135942134Y-69047360D01*
X135916358Y-69061436D01*
X135910411Y-69061010D01*
X135904936Y-69063367D01*
X135875964Y-69058547D01*
X135846666Y-69056452D01*
X135840831Y-69052702D01*
X135836014Y-69051901D01*
X135827294Y-69044002D01*
X135802319Y-69027951D01*
X135708657Y-68934289D01*
X135708656Y-68934288D01*
X135578000Y-68853699D01*
X135559336Y-68842187D01*
X135559331Y-68842185D01*
X135546946Y-68838081D01*
X135392797Y-68787001D01*
X135392795Y-68787000D01*
X135290010Y-68776500D01*
X134664998Y-68776500D01*
X134664980Y-68776501D01*
X134562203Y-68787000D01*
X134562200Y-68787001D01*
X134395668Y-68842185D01*
X134395663Y-68842187D01*
X134246342Y-68934289D01*
X134122289Y-69058342D01*
X134030187Y-69207663D01*
X134030185Y-69207668D01*
X134004725Y-69284503D01*
X133990855Y-69304535D01*
X133980733Y-69326701D01*
X133971320Y-69332750D01*
X133964952Y-69341948D01*
X133942454Y-69351301D01*
X133921955Y-69364476D01*
X133904851Y-69366935D01*
X133900436Y-69368771D01*
X133887020Y-69369499D01*
X133748443Y-69369499D01*
X133748439Y-69369499D01*
X133740832Y-69369500D01*
X133740831Y-69369499D01*
X133740831Y-69369500D01*
X131306297Y-69369500D01*
X131239258Y-69349815D01*
X131218616Y-69333181D01*
X130767532Y-68882097D01*
X130734047Y-68820774D01*
X130739031Y-68751082D01*
X130752109Y-68725529D01*
X130833594Y-68603579D01*
X130893937Y-68457897D01*
X130924700Y-68303242D01*
X130924700Y-68145558D01*
X130924700Y-68145555D01*
X130924699Y-68145553D01*
X130893938Y-67990910D01*
X130893937Y-67990903D01*
X130872343Y-67938770D01*
X130833597Y-67845227D01*
X130833590Y-67845214D01*
X130745989Y-67714111D01*
X130745986Y-67714107D01*
X130634492Y-67602613D01*
X130634488Y-67602610D01*
X130503385Y-67515009D01*
X130503372Y-67515002D01*
X130438150Y-67487987D01*
X130383746Y-67444146D01*
X130361681Y-67377852D01*
X130378960Y-67310153D01*
X130430097Y-67262542D01*
X130469419Y-67250487D01*
X130584779Y-67235301D01*
X130728426Y-67175800D01*
X130851777Y-67081149D01*
X130946428Y-66957798D01*
X131005929Y-66814151D01*
X131021128Y-66698701D01*
X131021128Y-66698670D01*
X133030942Y-66698670D01*
X133046127Y-66814019D01*
X133046129Y-66814024D01*
X133105575Y-66957541D01*
X133105575Y-66957542D01*
X133200149Y-67080792D01*
X133323400Y-67175366D01*
X133466917Y-67234812D01*
X133466922Y-67234814D01*
X133582271Y-67250000D01*
X133730942Y-67250000D01*
X134230942Y-67250000D01*
X134379613Y-67250000D01*
X134494961Y-67234814D01*
X134494966Y-67234812D01*
X134638483Y-67175366D01*
X134638484Y-67175366D01*
X134761734Y-67080792D01*
X134856308Y-66957542D01*
X134856308Y-66957541D01*
X134915754Y-66814024D01*
X134915756Y-66814019D01*
X134930942Y-66698670D01*
X134930942Y-66250000D01*
X134230942Y-66250000D01*
X134230942Y-67250000D01*
X133730942Y-67250000D01*
X133730942Y-66250000D01*
X133030942Y-66250000D01*
X133030942Y-66698670D01*
X131021128Y-66698670D01*
X131021127Y-65950095D01*
X131040812Y-65883057D01*
X131057441Y-65862420D01*
X131618532Y-65301329D01*
X133030942Y-65301329D01*
X133030942Y-65750000D01*
X133730942Y-65750000D01*
X134230942Y-65750000D01*
X134930942Y-65750000D01*
X134930942Y-65301329D01*
X134915756Y-65185980D01*
X134915754Y-65185975D01*
X134856308Y-65042458D01*
X134856308Y-65042457D01*
X134761734Y-64919207D01*
X134638483Y-64824633D01*
X134494966Y-64765187D01*
X134494961Y-64765185D01*
X134379613Y-64750000D01*
X134230942Y-64750000D01*
X134230942Y-65750000D01*
X133730942Y-65750000D01*
X133730942Y-64750000D01*
X133582271Y-64750000D01*
X133466922Y-64765185D01*
X133466917Y-64765187D01*
X133323400Y-64824633D01*
X133323399Y-64824633D01*
X133200149Y-64919207D01*
X133105575Y-65042457D01*
X133105575Y-65042458D01*
X133046129Y-65185975D01*
X133046127Y-65185980D01*
X133030942Y-65301329D01*
X131618532Y-65301329D01*
X134339448Y-62580414D01*
X134339453Y-62580410D01*
X134349656Y-62570206D01*
X134349658Y-62570206D01*
X134461462Y-62458402D01*
X134523258Y-62351366D01*
X134573822Y-62303154D01*
X134583170Y-62298817D01*
X134638740Y-62275800D01*
X134762091Y-62181149D01*
X134856742Y-62057798D01*
X134916243Y-61914151D01*
X134931442Y-61798701D01*
X134931441Y-60401300D01*
X134931441Y-60401298D01*
X134931441Y-60401296D01*
X134916245Y-60285857D01*
X134916243Y-60285850D01*
X134916243Y-60285849D01*
X134856742Y-60142202D01*
X134762091Y-60018851D01*
X134638740Y-59924200D01*
X134638736Y-59924198D01*
X134495093Y-59864699D01*
X134495091Y-59864698D01*
X134379643Y-59849500D01*
X133582238Y-59849500D01*
X133466799Y-59864696D01*
X133466790Y-59864699D01*
X133323147Y-59924198D01*
X133323144Y-59924199D01*
X133323144Y-59924200D01*
X133199793Y-60018851D01*
X133118416Y-60124904D01*
X133105140Y-60142205D01*
X133045641Y-60285848D01*
X133045640Y-60285850D01*
X133030442Y-60401298D01*
X133030442Y-61798703D01*
X133045638Y-61914142D01*
X133045641Y-61914151D01*
X133090555Y-62022582D01*
X133098024Y-62092052D01*
X133066749Y-62154531D01*
X133063675Y-62157716D01*
X130508210Y-64713181D01*
X130446887Y-64746666D01*
X130420529Y-64749500D01*
X129671924Y-64749500D01*
X129556485Y-64764696D01*
X129556476Y-64764699D01*
X129412833Y-64824198D01*
X129289479Y-64918851D01*
X129194826Y-65042205D01*
X129135327Y-65185848D01*
X129135326Y-65185850D01*
X129120128Y-65301298D01*
X127720624Y-65301298D01*
X127705442Y-65185980D01*
X127705440Y-65185975D01*
X127645994Y-65042458D01*
X127645994Y-65042457D01*
X127551420Y-64919207D01*
X127428169Y-64824633D01*
X127284652Y-64765187D01*
X127284647Y-64765185D01*
X127169299Y-64750000D01*
X127020628Y-64750000D01*
X127020628Y-65750000D01*
X126520628Y-65750000D01*
X126520628Y-64750000D01*
X126371957Y-64750000D01*
X126256608Y-64765185D01*
X126256603Y-64765187D01*
X126113086Y-64824633D01*
X126113085Y-64824633D01*
X125989835Y-64919207D01*
X125895261Y-65042457D01*
X125895261Y-65042458D01*
X125835815Y-65185975D01*
X125835813Y-65185980D01*
X125820628Y-65301329D01*
X124408218Y-65301329D01*
X127129134Y-62580414D01*
X127129139Y-62580410D01*
X127139342Y-62570206D01*
X127139344Y-62570206D01*
X127251148Y-62458402D01*
X127312944Y-62351366D01*
X127363508Y-62303154D01*
X127372856Y-62298817D01*
X127428426Y-62275800D01*
X127551777Y-62181149D01*
X127646428Y-62057798D01*
X127705929Y-61914151D01*
X127721128Y-61798701D01*
X127721127Y-60401300D01*
X127721127Y-60401298D01*
X127721127Y-60401296D01*
X127705931Y-60285857D01*
X127705929Y-60285850D01*
X127705929Y-60285849D01*
X127646428Y-60142202D01*
X127551777Y-60018851D01*
X127428426Y-59924200D01*
X127428422Y-59924198D01*
X127284779Y-59864699D01*
X127284777Y-59864698D01*
X127169329Y-59849500D01*
X126371924Y-59849500D01*
X126256485Y-59864696D01*
X126256476Y-59864699D01*
X126112833Y-59924198D01*
X126112830Y-59924199D01*
X126112830Y-59924200D01*
X125989479Y-60018851D01*
X125908102Y-60124904D01*
X125894826Y-60142205D01*
X125835327Y-60285848D01*
X125835326Y-60285850D01*
X125820128Y-60401298D01*
X125820128Y-61798703D01*
X125835324Y-61914142D01*
X125835327Y-61914151D01*
X125880241Y-62022582D01*
X125887710Y-62092052D01*
X125856435Y-62154531D01*
X125853361Y-62157716D01*
X123297896Y-64713181D01*
X123236573Y-64746666D01*
X123210215Y-64749500D01*
X122461610Y-64749500D01*
X122346171Y-64764696D01*
X122346162Y-64764699D01*
X122202519Y-64824198D01*
X122079165Y-64918851D01*
X121984512Y-65042205D01*
X121925013Y-65185848D01*
X121925012Y-65185850D01*
X121909814Y-65301298D01*
X120510310Y-65301298D01*
X120495128Y-65185980D01*
X120495126Y-65185975D01*
X120435680Y-65042458D01*
X120435680Y-65042457D01*
X120341106Y-64919207D01*
X120217855Y-64824633D01*
X120074338Y-64765187D01*
X120074333Y-64765185D01*
X119958985Y-64750000D01*
X119810314Y-64750000D01*
X119810314Y-65750000D01*
X119310314Y-65750000D01*
X119310314Y-64750000D01*
X119161643Y-64750000D01*
X119046294Y-64765185D01*
X119046289Y-64765187D01*
X118902772Y-64824633D01*
X118902771Y-64824633D01*
X118779521Y-64919207D01*
X118684947Y-65042457D01*
X118684947Y-65042458D01*
X118625501Y-65185975D01*
X118625499Y-65185980D01*
X118610314Y-65301329D01*
X117197904Y-65301329D01*
X119918820Y-62580414D01*
X119918825Y-62580410D01*
X119929028Y-62570206D01*
X119929030Y-62570206D01*
X120040834Y-62458402D01*
X120102630Y-62351366D01*
X120153194Y-62303154D01*
X120162542Y-62298817D01*
X120218112Y-62275800D01*
X120341463Y-62181149D01*
X120436114Y-62057798D01*
X120495615Y-61914151D01*
X120510814Y-61798701D01*
X120510813Y-60401300D01*
X120510813Y-60401298D01*
X120510813Y-60401296D01*
X120495617Y-60285857D01*
X120495615Y-60285850D01*
X120495615Y-60285849D01*
X120436114Y-60142202D01*
X120341463Y-60018851D01*
X120218112Y-59924200D01*
X120218108Y-59924198D01*
X120074465Y-59864699D01*
X120074463Y-59864698D01*
X119959015Y-59849500D01*
X119161610Y-59849500D01*
X119046171Y-59864696D01*
X119046162Y-59864699D01*
X118902519Y-59924198D01*
X118902516Y-59924199D01*
X118902516Y-59924200D01*
X118779165Y-60018851D01*
X118697788Y-60124904D01*
X118684512Y-60142205D01*
X118625013Y-60285848D01*
X118625012Y-60285850D01*
X118609814Y-60401298D01*
X118609814Y-61798703D01*
X118625010Y-61914142D01*
X118625013Y-61914151D01*
X118669927Y-62022582D01*
X118677396Y-62092052D01*
X118646121Y-62154531D01*
X118643047Y-62157716D01*
X116087582Y-64713181D01*
X116026259Y-64746666D01*
X115999901Y-64749500D01*
X115251296Y-64749500D01*
X115135857Y-64764696D01*
X115135848Y-64764699D01*
X114992205Y-64824198D01*
X114868851Y-64918851D01*
X114774198Y-65042205D01*
X114714699Y-65185848D01*
X114714698Y-65185850D01*
X114699500Y-65301298D01*
X113299996Y-65301298D01*
X113284814Y-65185980D01*
X113284812Y-65185975D01*
X113225366Y-65042458D01*
X113225366Y-65042457D01*
X113130792Y-64919207D01*
X113007541Y-64824633D01*
X112864024Y-64765187D01*
X112864019Y-64765185D01*
X112748671Y-64750000D01*
X112600000Y-64750000D01*
X112600000Y-65750000D01*
X112100000Y-65750000D01*
X112100000Y-64750000D01*
X111951329Y-64750000D01*
X111835980Y-64765185D01*
X111835975Y-64765187D01*
X111692458Y-64824633D01*
X111692457Y-64824633D01*
X111569207Y-64919207D01*
X111474633Y-65042457D01*
X111474633Y-65042458D01*
X111415187Y-65185975D01*
X111415185Y-65185980D01*
X111400000Y-65301329D01*
X109987590Y-65301329D01*
X112708506Y-62580414D01*
X112708511Y-62580410D01*
X112718714Y-62570206D01*
X112718716Y-62570206D01*
X112830520Y-62458402D01*
X112892316Y-62351366D01*
X112942880Y-62303154D01*
X112952228Y-62298817D01*
X113007798Y-62275800D01*
X113131149Y-62181149D01*
X113225800Y-62057798D01*
X113285301Y-61914151D01*
X113300500Y-61798701D01*
X113300499Y-60401300D01*
X113300499Y-60401298D01*
X114699500Y-60401298D01*
X114699500Y-61798703D01*
X114714696Y-61914142D01*
X114714699Y-61914150D01*
X114714699Y-61914151D01*
X114774200Y-62057798D01*
X114868851Y-62181149D01*
X114992202Y-62275800D01*
X115135849Y-62335301D01*
X115251299Y-62350500D01*
X116048700Y-62350499D01*
X116048703Y-62350499D01*
X116164142Y-62335303D01*
X116164146Y-62335301D01*
X116164151Y-62335301D01*
X116307798Y-62275800D01*
X116431149Y-62181149D01*
X116525800Y-62057798D01*
X116585301Y-61914151D01*
X116600500Y-61798701D01*
X116600499Y-61178082D01*
X116620183Y-61111044D01*
X116636813Y-61090407D01*
X119027735Y-58699486D01*
X119076891Y-58625917D01*
X119114893Y-58589272D01*
X119209656Y-58530823D01*
X119333712Y-58406767D01*
X119425814Y-58257445D01*
X119480999Y-58090908D01*
X119491500Y-57988120D01*
X119491500Y-57988097D01*
X121834334Y-57988097D01*
X121844827Y-58090808D01*
X121899974Y-58257230D01*
X121899976Y-58257235D01*
X121992017Y-58406456D01*
X122115987Y-58530426D01*
X122265208Y-58622467D01*
X122265213Y-58622469D01*
X122431635Y-58677616D01*
X122431642Y-58677617D01*
X122534352Y-58688110D01*
X122584332Y-58688109D01*
X122584333Y-58688109D01*
X122584333Y-57713111D01*
X121834334Y-57713111D01*
X121834334Y-57988097D01*
X119491500Y-57988097D01*
X119491499Y-57491193D01*
X119511184Y-57424155D01*
X119527813Y-57403518D01*
X120038403Y-56892930D01*
X120099726Y-56859445D01*
X120126084Y-56856611D01*
X121710333Y-56856611D01*
X121777372Y-56876296D01*
X121823127Y-56929100D01*
X121834333Y-56980611D01*
X121834333Y-57213111D01*
X122710333Y-57213111D01*
X122777372Y-57232796D01*
X122823127Y-57285600D01*
X122834333Y-57337111D01*
X122834333Y-57463111D01*
X122960333Y-57463111D01*
X123027372Y-57482796D01*
X123073127Y-57535600D01*
X123084333Y-57587111D01*
X123084333Y-58688110D01*
X123134305Y-58688110D01*
X123134319Y-58688109D01*
X123237030Y-58677616D01*
X123403452Y-58622469D01*
X123403457Y-58622467D01*
X123552678Y-58530426D01*
X123676651Y-58406453D01*
X123678498Y-58403459D01*
X123680302Y-58401835D01*
X123681131Y-58400788D01*
X123681309Y-58400929D01*
X123730443Y-58356732D01*
X123799406Y-58345507D01*
X123863489Y-58373347D01*
X123873600Y-58382791D01*
X123882683Y-58392277D01*
X123891621Y-58406767D01*
X124007968Y-58523114D01*
X124008894Y-58524081D01*
X124024379Y-58553962D01*
X124040499Y-58583483D01*
X124040713Y-58585481D01*
X124041042Y-58586115D01*
X124040921Y-58587409D01*
X124043333Y-58609841D01*
X124043333Y-58888396D01*
X124023648Y-58955435D01*
X124007014Y-58976077D01*
X123169909Y-59813181D01*
X123108586Y-59846666D01*
X123082228Y-59849500D01*
X122461610Y-59849500D01*
X122346171Y-59864696D01*
X122346162Y-59864699D01*
X122202519Y-59924198D01*
X122202516Y-59924199D01*
X122202516Y-59924200D01*
X122079165Y-60018851D01*
X121997788Y-60124904D01*
X121984512Y-60142205D01*
X121925013Y-60285848D01*
X121925012Y-60285850D01*
X121909814Y-60401298D01*
X121909814Y-61798703D01*
X121925010Y-61914142D01*
X121925013Y-61914150D01*
X121925013Y-61914151D01*
X121984514Y-62057798D01*
X122079165Y-62181149D01*
X122202516Y-62275800D01*
X122346163Y-62335301D01*
X122461613Y-62350500D01*
X123259014Y-62350499D01*
X123259017Y-62350499D01*
X123374456Y-62335303D01*
X123374460Y-62335301D01*
X123374465Y-62335301D01*
X123518112Y-62275800D01*
X123641463Y-62181149D01*
X123736114Y-62057798D01*
X123795615Y-61914151D01*
X123810814Y-61798701D01*
X123810813Y-61178082D01*
X123830497Y-61111044D01*
X123847127Y-61090407D01*
X125271068Y-59666468D01*
X125346689Y-59553292D01*
X125398778Y-59427538D01*
X125419183Y-59324956D01*
X125425333Y-59294039D01*
X125425333Y-58609841D01*
X125445018Y-58542802D01*
X125461652Y-58522160D01*
X125518753Y-58465059D01*
X125577045Y-58406767D01*
X125669147Y-58257445D01*
X125724332Y-58090908D01*
X125734833Y-57988120D01*
X125734833Y-57988097D01*
X128077668Y-57988097D01*
X128088161Y-58090808D01*
X128143308Y-58257230D01*
X128143310Y-58257235D01*
X128235351Y-58406456D01*
X128359321Y-58530426D01*
X128508542Y-58622467D01*
X128508547Y-58622469D01*
X128674969Y-58677616D01*
X128674976Y-58677617D01*
X128777686Y-58688110D01*
X128827666Y-58688109D01*
X128827667Y-58688109D01*
X128827667Y-57713111D01*
X128077668Y-57713111D01*
X128077668Y-57988097D01*
X125734833Y-57988097D01*
X125734832Y-57491193D01*
X125754517Y-57424155D01*
X125771146Y-57403518D01*
X126281736Y-56892930D01*
X126343059Y-56859445D01*
X126369417Y-56856611D01*
X127953667Y-56856611D01*
X128020706Y-56876296D01*
X128066461Y-56929100D01*
X128077667Y-56980611D01*
X128077667Y-57213111D01*
X128953667Y-57213111D01*
X129020706Y-57232796D01*
X129066461Y-57285600D01*
X129077667Y-57337111D01*
X129077667Y-57463111D01*
X129203667Y-57463111D01*
X129270706Y-57482796D01*
X129316461Y-57535600D01*
X129327667Y-57587111D01*
X129327667Y-58688110D01*
X129377639Y-58688110D01*
X129377653Y-58688109D01*
X129480364Y-58677616D01*
X129646786Y-58622469D01*
X129646791Y-58622467D01*
X129796012Y-58530426D01*
X129919985Y-58406453D01*
X129921832Y-58403459D01*
X129923636Y-58401835D01*
X129924465Y-58400788D01*
X129924643Y-58400929D01*
X129973777Y-58356732D01*
X130042740Y-58345507D01*
X130106823Y-58373347D01*
X130116934Y-58382791D01*
X130126017Y-58392277D01*
X130134955Y-58406767D01*
X130251302Y-58523114D01*
X130252228Y-58524081D01*
X130267713Y-58553962D01*
X130283833Y-58583483D01*
X130284047Y-58585481D01*
X130284376Y-58586115D01*
X130284255Y-58587409D01*
X130286667Y-58609841D01*
X130286667Y-59725500D01*
X130266982Y-59792539D01*
X130214178Y-59838294D01*
X130162667Y-59849500D01*
X129671924Y-59849500D01*
X129556485Y-59864696D01*
X129556476Y-59864699D01*
X129412833Y-59924198D01*
X129412830Y-59924199D01*
X129412830Y-59924200D01*
X129289479Y-60018851D01*
X129208102Y-60124904D01*
X129194826Y-60142205D01*
X129135327Y-60285848D01*
X129135326Y-60285850D01*
X129120128Y-60401298D01*
X129120128Y-61798703D01*
X129135324Y-61914142D01*
X129135327Y-61914150D01*
X129135327Y-61914151D01*
X129194828Y-62057798D01*
X129289479Y-62181149D01*
X129412830Y-62275800D01*
X129556477Y-62335301D01*
X129671927Y-62350500D01*
X130469328Y-62350499D01*
X130469331Y-62350499D01*
X130584770Y-62335303D01*
X130584774Y-62335301D01*
X130584779Y-62335301D01*
X130728426Y-62275800D01*
X130851777Y-62181149D01*
X130946428Y-62057798D01*
X131005929Y-61914151D01*
X131021128Y-61798701D01*
X131021127Y-61178082D01*
X131040811Y-61111044D01*
X131057446Y-61090402D01*
X131274974Y-60872875D01*
X131514402Y-60633447D01*
X131590023Y-60520272D01*
X131642112Y-60394518D01*
X131668667Y-60261018D01*
X131668667Y-60124904D01*
X131668667Y-58609841D01*
X131688352Y-58542802D01*
X131704986Y-58522160D01*
X131762087Y-58465059D01*
X131820379Y-58406767D01*
X131912481Y-58257445D01*
X131967666Y-58090908D01*
X131978167Y-57988120D01*
X131978167Y-57988097D01*
X134321001Y-57988097D01*
X134331494Y-58090808D01*
X134386641Y-58257230D01*
X134386643Y-58257235D01*
X134478684Y-58406456D01*
X134602654Y-58530426D01*
X134751875Y-58622467D01*
X134751880Y-58622469D01*
X134918302Y-58677616D01*
X134918309Y-58677617D01*
X135021019Y-58688110D01*
X135070999Y-58688109D01*
X135071000Y-58688109D01*
X135071000Y-57713111D01*
X134321001Y-57713111D01*
X134321001Y-57988097D01*
X131978167Y-57988097D01*
X131978166Y-57491193D01*
X131997851Y-57424155D01*
X132014480Y-57403518D01*
X132525070Y-56892930D01*
X132586393Y-56859445D01*
X132612751Y-56856611D01*
X134197000Y-56856611D01*
X134264039Y-56876296D01*
X134309794Y-56929100D01*
X134321000Y-56980611D01*
X134321000Y-57213111D01*
X135197000Y-57213111D01*
X135264039Y-57232796D01*
X135309794Y-57285600D01*
X135321000Y-57337111D01*
X135321000Y-57463111D01*
X135447000Y-57463111D01*
X135514039Y-57482796D01*
X135559794Y-57535600D01*
X135571000Y-57587111D01*
X135571000Y-58688110D01*
X135620972Y-58688110D01*
X135620986Y-58688109D01*
X135723697Y-58677616D01*
X135890119Y-58622469D01*
X135890124Y-58622467D01*
X136039345Y-58530426D01*
X136163318Y-58406453D01*
X136165165Y-58403459D01*
X136166969Y-58401835D01*
X136167798Y-58400788D01*
X136167976Y-58400929D01*
X136217110Y-58356732D01*
X136286073Y-58345507D01*
X136350156Y-58373347D01*
X136376243Y-58403452D01*
X136378287Y-58406765D01*
X136378289Y-58406768D01*
X136502345Y-58530824D01*
X136531036Y-58548520D01*
X136577762Y-58600467D01*
X136589942Y-58654060D01*
X136589942Y-59888526D01*
X136570257Y-59955565D01*
X136541430Y-59986901D01*
X136499795Y-60018848D01*
X136499793Y-60018851D01*
X136418416Y-60124904D01*
X136405140Y-60142205D01*
X136345641Y-60285848D01*
X136345640Y-60285850D01*
X136330442Y-60401298D01*
X136330442Y-61798703D01*
X136345638Y-61914142D01*
X136345641Y-61914150D01*
X136345641Y-61914151D01*
X136405142Y-62057798D01*
X136499793Y-62181149D01*
X136623144Y-62275800D01*
X136766791Y-62335301D01*
X136882241Y-62350500D01*
X137679642Y-62350499D01*
X137679645Y-62350499D01*
X137795084Y-62335303D01*
X137795088Y-62335301D01*
X137795093Y-62335301D01*
X137938740Y-62275800D01*
X138062091Y-62181149D01*
X138156742Y-62057798D01*
X138216243Y-61914151D01*
X138231442Y-61798701D01*
X138231441Y-60401300D01*
X138231441Y-60401298D01*
X138231441Y-60401296D01*
X138216245Y-60285857D01*
X138216243Y-60285850D01*
X138216243Y-60285849D01*
X138156742Y-60142202D01*
X138062091Y-60018851D01*
X138062089Y-60018849D01*
X138062088Y-60018848D01*
X138020454Y-59986901D01*
X137979252Y-59930473D01*
X137971942Y-59888526D01*
X137971942Y-58549899D01*
X137991627Y-58482860D01*
X138008261Y-58462218D01*
X138027612Y-58442867D01*
X138063712Y-58406767D01*
X138155814Y-58257445D01*
X138210999Y-58090908D01*
X138221500Y-57988120D01*
X138221499Y-56938103D01*
X138220579Y-56929100D01*
X138210999Y-56835314D01*
X138210998Y-56835311D01*
X138209928Y-56832081D01*
X138155814Y-56668777D01*
X138063712Y-56519455D01*
X137939656Y-56395399D01*
X137790334Y-56303297D01*
X137790332Y-56303296D01*
X137790330Y-56303295D01*
X137783789Y-56300245D01*
X137784367Y-56299004D01*
X137743806Y-56273984D01*
X137124507Y-55654684D01*
X137091022Y-55593361D01*
X137090571Y-55591194D01*
X137083024Y-55553253D01*
X137078837Y-55532203D01*
X137044799Y-55450027D01*
X137018497Y-55386527D01*
X137018490Y-55386514D01*
X136930889Y-55255411D01*
X136930886Y-55255407D01*
X136819392Y-55143913D01*
X136819388Y-55143910D01*
X136688285Y-55056309D01*
X136688272Y-55056302D01*
X136542601Y-54995964D01*
X136542589Y-54995961D01*
X136387945Y-54965200D01*
X136387942Y-54965200D01*
X136230258Y-54965200D01*
X136230255Y-54965200D01*
X136075610Y-54995961D01*
X136075598Y-54995964D01*
X135929927Y-55056302D01*
X135929914Y-55056309D01*
X135798811Y-55143910D01*
X135798807Y-55143913D01*
X135687313Y-55255407D01*
X135687310Y-55255411D01*
X135599709Y-55386514D01*
X135599704Y-55386524D01*
X135594926Y-55398061D01*
X135551086Y-55452466D01*
X135484793Y-55474532D01*
X135480364Y-55474611D01*
X132207107Y-55474611D01*
X132073615Y-55501164D01*
X132073605Y-55501167D01*
X131947857Y-55553253D01*
X131947854Y-55553255D01*
X131834681Y-55628874D01*
X131834674Y-55628880D01*
X131262263Y-56201292D01*
X131200940Y-56234777D01*
X131174582Y-56237611D01*
X130780751Y-56237611D01*
X130713712Y-56217926D01*
X130693070Y-56201292D01*
X130120659Y-55628880D01*
X130120652Y-55628874D01*
X130007479Y-55553255D01*
X130007476Y-55553253D01*
X129881728Y-55501167D01*
X129881718Y-55501164D01*
X129748227Y-55474611D01*
X129748225Y-55474611D01*
X125963775Y-55474611D01*
X125963773Y-55474611D01*
X125830281Y-55501164D01*
X125830271Y-55501167D01*
X125704523Y-55553253D01*
X125704520Y-55553255D01*
X125591347Y-55628874D01*
X125591340Y-55628880D01*
X125018929Y-56201292D01*
X124957606Y-56234777D01*
X124931248Y-56237611D01*
X124537417Y-56237611D01*
X124470378Y-56217926D01*
X124449736Y-56201292D01*
X123877325Y-55628880D01*
X123877318Y-55628874D01*
X123764145Y-55553255D01*
X123764142Y-55553253D01*
X123638394Y-55501167D01*
X123638384Y-55501164D01*
X123504893Y-55474611D01*
X123504891Y-55474611D01*
X119720442Y-55474611D01*
X119720440Y-55474611D01*
X119586948Y-55501164D01*
X119586938Y-55501167D01*
X119461190Y-55553253D01*
X119461187Y-55553255D01*
X119348014Y-55628874D01*
X119348007Y-55628880D01*
X118775596Y-56201292D01*
X118748668Y-56215995D01*
X118722850Y-56232588D01*
X118716649Y-56233479D01*
X118714273Y-56234777D01*
X118687915Y-56237611D01*
X118632595Y-56237611D01*
X118565556Y-56217926D01*
X118544914Y-56201292D01*
X117890092Y-55546469D01*
X117890085Y-55546463D01*
X117776912Y-55470844D01*
X117776909Y-55470842D01*
X117651161Y-55418756D01*
X117651157Y-55418755D01*
X117629922Y-55414531D01*
X117517660Y-55392200D01*
X117517658Y-55392200D01*
X116496923Y-55392200D01*
X116438090Y-55374924D01*
X116437153Y-55376679D01*
X116431781Y-55373807D01*
X116431779Y-55373806D01*
X116431776Y-55373805D01*
X116431771Y-55373802D01*
X116286101Y-55313464D01*
X116286089Y-55313461D01*
X116131445Y-55282700D01*
X116131442Y-55282700D01*
X115973758Y-55282700D01*
X115973755Y-55282700D01*
X115819110Y-55313461D01*
X115819098Y-55313464D01*
X115673427Y-55373802D01*
X115673414Y-55373809D01*
X115542311Y-55461410D01*
X115542307Y-55461413D01*
X115430813Y-55572907D01*
X115430810Y-55572911D01*
X115343209Y-55704014D01*
X115343202Y-55704027D01*
X115282864Y-55849698D01*
X115282861Y-55849710D01*
X115252100Y-56004353D01*
X115252100Y-56162046D01*
X115282861Y-56316689D01*
X115282864Y-56316701D01*
X115343202Y-56462372D01*
X115343209Y-56462385D01*
X115430810Y-56593488D01*
X115430813Y-56593492D01*
X115542309Y-56704988D01*
X115548531Y-56709145D01*
X115593338Y-56762756D01*
X115601612Y-56828622D01*
X115602182Y-56828681D01*
X115601929Y-56831148D01*
X115602047Y-56832081D01*
X115601581Y-56834557D01*
X115591000Y-56938124D01*
X115591000Y-57213111D01*
X116467000Y-57213111D01*
X116534039Y-57232796D01*
X116579794Y-57285600D01*
X116591000Y-57337111D01*
X116591000Y-57463111D01*
X116717000Y-57463111D01*
X116784039Y-57482796D01*
X116829794Y-57535600D01*
X116841000Y-57587111D01*
X116841000Y-58688110D01*
X116875152Y-58722262D01*
X116908637Y-58783585D01*
X116903653Y-58853277D01*
X116875152Y-58897624D01*
X115959596Y-59813181D01*
X115898273Y-59846666D01*
X115871915Y-59849500D01*
X115251296Y-59849500D01*
X115135857Y-59864696D01*
X115135848Y-59864699D01*
X114992205Y-59924198D01*
X114992202Y-59924199D01*
X114992202Y-59924200D01*
X114868851Y-60018851D01*
X114787474Y-60124904D01*
X114774198Y-60142205D01*
X114714699Y-60285848D01*
X114714698Y-60285850D01*
X114699500Y-60401298D01*
X113300499Y-60401298D01*
X113300499Y-60401296D01*
X113285303Y-60285857D01*
X113285301Y-60285850D01*
X113285301Y-60285849D01*
X113225800Y-60142202D01*
X113131149Y-60018851D01*
X113007798Y-59924200D01*
X113007794Y-59924198D01*
X112921674Y-59888526D01*
X112864151Y-59864699D01*
X112837731Y-59861220D01*
X112759718Y-59850950D01*
X112695822Y-59822683D01*
X112657351Y-59764359D01*
X112656520Y-59694494D01*
X112693592Y-59635271D01*
X112748310Y-59607121D01*
X113016772Y-59545846D01*
X113303065Y-59445668D01*
X113576341Y-59314065D01*
X113833164Y-59152692D01*
X114070304Y-58963579D01*
X114284779Y-58749104D01*
X114473892Y-58511964D01*
X114635265Y-58255141D01*
X114763867Y-57988097D01*
X115591001Y-57988097D01*
X115601494Y-58090808D01*
X115656641Y-58257230D01*
X115656643Y-58257235D01*
X115748684Y-58406456D01*
X115872654Y-58530426D01*
X116021875Y-58622467D01*
X116021880Y-58622469D01*
X116188302Y-58677616D01*
X116188309Y-58677617D01*
X116291019Y-58688110D01*
X116340999Y-58688109D01*
X116341000Y-58688109D01*
X116341000Y-57713111D01*
X115591001Y-57713111D01*
X115591001Y-57988097D01*
X114763867Y-57988097D01*
X114766868Y-57981865D01*
X114867046Y-57695572D01*
X114934540Y-57399863D01*
X114940391Y-57347939D01*
X114968499Y-57098463D01*
X114968500Y-57098459D01*
X114968500Y-56795140D01*
X114968499Y-56795136D01*
X114966459Y-56777034D01*
X114941202Y-56552866D01*
X114934542Y-56493751D01*
X114934541Y-56493746D01*
X114934540Y-56493737D01*
X114867046Y-56198028D01*
X114847873Y-56143236D01*
X114799276Y-56004353D01*
X114766868Y-55911735D01*
X114635265Y-55638459D01*
X114473892Y-55381636D01*
X114284779Y-55144496D01*
X114070304Y-54930021D01*
X113833164Y-54740908D01*
X113576341Y-54579535D01*
X113576338Y-54579533D01*
X113303068Y-54447933D01*
X113016783Y-54347757D01*
X113016771Y-54347753D01*
X112792219Y-54296501D01*
X112731241Y-54262392D01*
X112698383Y-54200731D01*
X112704078Y-54131094D01*
X112746518Y-54075590D01*
X112812228Y-54051842D01*
X112819799Y-54051610D01*
X134667138Y-54050500D01*
X134672859Y-54050631D01*
G37*
%TD.AperFunction*%
%TD*%
M02*
