%TF.GenerationSoftware,KiCad,Pcbnew,8.0.6*%
%TF.CreationDate,2025-02-09T14:24:31+00:00*%
%TF.ProjectId,disturbance-free-calling,64697374-7572-4626-916e-63652d667265,rev?*%
%TF.SameCoordinates,Original*%
%TF.FileFunction,Legend,Bot*%
%TF.FilePolarity,Positive*%
%FSLAX46Y46*%
G04 Gerber Fmt 4.6, Leading zero omitted, Abs format (unit mm)*
G04 Created by KiCad (PCBNEW 8.0.6) date 2025-02-09 14:24:31*
%MOMM*%
%LPD*%
G01*
G04 APERTURE LIST*
%ADD10C,0.150000*%
%ADD11C,0.127000*%
G04 APERTURE END LIST*
D10*
X139476533Y-59132166D02*
X140043200Y-59132166D01*
X140043200Y-59132166D02*
X140109866Y-59165500D01*
X140109866Y-59165500D02*
X140143200Y-59198833D01*
X140143200Y-59198833D02*
X140176533Y-59265500D01*
X140176533Y-59265500D02*
X140176533Y-59398833D01*
X140176533Y-59398833D02*
X140143200Y-59465500D01*
X140143200Y-59465500D02*
X140109866Y-59498833D01*
X140109866Y-59498833D02*
X140043200Y-59532166D01*
X140043200Y-59532166D02*
X139476533Y-59532166D01*
X140176533Y-60232166D02*
X140176533Y-59832166D01*
X140176533Y-60032166D02*
X139476533Y-60032166D01*
X139476533Y-60032166D02*
X139576533Y-59965499D01*
X139576533Y-59965499D02*
X139643200Y-59898833D01*
X139643200Y-59898833D02*
X139676533Y-59832166D01*
D11*
%TO.C,U1*%
X118080000Y-51200000D02*
X118080000Y-69000000D01*
X118080000Y-69000000D02*
X138408500Y-69000000D01*
X133152000Y-55605000D02*
X140504000Y-55605000D01*
X133152000Y-64604000D02*
X133152000Y-55605000D01*
X138408500Y-69000000D02*
X139080000Y-68328459D01*
X139080000Y-51200000D02*
X118080000Y-51200000D01*
X139080000Y-68328459D02*
X139080000Y-51200000D01*
X140504000Y-55605000D02*
X140504000Y-64600000D01*
X140505000Y-64604000D02*
X133152000Y-64604000D01*
%TD*%
M02*
