%TF.GenerationSoftware,KiCad,Pcbnew,8.0.6*%
%TF.CreationDate,2025-07-08T21:52:46+01:00*%
%TF.ProjectId,disturbance-free-calling,64697374-7572-4626-916e-63652d667265,0.1*%
%TF.SameCoordinates,Original*%
%TF.FileFunction,Copper,L2,Bot*%
%TF.FilePolarity,Positive*%
%FSLAX46Y46*%
G04 Gerber Fmt 4.6, Leading zero omitted, Abs format (unit mm)*
G04 Created by KiCad (PCBNEW 8.0.6) date 2025-07-08 21:52:46*
%MOMM*%
%LPD*%
G01*
G04 APERTURE LIST*
G04 Aperture macros list*
%AMRoundRect*
0 Rectangle with rounded corners*
0 $1 Rounding radius*
0 $2 $3 $4 $5 $6 $7 $8 $9 X,Y pos of 4 corners*
0 Add a 4 corners polygon primitive as box body*
4,1,4,$2,$3,$4,$5,$6,$7,$8,$9,$2,$3,0*
0 Add four circle primitives for the rounded corners*
1,1,$1+$1,$2,$3*
1,1,$1+$1,$4,$5*
1,1,$1+$1,$6,$7*
1,1,$1+$1,$8,$9*
0 Add four rect primitives between the rounded corners*
20,1,$1+$1,$2,$3,$4,$5,0*
20,1,$1+$1,$4,$5,$6,$7,0*
20,1,$1+$1,$6,$7,$8,$9,0*
20,1,$1+$1,$8,$9,$2,$3,0*%
G04 Aperture macros list end*
%TA.AperFunction,SMDPad,CuDef*%
%ADD10RoundRect,1.000000X0.000010X-0.375000X0.000010X0.375000X-0.000010X0.375000X-0.000010X-0.375000X0*%
%TD*%
%TA.AperFunction,ViaPad*%
%ADD11C,0.600000*%
%TD*%
%TA.AperFunction,Conductor*%
%ADD12C,0.254000*%
%TD*%
%TA.AperFunction,Conductor*%
%ADD13C,0.381000*%
%TD*%
%TA.AperFunction,Conductor*%
%ADD14C,0.200000*%
%TD*%
G04 APERTURE END LIST*
D10*
%TO.P,U1,1,PA02_A0_D0*%
%TO.N,unconnected-(U1-PA02_A0_D0-Pad1)*%
X135976942Y-70693500D03*
%TO.P,U1,2,PA4_A1_D1*%
%TO.N,unconnected-(U1-PA4_A1_D1-Pad2)*%
X133436942Y-70693500D03*
%TO.P,U1,3,PA10_A2_D2*%
%TO.N,unconnected-(U1-PA10_A2_D2-Pad3)*%
X130896942Y-70693500D03*
%TO.P,U1,4,PA11_A3_D3*%
%TO.N,unconnected-(U1-PA11_A3_D3-Pad4)*%
X128356942Y-70693500D03*
%TO.P,U1,5,PA8_A4_D4_SDA*%
%TO.N,unconnected-(U1-PA8_A4_D4_SDA-Pad5)*%
X125816942Y-70693500D03*
%TO.P,U1,6,PA9_A5_D5_SCL*%
%TO.N,unconnected-(U1-PA9_A5_D5_SCL-Pad6)*%
X123276942Y-70693500D03*
%TO.P,U1,7,PB08_A6_D6_TX*%
%TO.N,unconnected-(U1-PB08_A6_D6_TX-Pad7)*%
X120736942Y-70693500D03*
%TO.P,U1,8,PB09_A7_D7_RX*%
%TO.N,unconnected-(U1-PB09_A7_D7_RX-Pad8)*%
X120736942Y-54528500D03*
%TO.P,U1,9,PA7_A8_D8_SCK*%
%TO.N,unconnected-(U1-PA7_A8_D8_SCK-Pad9)*%
X123276942Y-54528500D03*
%TO.P,U1,10,PA5_A9_D9_MISO*%
%TO.N,unconnected-(U1-PA5_A9_D9_MISO-Pad10)*%
X125816942Y-54528500D03*
%TO.P,U1,11,PA6_A10_D10_MOSI*%
%TO.N,Net-(U1-PA6_A10_D10_MOSI)*%
X128356942Y-54528500D03*
%TO.P,U1,12,3V3*%
%TO.N,unconnected-(U1-3V3-Pad12)*%
X130896942Y-54528500D03*
%TO.P,U1,13,GND*%
%TO.N,GND*%
X133436942Y-54528500D03*
%TO.P,U1,14,5V*%
%TO.N,+5V*%
X135976942Y-54528500D03*
%TD*%
D11*
%TO.N,+5V*%
X135976942Y-56613000D03*
%TO.N,GND*%
X131475942Y-58027500D03*
%TO.N,Net-(U1-PA6_A10_D10_MOSI)*%
X131909025Y-67870973D03*
%TD*%
D12*
%TO.N,+5V*%
X136076000Y-54627558D02*
X135976942Y-54528500D01*
D13*
X135976942Y-54528500D02*
X135976942Y-56528500D01*
D12*
X135976942Y-56528500D02*
X135976942Y-56613000D01*
D13*
%TO.N,GND*%
X131475942Y-56489500D02*
X133436942Y-54528500D01*
X133436942Y-54646500D02*
X133436942Y-54528500D01*
D12*
X133436942Y-54528500D02*
X133436942Y-54723500D01*
X133436942Y-55130058D02*
X133436942Y-54528500D01*
D13*
X131475942Y-58027500D02*
X131475942Y-56489500D01*
D14*
%TO.N,unconnected-(U1-PA4_A1_D1-Pad2)*%
X133576000Y-70554442D02*
X133436942Y-70693500D01*
%TO.N,Net-(U1-PA6_A10_D10_MOSI)*%
X130720442Y-66682390D02*
X130720442Y-56891000D01*
X129824942Y-55995500D02*
X129823942Y-55995500D01*
X130720442Y-56891000D02*
X129824942Y-55995500D01*
X129823942Y-55995500D02*
X128356942Y-54528500D01*
X131909025Y-67870973D02*
X130720442Y-66682390D01*
%TO.N,unconnected-(U1-PA02_A0_D0-Pad1)*%
X135976942Y-70328500D02*
X135976942Y-70693500D01*
%TD*%
%TA.AperFunction,Conductor*%
%TO.N,GND*%
G36*
X119459956Y-53131185D02*
G01*
X119505711Y-53183989D01*
X119515655Y-53253147D01*
X119499440Y-53298971D01*
X119451512Y-53379407D01*
X119384284Y-53492230D01*
X119293895Y-53723874D01*
X119293892Y-53723884D01*
X119242861Y-53967261D01*
X119242860Y-53967264D01*
X119236442Y-54070649D01*
X119236442Y-54986350D01*
X119242860Y-55089735D01*
X119242861Y-55089738D01*
X119293892Y-55333115D01*
X119293895Y-55333125D01*
X119384284Y-55564769D01*
X119511581Y-55778402D01*
X119672290Y-55968149D01*
X119672292Y-55968151D01*
X119862039Y-56128860D01*
X119862045Y-56128863D01*
X119862048Y-56128866D01*
X120075669Y-56256156D01*
X120094434Y-56263478D01*
X120307316Y-56346546D01*
X120307323Y-56346548D01*
X120307328Y-56346550D01*
X120550705Y-56397581D01*
X120654100Y-56404000D01*
X120654111Y-56404000D01*
X120819773Y-56404000D01*
X120819784Y-56404000D01*
X120923179Y-56397581D01*
X121166556Y-56346550D01*
X121166563Y-56346546D01*
X121166567Y-56346546D01*
X121245922Y-56315580D01*
X121398215Y-56256156D01*
X121611836Y-56128866D01*
X121611840Y-56128861D01*
X121611844Y-56128860D01*
X121801591Y-55968151D01*
X121801592Y-55968150D01*
X121912320Y-55837415D01*
X121970668Y-55798980D01*
X122040533Y-55798193D01*
X122099734Y-55835302D01*
X122101564Y-55837415D01*
X122212291Y-55968150D01*
X122212292Y-55968151D01*
X122402039Y-56128860D01*
X122402045Y-56128863D01*
X122402048Y-56128866D01*
X122615669Y-56256156D01*
X122634434Y-56263478D01*
X122847316Y-56346546D01*
X122847323Y-56346548D01*
X122847328Y-56346550D01*
X123090705Y-56397581D01*
X123194100Y-56404000D01*
X123194111Y-56404000D01*
X123359773Y-56404000D01*
X123359784Y-56404000D01*
X123463179Y-56397581D01*
X123706556Y-56346550D01*
X123706563Y-56346546D01*
X123706567Y-56346546D01*
X123785922Y-56315580D01*
X123938215Y-56256156D01*
X124151836Y-56128866D01*
X124151840Y-56128861D01*
X124151844Y-56128860D01*
X124341591Y-55968151D01*
X124341592Y-55968150D01*
X124452320Y-55837415D01*
X124510668Y-55798980D01*
X124580533Y-55798193D01*
X124639734Y-55835302D01*
X124641564Y-55837415D01*
X124752291Y-55968150D01*
X124752292Y-55968151D01*
X124942039Y-56128860D01*
X124942045Y-56128863D01*
X124942048Y-56128866D01*
X125155669Y-56256156D01*
X125174434Y-56263478D01*
X125387316Y-56346546D01*
X125387323Y-56346548D01*
X125387328Y-56346550D01*
X125630705Y-56397581D01*
X125734100Y-56404000D01*
X125734111Y-56404000D01*
X125899773Y-56404000D01*
X125899784Y-56404000D01*
X126003179Y-56397581D01*
X126246556Y-56346550D01*
X126246563Y-56346546D01*
X126246567Y-56346546D01*
X126325922Y-56315580D01*
X126478215Y-56256156D01*
X126691836Y-56128866D01*
X126691840Y-56128861D01*
X126691844Y-56128860D01*
X126881591Y-55968151D01*
X126881592Y-55968150D01*
X126992320Y-55837415D01*
X127050668Y-55798980D01*
X127120533Y-55798193D01*
X127179734Y-55835302D01*
X127181564Y-55837415D01*
X127292291Y-55968150D01*
X127292292Y-55968151D01*
X127482039Y-56128860D01*
X127482045Y-56128863D01*
X127482048Y-56128866D01*
X127695669Y-56256156D01*
X127714434Y-56263478D01*
X127927316Y-56346546D01*
X127927323Y-56346548D01*
X127927328Y-56346550D01*
X128170705Y-56397581D01*
X128274100Y-56404000D01*
X128274111Y-56404000D01*
X128439773Y-56404000D01*
X128439784Y-56404000D01*
X128543179Y-56397581D01*
X128786556Y-56346550D01*
X128786563Y-56346546D01*
X128786567Y-56346546D01*
X128893431Y-56304846D01*
X129018215Y-56256156D01*
X129071375Y-56224478D01*
X129139038Y-56207073D01*
X129205374Y-56229012D01*
X129222528Y-56243321D01*
X129339081Y-56359874D01*
X129339091Y-56359885D01*
X129343421Y-56364215D01*
X129343422Y-56364216D01*
X129455226Y-56476020D01*
X129455228Y-56476021D01*
X129457145Y-56477938D01*
X129465276Y-56485069D01*
X130083623Y-57103416D01*
X130117108Y-57164739D01*
X130119942Y-57191097D01*
X130119942Y-65499000D01*
X130100257Y-65566039D01*
X130047453Y-65611794D01*
X129995942Y-65623000D01*
X128588442Y-65623000D01*
X128588442Y-68544000D01*
X130620442Y-68544000D01*
X130620442Y-67730987D01*
X130640127Y-67663948D01*
X130692931Y-67618193D01*
X130762089Y-67608249D01*
X130825645Y-67637274D01*
X130832123Y-67643306D01*
X131078323Y-67889506D01*
X131111808Y-67950829D01*
X131113862Y-67963303D01*
X131123655Y-68050222D01*
X131183235Y-68220494D01*
X131279209Y-68373235D01*
X131406763Y-68500789D01*
X131559503Y-68596762D01*
X131729770Y-68656341D01*
X131729775Y-68656342D01*
X131909021Y-68676538D01*
X131909025Y-68676538D01*
X131909029Y-68676538D01*
X132088274Y-68656342D01*
X132088277Y-68656341D01*
X132088280Y-68656341D01*
X132258547Y-68596762D01*
X132411287Y-68500789D01*
X132538841Y-68373235D01*
X132634814Y-68220495D01*
X132694393Y-68050228D01*
X132694394Y-68050222D01*
X132705054Y-67955616D01*
X132732121Y-67891202D01*
X132789716Y-67851647D01*
X132828274Y-67845500D01*
X134874942Y-67845500D01*
X136271942Y-67845500D01*
X138938942Y-67845500D01*
X138938942Y-66067500D01*
X136271942Y-66067500D01*
X136271942Y-67845500D01*
X134874942Y-67845500D01*
X134874942Y-66067500D01*
X132207942Y-66067500D01*
X132207942Y-66960331D01*
X132188257Y-67027370D01*
X132135453Y-67073125D01*
X132070058Y-67083551D01*
X132001355Y-67075810D01*
X131936941Y-67048743D01*
X131927558Y-67040271D01*
X131357261Y-66469974D01*
X131323776Y-66408651D01*
X131320942Y-66382293D01*
X131320942Y-65302500D01*
X131340627Y-65235461D01*
X131393431Y-65189706D01*
X131444942Y-65178500D01*
X138176942Y-65178500D01*
X138176942Y-59971500D01*
X131444942Y-59971500D01*
X131377903Y-59951815D01*
X131332148Y-59899011D01*
X131320942Y-59847500D01*
X131320942Y-59209500D01*
X132207942Y-59209500D01*
X134874942Y-59209500D01*
X134874942Y-57431500D01*
X132207942Y-57431500D01*
X132207942Y-59209500D01*
X131320942Y-59209500D01*
X131320942Y-56811945D01*
X131320940Y-56811936D01*
X131316680Y-56796035D01*
X131280019Y-56659215D01*
X131243844Y-56596558D01*
X131209602Y-56537250D01*
X131193130Y-56469351D01*
X131215983Y-56403324D01*
X131270904Y-56360133D01*
X131291536Y-56353892D01*
X131326556Y-56346550D01*
X131326564Y-56346546D01*
X131326567Y-56346546D01*
X131405922Y-56315580D01*
X131558215Y-56256156D01*
X131771836Y-56128866D01*
X131771840Y-56128861D01*
X131771844Y-56128860D01*
X131961588Y-55968153D01*
X131961592Y-55968150D01*
X132072648Y-55837026D01*
X132130995Y-55798593D01*
X132200860Y-55797806D01*
X132260060Y-55834915D01*
X132261891Y-55837027D01*
X132372649Y-55967798D01*
X132562333Y-56128453D01*
X132775892Y-56255706D01*
X133007459Y-56346064D01*
X133007469Y-56346067D01*
X133186942Y-56383698D01*
X133186942Y-54402500D01*
X133206627Y-54335461D01*
X133259431Y-54289706D01*
X133310942Y-54278500D01*
X133562942Y-54278500D01*
X133629981Y-54298185D01*
X133675736Y-54350989D01*
X133686942Y-54402500D01*
X133686942Y-56383698D01*
X133866414Y-56346067D01*
X133866424Y-56346064D01*
X134097991Y-56255706D01*
X134311550Y-56128453D01*
X134501233Y-55967798D01*
X134611990Y-55837028D01*
X134670339Y-55798593D01*
X134740204Y-55797805D01*
X134799404Y-55834915D01*
X134801235Y-55837027D01*
X134912294Y-55968153D01*
X135101560Y-56128453D01*
X135102048Y-56128866D01*
X135177377Y-56173752D01*
X135224890Y-56224978D01*
X135237166Y-56293760D01*
X135230944Y-56321228D01*
X135191574Y-56433742D01*
X135191572Y-56433750D01*
X135171377Y-56612996D01*
X135171377Y-56613003D01*
X135191572Y-56792249D01*
X135191573Y-56792254D01*
X135251153Y-56962523D01*
X135339683Y-57103416D01*
X135347126Y-57115262D01*
X135474680Y-57242816D01*
X135627420Y-57338789D01*
X135797687Y-57398368D01*
X135797692Y-57398369D01*
X135976938Y-57418565D01*
X135976942Y-57418565D01*
X135976944Y-57418565D01*
X136036850Y-57411815D01*
X136134059Y-57400862D01*
X136202880Y-57412916D01*
X136254259Y-57460265D01*
X136271942Y-57524082D01*
X136271942Y-59209500D01*
X138938942Y-59209500D01*
X138938942Y-57431500D01*
X136589882Y-57431500D01*
X136522843Y-57411815D01*
X136477088Y-57359011D01*
X136467144Y-57289853D01*
X136496169Y-57226297D01*
X136502201Y-57219819D01*
X136530923Y-57191097D01*
X136606758Y-57115262D01*
X136702731Y-56962522D01*
X136762310Y-56792255D01*
X136777300Y-56659213D01*
X136782507Y-56613003D01*
X136782507Y-56612996D01*
X136762311Y-56433750D01*
X136762308Y-56433737D01*
X136722939Y-56321229D01*
X136719376Y-56251451D01*
X136754105Y-56190823D01*
X136776499Y-56173756D01*
X136851836Y-56128866D01*
X136912132Y-56077797D01*
X137041591Y-55968151D01*
X137041593Y-55968149D01*
X137202302Y-55778402D01*
X137202303Y-55778398D01*
X137202308Y-55778394D01*
X137329598Y-55564773D01*
X137419992Y-55333114D01*
X137471023Y-55089737D01*
X137477442Y-54986342D01*
X137477442Y-54070658D01*
X137471023Y-53967263D01*
X137419992Y-53723886D01*
X137419990Y-53723881D01*
X137419988Y-53723874D01*
X137329599Y-53492230D01*
X137329598Y-53492227D01*
X137214443Y-53298972D01*
X137197038Y-53231307D01*
X137218978Y-53164971D01*
X137273299Y-53121028D01*
X137320967Y-53111500D01*
X137552879Y-53111500D01*
X137560991Y-53111766D01*
X137809806Y-53128078D01*
X137825884Y-53130194D01*
X137950932Y-53155070D01*
X138066463Y-53178053D01*
X138082130Y-53182251D01*
X138314401Y-53261100D01*
X138329386Y-53267307D01*
X138329427Y-53267327D01*
X138549388Y-53375802D01*
X138563427Y-53383908D01*
X138666108Y-53452519D01*
X138767375Y-53520186D01*
X138780243Y-53530060D01*
X138964660Y-53691792D01*
X138976129Y-53703261D01*
X139137859Y-53887681D01*
X139147733Y-53900549D01*
X139284011Y-54104507D01*
X139292120Y-54118554D01*
X139400605Y-54338542D01*
X139406812Y-54353527D01*
X139485657Y-54585800D01*
X139489855Y-54601467D01*
X139537707Y-54842038D01*
X139539824Y-54858119D01*
X139556176Y-55107595D01*
X139556442Y-55115705D01*
X139556442Y-70106933D01*
X139556177Y-70115043D01*
X139539867Y-70363887D01*
X139537749Y-70379968D01*
X139489896Y-70620543D01*
X139485698Y-70636210D01*
X139406853Y-70868482D01*
X139400647Y-70883467D01*
X139292154Y-71103472D01*
X139284044Y-71117519D01*
X139147766Y-71321476D01*
X139137892Y-71334344D01*
X138976163Y-71518764D01*
X138964693Y-71530234D01*
X138780268Y-71691972D01*
X138767401Y-71701845D01*
X138563446Y-71838127D01*
X138549399Y-71846238D01*
X138329402Y-71954732D01*
X138314417Y-71960939D01*
X138082141Y-72039789D01*
X138066474Y-72043987D01*
X137825891Y-72091846D01*
X137809810Y-72093963D01*
X137561632Y-72110234D01*
X137553520Y-72110500D01*
X137320967Y-72110500D01*
X137253928Y-72090815D01*
X137208173Y-72038011D01*
X137198229Y-71968853D01*
X137214443Y-71923028D01*
X137329598Y-71729773D01*
X137409551Y-71524872D01*
X137419988Y-71498125D01*
X137419988Y-71498121D01*
X137419992Y-71498114D01*
X137471023Y-71254737D01*
X137477442Y-71151342D01*
X137477442Y-70235658D01*
X137471023Y-70132263D01*
X137419992Y-69888886D01*
X137419990Y-69888881D01*
X137419988Y-69888874D01*
X137329599Y-69657230D01*
X137329598Y-69657227D01*
X137202308Y-69443606D01*
X137202305Y-69443603D01*
X137202302Y-69443597D01*
X137041593Y-69253850D01*
X137041591Y-69253848D01*
X136851844Y-69093139D01*
X136851836Y-69093134D01*
X136638215Y-68965844D01*
X136638213Y-68965843D01*
X136638211Y-68965842D01*
X136406567Y-68875453D01*
X136406557Y-68875450D01*
X136163180Y-68824419D01*
X136163177Y-68824418D01*
X136059792Y-68818000D01*
X136059784Y-68818000D01*
X135894100Y-68818000D01*
X135894091Y-68818000D01*
X135790706Y-68824418D01*
X135790703Y-68824419D01*
X135547326Y-68875450D01*
X135547316Y-68875453D01*
X135315672Y-68965842D01*
X135102039Y-69093139D01*
X134912292Y-69253848D01*
X134912290Y-69253850D01*
X134801564Y-69384584D01*
X134743215Y-69423019D01*
X134673350Y-69423806D01*
X134614150Y-69386697D01*
X134612320Y-69384584D01*
X134501593Y-69253850D01*
X134501591Y-69253848D01*
X134311844Y-69093139D01*
X134311836Y-69093134D01*
X134098215Y-68965844D01*
X134098213Y-68965843D01*
X134098211Y-68965842D01*
X133866567Y-68875453D01*
X133866557Y-68875450D01*
X133623180Y-68824419D01*
X133623177Y-68824418D01*
X133519792Y-68818000D01*
X133519784Y-68818000D01*
X133354100Y-68818000D01*
X133354091Y-68818000D01*
X133250706Y-68824418D01*
X133250703Y-68824419D01*
X133007326Y-68875450D01*
X133007316Y-68875453D01*
X132775672Y-68965842D01*
X132562039Y-69093139D01*
X132372292Y-69253848D01*
X132372290Y-69253850D01*
X132261564Y-69384584D01*
X132203215Y-69423019D01*
X132133350Y-69423806D01*
X132074150Y-69386697D01*
X132072320Y-69384584D01*
X131961593Y-69253850D01*
X131961591Y-69253848D01*
X131771844Y-69093139D01*
X131771836Y-69093134D01*
X131558215Y-68965844D01*
X131558213Y-68965843D01*
X131558211Y-68965842D01*
X131326567Y-68875453D01*
X131326557Y-68875450D01*
X131083180Y-68824419D01*
X131083177Y-68824418D01*
X130979792Y-68818000D01*
X130979784Y-68818000D01*
X130814100Y-68818000D01*
X130814091Y-68818000D01*
X130710706Y-68824418D01*
X130710703Y-68824419D01*
X130467326Y-68875450D01*
X130467316Y-68875453D01*
X130235672Y-68965842D01*
X130022039Y-69093139D01*
X129832292Y-69253848D01*
X129832290Y-69253850D01*
X129721564Y-69384584D01*
X129663215Y-69423019D01*
X129593350Y-69423806D01*
X129534150Y-69386697D01*
X129532320Y-69384584D01*
X129421593Y-69253850D01*
X129421591Y-69253848D01*
X129231844Y-69093139D01*
X129231836Y-69093134D01*
X129018215Y-68965844D01*
X129018213Y-68965843D01*
X129018211Y-68965842D01*
X128786567Y-68875453D01*
X128786557Y-68875450D01*
X128543180Y-68824419D01*
X128543177Y-68824418D01*
X128439792Y-68818000D01*
X128439784Y-68818000D01*
X128274100Y-68818000D01*
X128274091Y-68818000D01*
X128170706Y-68824418D01*
X128170703Y-68824419D01*
X127927326Y-68875450D01*
X127927316Y-68875453D01*
X127695672Y-68965842D01*
X127482039Y-69093139D01*
X127292292Y-69253848D01*
X127292290Y-69253850D01*
X127181564Y-69384584D01*
X127123215Y-69423019D01*
X127053350Y-69423806D01*
X126994150Y-69386697D01*
X126992320Y-69384584D01*
X126881593Y-69253850D01*
X126881591Y-69253848D01*
X126691844Y-69093139D01*
X126691836Y-69093134D01*
X126478215Y-68965844D01*
X126478213Y-68965843D01*
X126478211Y-68965842D01*
X126246567Y-68875453D01*
X126246557Y-68875450D01*
X126003180Y-68824419D01*
X126003177Y-68824418D01*
X125899792Y-68818000D01*
X125899784Y-68818000D01*
X125734100Y-68818000D01*
X125734091Y-68818000D01*
X125630706Y-68824418D01*
X125630703Y-68824419D01*
X125387326Y-68875450D01*
X125387316Y-68875453D01*
X125155672Y-68965842D01*
X124942039Y-69093139D01*
X124752292Y-69253848D01*
X124752290Y-69253850D01*
X124641564Y-69384584D01*
X124583215Y-69423019D01*
X124513350Y-69423806D01*
X124454150Y-69386697D01*
X124452320Y-69384584D01*
X124341593Y-69253850D01*
X124341591Y-69253848D01*
X124151844Y-69093139D01*
X124151836Y-69093134D01*
X123938215Y-68965844D01*
X123938213Y-68965843D01*
X123938211Y-68965842D01*
X123706567Y-68875453D01*
X123706557Y-68875450D01*
X123463180Y-68824419D01*
X123463177Y-68824418D01*
X123359792Y-68818000D01*
X123359784Y-68818000D01*
X123194100Y-68818000D01*
X123194091Y-68818000D01*
X123090706Y-68824418D01*
X123090703Y-68824419D01*
X122847326Y-68875450D01*
X122847316Y-68875453D01*
X122615672Y-68965842D01*
X122402039Y-69093139D01*
X122212292Y-69253848D01*
X122212290Y-69253850D01*
X122101564Y-69384584D01*
X122043215Y-69423019D01*
X121973350Y-69423806D01*
X121914150Y-69386697D01*
X121912320Y-69384584D01*
X121801593Y-69253850D01*
X121801591Y-69253848D01*
X121611844Y-69093139D01*
X121611836Y-69093134D01*
X121398215Y-68965844D01*
X121398213Y-68965843D01*
X121398211Y-68965842D01*
X121166567Y-68875453D01*
X121166557Y-68875450D01*
X120923180Y-68824419D01*
X120923177Y-68824418D01*
X120819792Y-68818000D01*
X120819784Y-68818000D01*
X120654100Y-68818000D01*
X120654091Y-68818000D01*
X120550706Y-68824418D01*
X120550703Y-68824419D01*
X120307326Y-68875450D01*
X120307316Y-68875453D01*
X120075672Y-68965842D01*
X119862039Y-69093139D01*
X119672292Y-69253848D01*
X119672290Y-69253850D01*
X119511581Y-69443597D01*
X119384284Y-69657230D01*
X119293895Y-69888874D01*
X119293892Y-69888884D01*
X119242861Y-70132261D01*
X119242860Y-70132264D01*
X119236442Y-70235649D01*
X119236442Y-71151350D01*
X119242860Y-71254735D01*
X119242861Y-71254738D01*
X119293892Y-71498115D01*
X119293895Y-71498125D01*
X119373388Y-71701845D01*
X119384286Y-71729773D01*
X119499440Y-71923027D01*
X119516846Y-71990693D01*
X119494906Y-72057029D01*
X119440585Y-72100972D01*
X119392917Y-72110500D01*
X68130436Y-72110500D01*
X68130420Y-72110499D01*
X68060997Y-72110499D01*
X68052889Y-72110234D01*
X67804051Y-72093929D01*
X67787970Y-72091812D01*
X67547389Y-72043961D01*
X67531721Y-72039763D01*
X67299442Y-71960918D01*
X67284456Y-71954711D01*
X67064460Y-71846224D01*
X67050414Y-71838114D01*
X66846454Y-71701836D01*
X66833585Y-71691962D01*
X66649165Y-71530233D01*
X66637695Y-71518763D01*
X66475954Y-71334335D01*
X66466085Y-71321475D01*
X66329795Y-71117506D01*
X66321692Y-71103469D01*
X66215756Y-70888655D01*
X66213198Y-70883467D01*
X66206993Y-70868486D01*
X66128145Y-70636209D01*
X66123947Y-70620542D01*
X66116087Y-70581027D01*
X66076090Y-70379955D01*
X66073975Y-70363894D01*
X66057707Y-70115682D01*
X66057442Y-70107573D01*
X66057442Y-65178500D01*
X118491942Y-65178500D01*
X121031942Y-65178500D01*
X121031942Y-61749500D01*
X126111942Y-61749500D01*
X129159942Y-61749500D01*
X129159942Y-58701500D01*
X126111942Y-58701500D01*
X126111942Y-61749500D01*
X121031942Y-61749500D01*
X121031942Y-59463500D01*
X118491942Y-59463500D01*
X118491942Y-65178500D01*
X66057442Y-65178500D01*
X66057442Y-55115066D01*
X66057707Y-55106956D01*
X66074017Y-54858105D01*
X66076132Y-54842051D01*
X66123990Y-54601454D01*
X66128179Y-54585817D01*
X66207034Y-54353522D01*
X66213236Y-54338551D01*
X66321730Y-54118548D01*
X66329833Y-54104512D01*
X66466124Y-53900541D01*
X66475988Y-53887688D01*
X66637730Y-53703261D01*
X66649185Y-53691805D01*
X66833624Y-53530060D01*
X66846470Y-53520202D01*
X67050435Y-53383920D01*
X67064482Y-53375811D01*
X67284478Y-53267324D01*
X67299453Y-53261122D01*
X67531741Y-53182274D01*
X67547391Y-53178081D01*
X67787987Y-53130227D01*
X67804046Y-53128113D01*
X68053542Y-53111764D01*
X68061626Y-53111500D01*
X68122826Y-53111501D01*
X68122830Y-53111500D01*
X119392917Y-53111500D01*
X119459956Y-53131185D01*
G37*
%TD.AperFunction*%
%TD*%
M02*
