%TF.GenerationSoftware,KiCad,Pcbnew,9.0.3*%
%TF.CreationDate,2025-07-20T20:49:32+01:00*%
%TF.ProjectId,disturbance-free-calling,64697374-7572-4626-916e-63652d667265,0.2*%
%TF.SameCoordinates,Original*%
%TF.FileFunction,Legend,Top*%
%TF.FilePolarity,Positive*%
%FSLAX46Y46*%
G04 Gerber Fmt 4.6, Leading zero omitted, Abs format (unit mm)*
G04 Created by KiCad (PCBNEW 9.0.3) date 2025-07-20 20:49:32*
%MOMM*%
%LPD*%
G01*
G04 APERTURE LIST*
%ADD10C,0.100000*%
%ADD11C,0.150000*%
%ADD12C,0.120000*%
G04 APERTURE END LIST*
D10*
X74459979Y-70642938D02*
X74459979Y-69692938D01*
X74912360Y-70642938D02*
X74912360Y-70009604D01*
X74912360Y-70100080D02*
X74957598Y-70054842D01*
X74957598Y-70054842D02*
X75048074Y-70009604D01*
X75048074Y-70009604D02*
X75183789Y-70009604D01*
X75183789Y-70009604D02*
X75274265Y-70054842D01*
X75274265Y-70054842D02*
X75319503Y-70145319D01*
X75319503Y-70145319D02*
X75319503Y-70642938D01*
X75319503Y-70145319D02*
X75364741Y-70054842D01*
X75364741Y-70054842D02*
X75455217Y-70009604D01*
X75455217Y-70009604D02*
X75590931Y-70009604D01*
X75590931Y-70009604D02*
X75681408Y-70054842D01*
X75681408Y-70054842D02*
X75726646Y-70145319D01*
X75726646Y-70145319D02*
X75726646Y-70642938D01*
X76133789Y-70597700D02*
X76269503Y-70642938D01*
X76269503Y-70642938D02*
X76495694Y-70642938D01*
X76495694Y-70642938D02*
X76586170Y-70597700D01*
X76586170Y-70597700D02*
X76631408Y-70552461D01*
X76631408Y-70552461D02*
X76676646Y-70461985D01*
X76676646Y-70461985D02*
X76676646Y-70371509D01*
X76676646Y-70371509D02*
X76631408Y-70281033D01*
X76631408Y-70281033D02*
X76586170Y-70235795D01*
X76586170Y-70235795D02*
X76495694Y-70190557D01*
X76495694Y-70190557D02*
X76314741Y-70145319D01*
X76314741Y-70145319D02*
X76224265Y-70100080D01*
X76224265Y-70100080D02*
X76179027Y-70054842D01*
X76179027Y-70054842D02*
X76133789Y-69964366D01*
X76133789Y-69964366D02*
X76133789Y-69873890D01*
X76133789Y-69873890D02*
X76179027Y-69783414D01*
X76179027Y-69783414D02*
X76224265Y-69738176D01*
X76224265Y-69738176D02*
X76314741Y-69692938D01*
X76314741Y-69692938D02*
X76540932Y-69692938D01*
X76540932Y-69692938D02*
X76676646Y-69738176D01*
X77445694Y-70597700D02*
X77355218Y-70642938D01*
X77355218Y-70642938D02*
X77174265Y-70642938D01*
X77174265Y-70642938D02*
X77083789Y-70597700D01*
X77083789Y-70597700D02*
X77038551Y-70507223D01*
X77038551Y-70507223D02*
X77038551Y-70145319D01*
X77038551Y-70145319D02*
X77083789Y-70054842D01*
X77083789Y-70054842D02*
X77174265Y-70009604D01*
X77174265Y-70009604D02*
X77355218Y-70009604D01*
X77355218Y-70009604D02*
X77445694Y-70054842D01*
X77445694Y-70054842D02*
X77490932Y-70145319D01*
X77490932Y-70145319D02*
X77490932Y-70235795D01*
X77490932Y-70235795D02*
X77038551Y-70326271D01*
X78305218Y-70642938D02*
X78305218Y-70145319D01*
X78305218Y-70145319D02*
X78259980Y-70054842D01*
X78259980Y-70054842D02*
X78169504Y-70009604D01*
X78169504Y-70009604D02*
X77988551Y-70009604D01*
X77988551Y-70009604D02*
X77898075Y-70054842D01*
X78305218Y-70597700D02*
X78214742Y-70642938D01*
X78214742Y-70642938D02*
X77988551Y-70642938D01*
X77988551Y-70642938D02*
X77898075Y-70597700D01*
X77898075Y-70597700D02*
X77852837Y-70507223D01*
X77852837Y-70507223D02*
X77852837Y-70416747D01*
X77852837Y-70416747D02*
X77898075Y-70326271D01*
X77898075Y-70326271D02*
X77988551Y-70281033D01*
X77988551Y-70281033D02*
X78214742Y-70281033D01*
X78214742Y-70281033D02*
X78305218Y-70235795D01*
X78757599Y-70009604D02*
X78757599Y-70642938D01*
X78757599Y-70100080D02*
X78802837Y-70054842D01*
X78802837Y-70054842D02*
X78893313Y-70009604D01*
X78893313Y-70009604D02*
X79029028Y-70009604D01*
X79029028Y-70009604D02*
X79119504Y-70054842D01*
X79119504Y-70054842D02*
X79164742Y-70145319D01*
X79164742Y-70145319D02*
X79164742Y-70642938D01*
X80159980Y-70552461D02*
X80114742Y-70597700D01*
X80114742Y-70597700D02*
X79979028Y-70642938D01*
X79979028Y-70642938D02*
X79888552Y-70642938D01*
X79888552Y-70642938D02*
X79752837Y-70597700D01*
X79752837Y-70597700D02*
X79662361Y-70507223D01*
X79662361Y-70507223D02*
X79617123Y-70416747D01*
X79617123Y-70416747D02*
X79571885Y-70235795D01*
X79571885Y-70235795D02*
X79571885Y-70100080D01*
X79571885Y-70100080D02*
X79617123Y-69919128D01*
X79617123Y-69919128D02*
X79662361Y-69828652D01*
X79662361Y-69828652D02*
X79752837Y-69738176D01*
X79752837Y-69738176D02*
X79888552Y-69692938D01*
X79888552Y-69692938D02*
X79979028Y-69692938D01*
X79979028Y-69692938D02*
X80114742Y-69738176D01*
X80114742Y-69738176D02*
X80159980Y-69783414D01*
X80702837Y-70642938D02*
X80612361Y-70597700D01*
X80612361Y-70597700D02*
X80567123Y-70552461D01*
X80567123Y-70552461D02*
X80521885Y-70461985D01*
X80521885Y-70461985D02*
X80521885Y-70190557D01*
X80521885Y-70190557D02*
X80567123Y-70100080D01*
X80567123Y-70100080D02*
X80612361Y-70054842D01*
X80612361Y-70054842D02*
X80702837Y-70009604D01*
X80702837Y-70009604D02*
X80838552Y-70009604D01*
X80838552Y-70009604D02*
X80929028Y-70054842D01*
X80929028Y-70054842D02*
X80974266Y-70100080D01*
X80974266Y-70100080D02*
X81019504Y-70190557D01*
X81019504Y-70190557D02*
X81019504Y-70461985D01*
X81019504Y-70461985D02*
X80974266Y-70552461D01*
X80974266Y-70552461D02*
X80929028Y-70597700D01*
X80929028Y-70597700D02*
X80838552Y-70642938D01*
X80838552Y-70642938D02*
X80702837Y-70642938D01*
X81426647Y-70009604D02*
X81426647Y-70642938D01*
X81426647Y-70100080D02*
X81471885Y-70054842D01*
X81471885Y-70054842D02*
X81562361Y-70009604D01*
X81562361Y-70009604D02*
X81698076Y-70009604D01*
X81698076Y-70009604D02*
X81788552Y-70054842D01*
X81788552Y-70054842D02*
X81833790Y-70145319D01*
X81833790Y-70145319D02*
X81833790Y-70642938D01*
X82286171Y-70642938D02*
X82286171Y-70009604D01*
X82286171Y-70190557D02*
X82331409Y-70100080D01*
X82331409Y-70100080D02*
X82376647Y-70054842D01*
X82376647Y-70054842D02*
X82467123Y-70009604D01*
X82467123Y-70009604D02*
X82557600Y-70009604D01*
X83009980Y-70642938D02*
X82919504Y-70597700D01*
X82919504Y-70597700D02*
X82874266Y-70552461D01*
X82874266Y-70552461D02*
X82829028Y-70461985D01*
X82829028Y-70461985D02*
X82829028Y-70190557D01*
X82829028Y-70190557D02*
X82874266Y-70100080D01*
X82874266Y-70100080D02*
X82919504Y-70054842D01*
X82919504Y-70054842D02*
X83009980Y-70009604D01*
X83009980Y-70009604D02*
X83145695Y-70009604D01*
X83145695Y-70009604D02*
X83236171Y-70054842D01*
X83236171Y-70054842D02*
X83281409Y-70100080D01*
X83281409Y-70100080D02*
X83326647Y-70190557D01*
X83326647Y-70190557D02*
X83326647Y-70461985D01*
X83326647Y-70461985D02*
X83281409Y-70552461D01*
X83281409Y-70552461D02*
X83236171Y-70597700D01*
X83236171Y-70597700D02*
X83145695Y-70642938D01*
X83145695Y-70642938D02*
X83009980Y-70642938D01*
X83643314Y-70009604D02*
X83869504Y-70642938D01*
X84095695Y-70009604D02*
X83869504Y-70642938D01*
X83869504Y-70642938D02*
X83779028Y-70869128D01*
X83779028Y-70869128D02*
X83733790Y-70914366D01*
X83733790Y-70914366D02*
X83643314Y-70959604D01*
X85136171Y-69647700D02*
X84321886Y-70869128D01*
X85452838Y-70642938D02*
X85452838Y-69692938D01*
X85452838Y-69692938D02*
X85679028Y-69692938D01*
X85679028Y-69692938D02*
X85814743Y-69738176D01*
X85814743Y-69738176D02*
X85905219Y-69828652D01*
X85905219Y-69828652D02*
X85950457Y-69919128D01*
X85950457Y-69919128D02*
X85995695Y-70100080D01*
X85995695Y-70100080D02*
X85995695Y-70235795D01*
X85995695Y-70235795D02*
X85950457Y-70416747D01*
X85950457Y-70416747D02*
X85905219Y-70507223D01*
X85905219Y-70507223D02*
X85814743Y-70597700D01*
X85814743Y-70597700D02*
X85679028Y-70642938D01*
X85679028Y-70642938D02*
X85452838Y-70642938D01*
X86402838Y-70642938D02*
X86402838Y-70009604D01*
X86402838Y-69692938D02*
X86357600Y-69738176D01*
X86357600Y-69738176D02*
X86402838Y-69783414D01*
X86402838Y-69783414D02*
X86448076Y-69738176D01*
X86448076Y-69738176D02*
X86402838Y-69692938D01*
X86402838Y-69692938D02*
X86402838Y-69783414D01*
X86809981Y-70597700D02*
X86900457Y-70642938D01*
X86900457Y-70642938D02*
X87081409Y-70642938D01*
X87081409Y-70642938D02*
X87171886Y-70597700D01*
X87171886Y-70597700D02*
X87217124Y-70507223D01*
X87217124Y-70507223D02*
X87217124Y-70461985D01*
X87217124Y-70461985D02*
X87171886Y-70371509D01*
X87171886Y-70371509D02*
X87081409Y-70326271D01*
X87081409Y-70326271D02*
X86945695Y-70326271D01*
X86945695Y-70326271D02*
X86855219Y-70281033D01*
X86855219Y-70281033D02*
X86809981Y-70190557D01*
X86809981Y-70190557D02*
X86809981Y-70145319D01*
X86809981Y-70145319D02*
X86855219Y-70054842D01*
X86855219Y-70054842D02*
X86945695Y-70009604D01*
X86945695Y-70009604D02*
X87081409Y-70009604D01*
X87081409Y-70009604D02*
X87171886Y-70054842D01*
X87488553Y-70009604D02*
X87850457Y-70009604D01*
X87624267Y-69692938D02*
X87624267Y-70507223D01*
X87624267Y-70507223D02*
X87669505Y-70597700D01*
X87669505Y-70597700D02*
X87759981Y-70642938D01*
X87759981Y-70642938D02*
X87850457Y-70642938D01*
X88574267Y-70009604D02*
X88574267Y-70642938D01*
X88167124Y-70009604D02*
X88167124Y-70507223D01*
X88167124Y-70507223D02*
X88212362Y-70597700D01*
X88212362Y-70597700D02*
X88302838Y-70642938D01*
X88302838Y-70642938D02*
X88438553Y-70642938D01*
X88438553Y-70642938D02*
X88529029Y-70597700D01*
X88529029Y-70597700D02*
X88574267Y-70552461D01*
X89026648Y-70642938D02*
X89026648Y-70009604D01*
X89026648Y-70190557D02*
X89071886Y-70100080D01*
X89071886Y-70100080D02*
X89117124Y-70054842D01*
X89117124Y-70054842D02*
X89207600Y-70009604D01*
X89207600Y-70009604D02*
X89298077Y-70009604D01*
X89614743Y-70642938D02*
X89614743Y-69692938D01*
X89614743Y-70054842D02*
X89705219Y-70009604D01*
X89705219Y-70009604D02*
X89886172Y-70009604D01*
X89886172Y-70009604D02*
X89976648Y-70054842D01*
X89976648Y-70054842D02*
X90021886Y-70100080D01*
X90021886Y-70100080D02*
X90067124Y-70190557D01*
X90067124Y-70190557D02*
X90067124Y-70461985D01*
X90067124Y-70461985D02*
X90021886Y-70552461D01*
X90021886Y-70552461D02*
X89976648Y-70597700D01*
X89976648Y-70597700D02*
X89886172Y-70642938D01*
X89886172Y-70642938D02*
X89705219Y-70642938D01*
X89705219Y-70642938D02*
X89614743Y-70597700D01*
X90881410Y-70642938D02*
X90881410Y-70145319D01*
X90881410Y-70145319D02*
X90836172Y-70054842D01*
X90836172Y-70054842D02*
X90745696Y-70009604D01*
X90745696Y-70009604D02*
X90564743Y-70009604D01*
X90564743Y-70009604D02*
X90474267Y-70054842D01*
X90881410Y-70597700D02*
X90790934Y-70642938D01*
X90790934Y-70642938D02*
X90564743Y-70642938D01*
X90564743Y-70642938D02*
X90474267Y-70597700D01*
X90474267Y-70597700D02*
X90429029Y-70507223D01*
X90429029Y-70507223D02*
X90429029Y-70416747D01*
X90429029Y-70416747D02*
X90474267Y-70326271D01*
X90474267Y-70326271D02*
X90564743Y-70281033D01*
X90564743Y-70281033D02*
X90790934Y-70281033D01*
X90790934Y-70281033D02*
X90881410Y-70235795D01*
X91333791Y-70009604D02*
X91333791Y-70642938D01*
X91333791Y-70100080D02*
X91379029Y-70054842D01*
X91379029Y-70054842D02*
X91469505Y-70009604D01*
X91469505Y-70009604D02*
X91605220Y-70009604D01*
X91605220Y-70009604D02*
X91695696Y-70054842D01*
X91695696Y-70054842D02*
X91740934Y-70145319D01*
X91740934Y-70145319D02*
X91740934Y-70642938D01*
X92600458Y-70597700D02*
X92509982Y-70642938D01*
X92509982Y-70642938D02*
X92329029Y-70642938D01*
X92329029Y-70642938D02*
X92238553Y-70597700D01*
X92238553Y-70597700D02*
X92193315Y-70552461D01*
X92193315Y-70552461D02*
X92148077Y-70461985D01*
X92148077Y-70461985D02*
X92148077Y-70190557D01*
X92148077Y-70190557D02*
X92193315Y-70100080D01*
X92193315Y-70100080D02*
X92238553Y-70054842D01*
X92238553Y-70054842D02*
X92329029Y-70009604D01*
X92329029Y-70009604D02*
X92509982Y-70009604D01*
X92509982Y-70009604D02*
X92600458Y-70054842D01*
X93369506Y-70597700D02*
X93279030Y-70642938D01*
X93279030Y-70642938D02*
X93098077Y-70642938D01*
X93098077Y-70642938D02*
X93007601Y-70597700D01*
X93007601Y-70597700D02*
X92962363Y-70507223D01*
X92962363Y-70507223D02*
X92962363Y-70145319D01*
X92962363Y-70145319D02*
X93007601Y-70054842D01*
X93007601Y-70054842D02*
X93098077Y-70009604D01*
X93098077Y-70009604D02*
X93279030Y-70009604D01*
X93279030Y-70009604D02*
X93369506Y-70054842D01*
X93369506Y-70054842D02*
X93414744Y-70145319D01*
X93414744Y-70145319D02*
X93414744Y-70235795D01*
X93414744Y-70235795D02*
X92962363Y-70326271D01*
X93821887Y-70281033D02*
X94545697Y-70281033D01*
X95314744Y-70145319D02*
X94998077Y-70145319D01*
X94998077Y-70642938D02*
X94998077Y-69692938D01*
X94998077Y-69692938D02*
X95450458Y-69692938D01*
X95812363Y-70642938D02*
X95812363Y-70009604D01*
X95812363Y-70190557D02*
X95857601Y-70100080D01*
X95857601Y-70100080D02*
X95902839Y-70054842D01*
X95902839Y-70054842D02*
X95993315Y-70009604D01*
X95993315Y-70009604D02*
X96083792Y-70009604D01*
X96762363Y-70597700D02*
X96671887Y-70642938D01*
X96671887Y-70642938D02*
X96490934Y-70642938D01*
X96490934Y-70642938D02*
X96400458Y-70597700D01*
X96400458Y-70597700D02*
X96355220Y-70507223D01*
X96355220Y-70507223D02*
X96355220Y-70145319D01*
X96355220Y-70145319D02*
X96400458Y-70054842D01*
X96400458Y-70054842D02*
X96490934Y-70009604D01*
X96490934Y-70009604D02*
X96671887Y-70009604D01*
X96671887Y-70009604D02*
X96762363Y-70054842D01*
X96762363Y-70054842D02*
X96807601Y-70145319D01*
X96807601Y-70145319D02*
X96807601Y-70235795D01*
X96807601Y-70235795D02*
X96355220Y-70326271D01*
X97576649Y-70597700D02*
X97486173Y-70642938D01*
X97486173Y-70642938D02*
X97305220Y-70642938D01*
X97305220Y-70642938D02*
X97214744Y-70597700D01*
X97214744Y-70597700D02*
X97169506Y-70507223D01*
X97169506Y-70507223D02*
X97169506Y-70145319D01*
X97169506Y-70145319D02*
X97214744Y-70054842D01*
X97214744Y-70054842D02*
X97305220Y-70009604D01*
X97305220Y-70009604D02*
X97486173Y-70009604D01*
X97486173Y-70009604D02*
X97576649Y-70054842D01*
X97576649Y-70054842D02*
X97621887Y-70145319D01*
X97621887Y-70145319D02*
X97621887Y-70235795D01*
X97621887Y-70235795D02*
X97169506Y-70326271D01*
X98029030Y-70281033D02*
X98752840Y-70281033D01*
X99748077Y-70552461D02*
X99702839Y-70597700D01*
X99702839Y-70597700D02*
X99567125Y-70642938D01*
X99567125Y-70642938D02*
X99476649Y-70642938D01*
X99476649Y-70642938D02*
X99340934Y-70597700D01*
X99340934Y-70597700D02*
X99250458Y-70507223D01*
X99250458Y-70507223D02*
X99205220Y-70416747D01*
X99205220Y-70416747D02*
X99159982Y-70235795D01*
X99159982Y-70235795D02*
X99159982Y-70100080D01*
X99159982Y-70100080D02*
X99205220Y-69919128D01*
X99205220Y-69919128D02*
X99250458Y-69828652D01*
X99250458Y-69828652D02*
X99340934Y-69738176D01*
X99340934Y-69738176D02*
X99476649Y-69692938D01*
X99476649Y-69692938D02*
X99567125Y-69692938D01*
X99567125Y-69692938D02*
X99702839Y-69738176D01*
X99702839Y-69738176D02*
X99748077Y-69783414D01*
X100562363Y-70642938D02*
X100562363Y-70145319D01*
X100562363Y-70145319D02*
X100517125Y-70054842D01*
X100517125Y-70054842D02*
X100426649Y-70009604D01*
X100426649Y-70009604D02*
X100245696Y-70009604D01*
X100245696Y-70009604D02*
X100155220Y-70054842D01*
X100562363Y-70597700D02*
X100471887Y-70642938D01*
X100471887Y-70642938D02*
X100245696Y-70642938D01*
X100245696Y-70642938D02*
X100155220Y-70597700D01*
X100155220Y-70597700D02*
X100109982Y-70507223D01*
X100109982Y-70507223D02*
X100109982Y-70416747D01*
X100109982Y-70416747D02*
X100155220Y-70326271D01*
X100155220Y-70326271D02*
X100245696Y-70281033D01*
X100245696Y-70281033D02*
X100471887Y-70281033D01*
X100471887Y-70281033D02*
X100562363Y-70235795D01*
X101150458Y-70642938D02*
X101059982Y-70597700D01*
X101059982Y-70597700D02*
X101014744Y-70507223D01*
X101014744Y-70507223D02*
X101014744Y-69692938D01*
X101648077Y-70642938D02*
X101557601Y-70597700D01*
X101557601Y-70597700D02*
X101512363Y-70507223D01*
X101512363Y-70507223D02*
X101512363Y-69692938D01*
X102009982Y-70642938D02*
X102009982Y-70009604D01*
X102009982Y-69692938D02*
X101964744Y-69738176D01*
X101964744Y-69738176D02*
X102009982Y-69783414D01*
X102009982Y-69783414D02*
X102055220Y-69738176D01*
X102055220Y-69738176D02*
X102009982Y-69692938D01*
X102009982Y-69692938D02*
X102009982Y-69783414D01*
X102462363Y-70009604D02*
X102462363Y-70642938D01*
X102462363Y-70100080D02*
X102507601Y-70054842D01*
X102507601Y-70054842D02*
X102598077Y-70009604D01*
X102598077Y-70009604D02*
X102733792Y-70009604D01*
X102733792Y-70009604D02*
X102824268Y-70054842D01*
X102824268Y-70054842D02*
X102869506Y-70145319D01*
X102869506Y-70145319D02*
X102869506Y-70642938D01*
X103729030Y-70009604D02*
X103729030Y-70778652D01*
X103729030Y-70778652D02*
X103683792Y-70869128D01*
X103683792Y-70869128D02*
X103638554Y-70914366D01*
X103638554Y-70914366D02*
X103548077Y-70959604D01*
X103548077Y-70959604D02*
X103412363Y-70959604D01*
X103412363Y-70959604D02*
X103321887Y-70914366D01*
X103729030Y-70597700D02*
X103638554Y-70642938D01*
X103638554Y-70642938D02*
X103457601Y-70642938D01*
X103457601Y-70642938D02*
X103367125Y-70597700D01*
X103367125Y-70597700D02*
X103321887Y-70552461D01*
X103321887Y-70552461D02*
X103276649Y-70461985D01*
X103276649Y-70461985D02*
X103276649Y-70190557D01*
X103276649Y-70190557D02*
X103321887Y-70100080D01*
X103321887Y-70100080D02*
X103367125Y-70054842D01*
X103367125Y-70054842D02*
X103457601Y-70009604D01*
X103457601Y-70009604D02*
X103638554Y-70009604D01*
X103638554Y-70009604D02*
X103729030Y-70054842D01*
X105176650Y-71004842D02*
X105131411Y-70959604D01*
X105131411Y-70959604D02*
X105040935Y-70823890D01*
X105040935Y-70823890D02*
X104995697Y-70733414D01*
X104995697Y-70733414D02*
X104950459Y-70597700D01*
X104950459Y-70597700D02*
X104905221Y-70371509D01*
X104905221Y-70371509D02*
X104905221Y-70190557D01*
X104905221Y-70190557D02*
X104950459Y-69964366D01*
X104950459Y-69964366D02*
X104995697Y-69828652D01*
X104995697Y-69828652D02*
X105040935Y-69738176D01*
X105040935Y-69738176D02*
X105131411Y-69602461D01*
X105131411Y-69602461D02*
X105176650Y-69557223D01*
X105448078Y-70009604D02*
X105674268Y-70642938D01*
X105674268Y-70642938D02*
X105900459Y-70009604D01*
X106443316Y-69692938D02*
X106533793Y-69692938D01*
X106533793Y-69692938D02*
X106624269Y-69738176D01*
X106624269Y-69738176D02*
X106669507Y-69783414D01*
X106669507Y-69783414D02*
X106714745Y-69873890D01*
X106714745Y-69873890D02*
X106759983Y-70054842D01*
X106759983Y-70054842D02*
X106759983Y-70281033D01*
X106759983Y-70281033D02*
X106714745Y-70461985D01*
X106714745Y-70461985D02*
X106669507Y-70552461D01*
X106669507Y-70552461D02*
X106624269Y-70597700D01*
X106624269Y-70597700D02*
X106533793Y-70642938D01*
X106533793Y-70642938D02*
X106443316Y-70642938D01*
X106443316Y-70642938D02*
X106352840Y-70597700D01*
X106352840Y-70597700D02*
X106307602Y-70552461D01*
X106307602Y-70552461D02*
X106262364Y-70461985D01*
X106262364Y-70461985D02*
X106217126Y-70281033D01*
X106217126Y-70281033D02*
X106217126Y-70054842D01*
X106217126Y-70054842D02*
X106262364Y-69873890D01*
X106262364Y-69873890D02*
X106307602Y-69783414D01*
X106307602Y-69783414D02*
X106352840Y-69738176D01*
X106352840Y-69738176D02*
X106443316Y-69692938D01*
X107167126Y-70552461D02*
X107212364Y-70597700D01*
X107212364Y-70597700D02*
X107167126Y-70642938D01*
X107167126Y-70642938D02*
X107121888Y-70597700D01*
X107121888Y-70597700D02*
X107167126Y-70552461D01*
X107167126Y-70552461D02*
X107167126Y-70642938D01*
X107574269Y-69783414D02*
X107619507Y-69738176D01*
X107619507Y-69738176D02*
X107709983Y-69692938D01*
X107709983Y-69692938D02*
X107936174Y-69692938D01*
X107936174Y-69692938D02*
X108026650Y-69738176D01*
X108026650Y-69738176D02*
X108071888Y-69783414D01*
X108071888Y-69783414D02*
X108117126Y-69873890D01*
X108117126Y-69873890D02*
X108117126Y-69964366D01*
X108117126Y-69964366D02*
X108071888Y-70100080D01*
X108071888Y-70100080D02*
X107529031Y-70642938D01*
X107529031Y-70642938D02*
X108117126Y-70642938D01*
X108433793Y-71004842D02*
X108479031Y-70959604D01*
X108479031Y-70959604D02*
X108569507Y-70823890D01*
X108569507Y-70823890D02*
X108614745Y-70733414D01*
X108614745Y-70733414D02*
X108659983Y-70597700D01*
X108659983Y-70597700D02*
X108705221Y-70371509D01*
X108705221Y-70371509D02*
X108705221Y-70190557D01*
X108705221Y-70190557D02*
X108659983Y-69964366D01*
X108659983Y-69964366D02*
X108614745Y-69828652D01*
X108614745Y-69828652D02*
X108569507Y-69738176D01*
X108569507Y-69738176D02*
X108479031Y-69602461D01*
X108479031Y-69602461D02*
X108433793Y-69557223D01*
D11*
X117626342Y-60322319D02*
X117054914Y-60322319D01*
X117340628Y-60322319D02*
X117340628Y-59322319D01*
X117340628Y-59322319D02*
X117245390Y-59465176D01*
X117245390Y-59465176D02*
X117150152Y-59560414D01*
X117150152Y-59560414D02*
X117054914Y-59608033D01*
X139226342Y-60322319D02*
X138654914Y-60322319D01*
X138940628Y-60322319D02*
X138940628Y-59322319D01*
X138940628Y-59322319D02*
X138845390Y-59465176D01*
X138845390Y-59465176D02*
X138750152Y-59560414D01*
X138750152Y-59560414D02*
X138654914Y-59608033D01*
X132026342Y-60322319D02*
X131454914Y-60322319D01*
X131740628Y-60322319D02*
X131740628Y-59322319D01*
X131740628Y-59322319D02*
X131645390Y-59465176D01*
X131645390Y-59465176D02*
X131550152Y-59560414D01*
X131550152Y-59560414D02*
X131454914Y-59608033D01*
X124826342Y-60322319D02*
X124254914Y-60322319D01*
X124540628Y-60322319D02*
X124540628Y-59322319D01*
X124540628Y-59322319D02*
X124445390Y-59465176D01*
X124445390Y-59465176D02*
X124350152Y-59560414D01*
X124350152Y-59560414D02*
X124254914Y-59608033D01*
X96026342Y-60522319D02*
X95454914Y-60522319D01*
X95740628Y-60522319D02*
X95740628Y-59522319D01*
X95740628Y-59522319D02*
X95645390Y-59665176D01*
X95645390Y-59665176D02*
X95550152Y-59760414D01*
X95550152Y-59760414D02*
X95454914Y-59808033D01*
X88826342Y-60522319D02*
X88254914Y-60522319D01*
X88540628Y-60522319D02*
X88540628Y-59522319D01*
X88540628Y-59522319D02*
X88445390Y-59665176D01*
X88445390Y-59665176D02*
X88350152Y-59760414D01*
X88350152Y-59760414D02*
X88254914Y-59808033D01*
X110426342Y-60522319D02*
X109854914Y-60522319D01*
X110140628Y-60522319D02*
X110140628Y-59522319D01*
X110140628Y-59522319D02*
X110045390Y-59665176D01*
X110045390Y-59665176D02*
X109950152Y-59760414D01*
X109950152Y-59760414D02*
X109854914Y-59808033D01*
X81626342Y-60522319D02*
X81054914Y-60522319D01*
X81340628Y-60522319D02*
X81340628Y-59522319D01*
X81340628Y-59522319D02*
X81245390Y-59665176D01*
X81245390Y-59665176D02*
X81150152Y-59760414D01*
X81150152Y-59760414D02*
X81054914Y-59808033D01*
X103226342Y-60522319D02*
X102654914Y-60522319D01*
X102940628Y-60522319D02*
X102940628Y-59522319D01*
X102940628Y-59522319D02*
X102845390Y-59665176D01*
X102845390Y-59665176D02*
X102750152Y-59760414D01*
X102750152Y-59760414D02*
X102654914Y-59808033D01*
X74426342Y-60522319D02*
X73854914Y-60522319D01*
X74140628Y-60522319D02*
X74140628Y-59522319D01*
X74140628Y-59522319D02*
X74045390Y-59665176D01*
X74045390Y-59665176D02*
X73950152Y-59760414D01*
X73950152Y-59760414D02*
X73854914Y-59808033D01*
D12*
%TO.C,C2*%
X130288919Y-56728111D02*
X129766415Y-56728111D01*
X130288919Y-58198111D02*
X129766415Y-58198111D01*
%TO.C,C7*%
X94902652Y-56728111D02*
X94380148Y-56728111D01*
X94902652Y-58198111D02*
X94380148Y-58198111D01*
%TO.C,C3*%
X124045585Y-56728111D02*
X123523081Y-56728111D01*
X124045585Y-58198111D02*
X123523081Y-58198111D01*
%TO.C,C9*%
X82483052Y-56728111D02*
X81960548Y-56728111D01*
X82483052Y-58198111D02*
X81960548Y-58198111D01*
%TO.C,C8*%
X88692852Y-56728111D02*
X88170348Y-56728111D01*
X88692852Y-58198111D02*
X88170348Y-58198111D01*
%TO.C,D4*%
X111250000Y-60050000D02*
X111250000Y-66600000D01*
X111250000Y-66600000D02*
X111700000Y-67050000D01*
X111700000Y-67050000D02*
X116750000Y-67050000D01*
X113100000Y-60850000D02*
X114900000Y-60850000D01*
X113100000Y-66250000D02*
X114900000Y-66250000D01*
X116750000Y-60050000D02*
X111250000Y-60050000D01*
X116750000Y-60050000D02*
X116750000Y-67050000D01*
%TO.C,C1*%
X136532252Y-56728111D02*
X136009748Y-56728111D01*
X136532252Y-58198111D02*
X136009748Y-58198111D01*
%TO.C,C5*%
X107322252Y-56728111D02*
X106799748Y-56728111D01*
X107322252Y-58198111D02*
X106799748Y-58198111D01*
%TO.C,D1*%
X132880942Y-60050000D02*
X132880942Y-66600000D01*
X132880942Y-66600000D02*
X133330942Y-67050000D01*
X133330942Y-67050000D02*
X138380942Y-67050000D01*
X134730942Y-60850000D02*
X136530942Y-60850000D01*
X134730942Y-66250000D02*
X136530942Y-66250000D01*
X138380942Y-60050000D02*
X132880942Y-60050000D01*
X138380942Y-60050000D02*
X138380942Y-67050000D01*
%TO.C,D2*%
X125670628Y-60050000D02*
X125670628Y-66600000D01*
X125670628Y-66600000D02*
X126120628Y-67050000D01*
X126120628Y-67050000D02*
X131170628Y-67050000D01*
X127520628Y-60850000D02*
X129320628Y-60850000D01*
X127520628Y-66250000D02*
X129320628Y-66250000D01*
X131170628Y-60050000D02*
X125670628Y-60050000D01*
X131170628Y-60050000D02*
X131170628Y-67050000D01*
%TO.C,R1*%
X135662936Y-69242000D02*
X136117064Y-69242000D01*
X135662936Y-70712000D02*
X136117064Y-70712000D01*
%TO.C,D3*%
X118460314Y-60050000D02*
X118460314Y-66600000D01*
X118460314Y-66600000D02*
X118910314Y-67050000D01*
X118910314Y-67050000D02*
X123960314Y-67050000D01*
X120310314Y-60850000D02*
X122110314Y-60850000D01*
X120310314Y-66250000D02*
X122110314Y-66250000D01*
X123960314Y-60050000D02*
X118460314Y-60050000D01*
X123960314Y-60050000D02*
X123960314Y-67050000D01*
%TO.C,D7*%
X89619058Y-60050000D02*
X89619058Y-66600000D01*
X89619058Y-66600000D02*
X90069058Y-67050000D01*
X90069058Y-67050000D02*
X95119058Y-67050000D01*
X91469058Y-60850000D02*
X93269058Y-60850000D01*
X91469058Y-66250000D02*
X93269058Y-66250000D01*
X95119058Y-60050000D02*
X89619058Y-60050000D01*
X95119058Y-60050000D02*
X95119058Y-67050000D01*
%TO.C,D8*%
X82408744Y-60050000D02*
X82408744Y-66600000D01*
X82408744Y-66600000D02*
X82858744Y-67050000D01*
X82858744Y-67050000D02*
X87908744Y-67050000D01*
X84258744Y-60850000D02*
X86058744Y-60850000D01*
X84258744Y-66250000D02*
X86058744Y-66250000D01*
X87908744Y-60050000D02*
X82408744Y-60050000D01*
X87908744Y-60050000D02*
X87908744Y-67050000D01*
%TO.C,D5*%
X104039686Y-60050000D02*
X104039686Y-66600000D01*
X104039686Y-66600000D02*
X104489686Y-67050000D01*
X104489686Y-67050000D02*
X109539686Y-67050000D01*
X105889686Y-60850000D02*
X107689686Y-60850000D01*
X105889686Y-66250000D02*
X107689686Y-66250000D01*
X109539686Y-60050000D02*
X104039686Y-60050000D01*
X109539686Y-60050000D02*
X109539686Y-67050000D01*
%TO.C,D9*%
X75198430Y-60050000D02*
X75198430Y-66600000D01*
X75198430Y-66600000D02*
X75648430Y-67050000D01*
X75648430Y-67050000D02*
X80698430Y-67050000D01*
X77048430Y-60850000D02*
X78848430Y-60850000D01*
X77048430Y-66250000D02*
X78848430Y-66250000D01*
X80698430Y-60050000D02*
X75198430Y-60050000D01*
X80698430Y-60050000D02*
X80698430Y-67050000D01*
%TO.C,D6*%
X96829372Y-60050000D02*
X96829372Y-66600000D01*
X96829372Y-66600000D02*
X97279372Y-67050000D01*
X97279372Y-67050000D02*
X102329372Y-67050000D01*
X98679372Y-60850000D02*
X100479372Y-60850000D01*
X98679372Y-66250000D02*
X100479372Y-66250000D01*
X102329372Y-60050000D02*
X96829372Y-60050000D01*
X102329372Y-60050000D02*
X102329372Y-67050000D01*
%TO.C,C6*%
X101112452Y-56728111D02*
X100589948Y-56728111D01*
X101112452Y-58198111D02*
X100589948Y-58198111D01*
%TO.C,C4*%
X117802252Y-56728111D02*
X117279748Y-56728111D01*
X117802252Y-58198111D02*
X117279748Y-58198111D01*
%TO.C,D10*%
X67988112Y-60050000D02*
X67988112Y-66600000D01*
X67988112Y-66600000D02*
X68438112Y-67050000D01*
X68438112Y-67050000D02*
X73488112Y-67050000D01*
X69838112Y-60850000D02*
X71638112Y-60850000D01*
X69838112Y-66250000D02*
X71638112Y-66250000D01*
X73488112Y-60050000D02*
X67988112Y-60050000D01*
X73488112Y-60050000D02*
X73488112Y-67050000D01*
%TO.C,C10*%
X76273252Y-56728111D02*
X75750748Y-56728111D01*
X76273252Y-58198111D02*
X75750748Y-58198111D01*
%TD*%
M02*
