%TF.GenerationSoftware,KiCad,Pcbnew,9.0.3*%
%TF.CreationDate,2025-07-20T20:49:32+01:00*%
%TF.ProjectId,disturbance-free-calling,64697374-7572-4626-916e-63652d667265,0.2*%
%TF.SameCoordinates,Original*%
%TF.FileFunction,Paste,Top*%
%TF.FilePolarity,Positive*%
%FSLAX46Y46*%
G04 Gerber Fmt 4.6, Leading zero omitted, Abs format (unit mm)*
G04 Created by KiCad (PCBNEW 9.0.3) date 2025-07-20 20:49:32*
%MOMM*%
%LPD*%
G01*
G04 APERTURE LIST*
G04 Aperture macros list*
%AMRoundRect*
0 Rectangle with rounded corners*
0 $1 Rounding radius*
0 $2 $3 $4 $5 $6 $7 $8 $9 X,Y pos of 4 corners*
0 Add a 4 corners polygon primitive as box body*
4,1,4,$2,$3,$4,$5,$6,$7,$8,$9,$2,$3,0*
0 Add four circle primitives for the rounded corners*
1,1,$1+$1,$2,$3*
1,1,$1+$1,$4,$5*
1,1,$1+$1,$6,$7*
1,1,$1+$1,$8,$9*
0 Add four rect primitives between the rounded corners*
20,1,$1+$1,$2,$3,$4,$5,0*
20,1,$1+$1,$4,$5,$6,$7,0*
20,1,$1+$1,$6,$7,$8,$9,0*
20,1,$1+$1,$8,$9,$2,$3,0*%
G04 Aperture macros list end*
%ADD10RoundRect,0.250000X0.250000X0.475000X-0.250000X0.475000X-0.250000X-0.475000X0.250000X-0.475000X0*%
%ADD11RoundRect,0.090000X-0.360000X0.660000X-0.360000X-0.660000X0.360000X-0.660000X0.360000X0.660000X0*%
%ADD12RoundRect,0.250000X-0.262500X-0.450000X0.262500X-0.450000X0.262500X0.450000X-0.262500X0.450000X0*%
G04 APERTURE END LIST*
D10*
%TO.C,C2*%
X130977667Y-57463111D03*
X129077667Y-57463111D03*
%TD*%
%TO.C,C7*%
X95591400Y-57463111D03*
X93691400Y-57463111D03*
%TD*%
%TO.C,C3*%
X124734333Y-57463111D03*
X122834333Y-57463111D03*
%TD*%
%TO.C,C9*%
X83171800Y-57463111D03*
X81271800Y-57463111D03*
%TD*%
%TO.C,C8*%
X89381600Y-57463111D03*
X87481600Y-57463111D03*
%TD*%
D11*
%TO.C,D4*%
X115650000Y-61100000D03*
X112350000Y-61100000D03*
X112350000Y-66000000D03*
X115650000Y-66000000D03*
%TD*%
D10*
%TO.C,C1*%
X137221000Y-57463111D03*
X135321000Y-57463111D03*
%TD*%
%TO.C,C5*%
X108011000Y-57463111D03*
X106111000Y-57463111D03*
%TD*%
D11*
%TO.C,D1*%
X137280942Y-61100000D03*
X133980942Y-61100000D03*
X133980942Y-66000000D03*
X137280942Y-66000000D03*
%TD*%
%TO.C,D2*%
X130070628Y-61100000D03*
X126770628Y-61100000D03*
X126770628Y-66000000D03*
X130070628Y-66000000D03*
%TD*%
D12*
%TO.C,R1*%
X134977500Y-69977000D03*
X136802500Y-69977000D03*
%TD*%
D11*
%TO.C,D3*%
X122860314Y-61100000D03*
X119560314Y-61100000D03*
X119560314Y-66000000D03*
X122860314Y-66000000D03*
%TD*%
%TO.C,D7*%
X94019058Y-61100000D03*
X90719058Y-61100000D03*
X90719058Y-66000000D03*
X94019058Y-66000000D03*
%TD*%
%TO.C,D8*%
X86808744Y-61100000D03*
X83508744Y-61100000D03*
X83508744Y-66000000D03*
X86808744Y-66000000D03*
%TD*%
%TO.C,D5*%
X108439686Y-61100000D03*
X105139686Y-61100000D03*
X105139686Y-66000000D03*
X108439686Y-66000000D03*
%TD*%
%TO.C,D9*%
X79598430Y-61100000D03*
X76298430Y-61100000D03*
X76298430Y-66000000D03*
X79598430Y-66000000D03*
%TD*%
%TO.C,D6*%
X101229372Y-61100000D03*
X97929372Y-61100000D03*
X97929372Y-66000000D03*
X101229372Y-66000000D03*
%TD*%
D10*
%TO.C,C6*%
X101801200Y-57463111D03*
X99901200Y-57463111D03*
%TD*%
%TO.C,C4*%
X118491000Y-57463111D03*
X116591000Y-57463111D03*
%TD*%
D11*
%TO.C,D10*%
X72388112Y-61100000D03*
X69088112Y-61100000D03*
X69088112Y-66000000D03*
X72388112Y-66000000D03*
%TD*%
D10*
%TO.C,C10*%
X76962000Y-57463111D03*
X75062000Y-57463111D03*
%TD*%
M02*
