%TF.GenerationSoftware,KiCad,Pcbnew,9.0.3*%
%TF.CreationDate,2025-07-16T20:25:02+01:00*%
%TF.ProjectId,disturbance-free-calling,64697374-7572-4626-916e-63652d667265,0.2*%
%TF.SameCoordinates,Original*%
%TF.FileFunction,Copper,L2,Bot*%
%TF.FilePolarity,Positive*%
%FSLAX46Y46*%
G04 Gerber Fmt 4.6, Leading zero omitted, Abs format (unit mm)*
G04 Created by KiCad (PCBNEW 9.0.3) date 2025-07-16 20:25:02*
%MOMM*%
%LPD*%
G01*
G04 APERTURE LIST*
G04 Aperture macros list*
%AMRoundRect*
0 Rectangle with rounded corners*
0 $1 Rounding radius*
0 $2 $3 $4 $5 $6 $7 $8 $9 X,Y pos of 4 corners*
0 Add a 4 corners polygon primitive as box body*
4,1,4,$2,$3,$4,$5,$6,$7,$8,$9,$2,$3,0*
0 Add four circle primitives for the rounded corners*
1,1,$1+$1,$2,$3*
1,1,$1+$1,$4,$5*
1,1,$1+$1,$6,$7*
1,1,$1+$1,$8,$9*
0 Add four rect primitives between the rounded corners*
20,1,$1+$1,$2,$3,$4,$5,0*
20,1,$1+$1,$4,$5,$6,$7,0*
20,1,$1+$1,$6,$7,$8,$9,0*
20,1,$1+$1,$8,$9,$2,$3,0*%
G04 Aperture macros list end*
%TA.AperFunction,SMDPad,CuDef*%
%ADD10RoundRect,1.000000X0.000010X-0.375000X0.000010X0.375000X-0.000010X0.375000X-0.000010X-0.375000X0*%
%TD*%
%TA.AperFunction,ViaPad*%
%ADD11C,0.600000*%
%TD*%
%TA.AperFunction,Conductor*%
%ADD12C,0.381000*%
%TD*%
%TA.AperFunction,Conductor*%
%ADD13C,0.200000*%
%TD*%
G04 APERTURE END LIST*
D10*
%TO.P,U1,1,PA02_A0_D0*%
%TO.N,unconnected-(U1-PA02_A0_D0-Pad1)*%
X134620000Y-71632500D03*
%TO.P,U1,2,PA4_A1_D1*%
%TO.N,unconnected-(U1-PA4_A1_D1-Pad2)*%
X132080000Y-71632500D03*
%TO.P,U1,3,PA10_A2_D2*%
%TO.N,unconnected-(U1-PA10_A2_D2-Pad3)*%
X129540000Y-71632500D03*
%TO.P,U1,4,PA11_A3_D3*%
%TO.N,unconnected-(U1-PA11_A3_D3-Pad4)*%
X127000000Y-71632500D03*
%TO.P,U1,5,PA8_A4_D4_SDA*%
%TO.N,unconnected-(U1-PA8_A4_D4_SDA-Pad5)*%
X124460000Y-71632500D03*
%TO.P,U1,6,PA9_A5_D5_SCL*%
%TO.N,unconnected-(U1-PA9_A5_D5_SCL-Pad6)*%
X121920000Y-71632500D03*
%TO.P,U1,7,PB08_A6_D6_TX*%
%TO.N,unconnected-(U1-PB08_A6_D6_TX-Pad7)*%
X119380000Y-71632500D03*
%TO.P,U1,8,PB09_A7_D7_RX*%
%TO.N,unconnected-(U1-PB09_A7_D7_RX-Pad8)*%
X119380000Y-55467500D03*
%TO.P,U1,9,PA7_A8_D8_SCK*%
%TO.N,unconnected-(U1-PA7_A8_D8_SCK-Pad9)*%
X121920000Y-55467500D03*
%TO.P,U1,10,PA5_A9_D9_MISO*%
%TO.N,unconnected-(U1-PA5_A9_D9_MISO-Pad10)*%
X124460000Y-55467500D03*
%TO.P,U1,11,PA6_A10_D10_MOSI*%
%TO.N,Net-(U1-PA6_A10_D10_MOSI)*%
X127000000Y-55467500D03*
%TO.P,U1,12,3V3*%
%TO.N,unconnected-(U1-3V3-Pad12)*%
X129540000Y-55467500D03*
%TO.P,U1,13,GND*%
%TO.N,GND*%
X132080000Y-55467500D03*
%TO.P,U1,14,5V*%
%TO.N,+5V*%
X134620000Y-55467500D03*
%TD*%
D11*
%TO.N,+5V*%
X133858000Y-57912000D03*
%TO.N,GND*%
X77978000Y-63627000D03*
X128524000Y-63627000D03*
X92329000Y-63627000D03*
X114046000Y-63627000D03*
%TO.N,Net-(U1-PA6_A10_D10_MOSI)*%
X130124200Y-68224400D03*
%TD*%
D12*
%TO.N,+5V*%
X133858000Y-57912000D02*
X133858000Y-57023000D01*
X133858000Y-57023000D02*
X134620000Y-56261000D01*
X134620000Y-56261000D02*
X134620000Y-55467500D01*
D13*
%TO.N,Net-(U1-PA6_A10_D10_MOSI)*%
X130124200Y-66649600D02*
X129734000Y-66259400D01*
X129734000Y-66259400D02*
X129734000Y-58201500D01*
X129734000Y-58201500D02*
X127000000Y-55467500D01*
X130124200Y-68224400D02*
X130124200Y-66649600D01*
%TD*%
%TA.AperFunction,Conductor*%
%TO.N,GND*%
G36*
X118037577Y-54047847D02*
G01*
X118104612Y-54067542D01*
X118150359Y-54120354D01*
X118160291Y-54189514D01*
X118144080Y-54235317D01*
X118077905Y-54346375D01*
X118027342Y-54431230D01*
X117936953Y-54662874D01*
X117936950Y-54662884D01*
X117885919Y-54906261D01*
X117885918Y-54906264D01*
X117879500Y-55009649D01*
X117879500Y-55925350D01*
X117885918Y-56028735D01*
X117885919Y-56028738D01*
X117936950Y-56272115D01*
X117936953Y-56272125D01*
X118023516Y-56493963D01*
X118027344Y-56503773D01*
X118110000Y-56642488D01*
X118154639Y-56717402D01*
X118315348Y-56907149D01*
X118315350Y-56907151D01*
X118505097Y-57067860D01*
X118505103Y-57067863D01*
X118505106Y-57067866D01*
X118718727Y-57195156D01*
X118765058Y-57213234D01*
X118950374Y-57285546D01*
X118950381Y-57285548D01*
X118950386Y-57285550D01*
X119193763Y-57336581D01*
X119297158Y-57343000D01*
X119297169Y-57343000D01*
X119462831Y-57343000D01*
X119462842Y-57343000D01*
X119566237Y-57336581D01*
X119809614Y-57285550D01*
X119809621Y-57285546D01*
X119809625Y-57285546D01*
X119919795Y-57242557D01*
X120041273Y-57195156D01*
X120254894Y-57067866D01*
X120254898Y-57067861D01*
X120254902Y-57067860D01*
X120444649Y-56907151D01*
X120444650Y-56907150D01*
X120555378Y-56776415D01*
X120613726Y-56737980D01*
X120683591Y-56737193D01*
X120742792Y-56774302D01*
X120744622Y-56776415D01*
X120855349Y-56907150D01*
X120855350Y-56907151D01*
X121045097Y-57067860D01*
X121045103Y-57067863D01*
X121045106Y-57067866D01*
X121258727Y-57195156D01*
X121305058Y-57213234D01*
X121490374Y-57285546D01*
X121490381Y-57285548D01*
X121490386Y-57285550D01*
X121733763Y-57336581D01*
X121837158Y-57343000D01*
X121837169Y-57343000D01*
X122002831Y-57343000D01*
X122002842Y-57343000D01*
X122106237Y-57336581D01*
X122349614Y-57285550D01*
X122349621Y-57285546D01*
X122349625Y-57285546D01*
X122459795Y-57242557D01*
X122581273Y-57195156D01*
X122794894Y-57067866D01*
X122794898Y-57067861D01*
X122794902Y-57067860D01*
X122984649Y-56907151D01*
X122984650Y-56907150D01*
X123095378Y-56776415D01*
X123153726Y-56737980D01*
X123223591Y-56737193D01*
X123282792Y-56774302D01*
X123284622Y-56776415D01*
X123395349Y-56907150D01*
X123395350Y-56907151D01*
X123585097Y-57067860D01*
X123585103Y-57067863D01*
X123585106Y-57067866D01*
X123798727Y-57195156D01*
X123845058Y-57213234D01*
X124030374Y-57285546D01*
X124030381Y-57285548D01*
X124030386Y-57285550D01*
X124273763Y-57336581D01*
X124377158Y-57343000D01*
X124377169Y-57343000D01*
X124542831Y-57343000D01*
X124542842Y-57343000D01*
X124646237Y-57336581D01*
X124889614Y-57285550D01*
X124889621Y-57285546D01*
X124889625Y-57285546D01*
X124999795Y-57242557D01*
X125121273Y-57195156D01*
X125334894Y-57067866D01*
X125334898Y-57067861D01*
X125334902Y-57067860D01*
X125524649Y-56907151D01*
X125524650Y-56907150D01*
X125635378Y-56776415D01*
X125693726Y-56737980D01*
X125763591Y-56737193D01*
X125822792Y-56774302D01*
X125824622Y-56776415D01*
X125935349Y-56907150D01*
X125935350Y-56907151D01*
X126125097Y-57067860D01*
X126125103Y-57067863D01*
X126125106Y-57067866D01*
X126338727Y-57195156D01*
X126385058Y-57213234D01*
X126570374Y-57285546D01*
X126570381Y-57285548D01*
X126570386Y-57285550D01*
X126813763Y-57336581D01*
X126917158Y-57343000D01*
X126917169Y-57343000D01*
X127082831Y-57343000D01*
X127082842Y-57343000D01*
X127186237Y-57336581D01*
X127429614Y-57285550D01*
X127429621Y-57285546D01*
X127429625Y-57285546D01*
X127553719Y-57237124D01*
X127661273Y-57195156D01*
X127714433Y-57163478D01*
X127782096Y-57146073D01*
X127848432Y-57168012D01*
X127865586Y-57182321D01*
X129097181Y-58413916D01*
X129130666Y-58475239D01*
X129133500Y-58501597D01*
X129133500Y-66172730D01*
X129133499Y-66172748D01*
X129133499Y-66338454D01*
X129133498Y-66338454D01*
X129133499Y-66338456D01*
X129133499Y-66338457D01*
X129151572Y-66405908D01*
X129149910Y-66475756D01*
X129110748Y-66533618D01*
X129046520Y-66561123D01*
X129031798Y-66562000D01*
X127231500Y-66562000D01*
X127231500Y-69483000D01*
X129263500Y-69483000D01*
X129263500Y-68785907D01*
X129283185Y-68718868D01*
X129335989Y-68673113D01*
X129405147Y-68663169D01*
X129468703Y-68692194D01*
X129490602Y-68717016D01*
X129502410Y-68734689D01*
X129613907Y-68846186D01*
X129613911Y-68846189D01*
X129745014Y-68933790D01*
X129745027Y-68933797D01*
X129890698Y-68994135D01*
X129890703Y-68994137D01*
X130045353Y-69024899D01*
X130045356Y-69024900D01*
X130045358Y-69024900D01*
X130203044Y-69024900D01*
X130203045Y-69024899D01*
X130357697Y-68994137D01*
X130503379Y-68933794D01*
X130634489Y-68846189D01*
X130685907Y-68794771D01*
X130747230Y-68761285D01*
X130816922Y-68766269D01*
X130845290Y-68784500D01*
X130851000Y-68784500D01*
X133518000Y-68784500D01*
X134915000Y-68784500D01*
X137582000Y-68784500D01*
X137582000Y-67006500D01*
X134915000Y-67006500D01*
X134915000Y-68784500D01*
X133518000Y-68784500D01*
X133518000Y-67006500D01*
X130851000Y-67006500D01*
X130848700Y-67006500D01*
X130781661Y-66986815D01*
X130735906Y-66934011D01*
X130724700Y-66882500D01*
X130724700Y-66570545D01*
X130724700Y-66570543D01*
X130683777Y-66417816D01*
X130683777Y-66417815D01*
X130664411Y-66384274D01*
X130637959Y-66338456D01*
X130617777Y-66303500D01*
X130601304Y-66235600D01*
X130624156Y-66169573D01*
X130679077Y-66126383D01*
X130725164Y-66117500D01*
X136820000Y-66117500D01*
X136820000Y-60910500D01*
X130458500Y-60910500D01*
X130391461Y-60890815D01*
X130345706Y-60838011D01*
X130334500Y-60786500D01*
X130334500Y-58290559D01*
X130334501Y-58290546D01*
X130334501Y-58122445D01*
X130334501Y-58122443D01*
X130293577Y-57969715D01*
X130264639Y-57919595D01*
X130214520Y-57832784D01*
X130102716Y-57720980D01*
X130102715Y-57720979D01*
X130098385Y-57716649D01*
X130098374Y-57716639D01*
X129881709Y-57499974D01*
X129848224Y-57438651D01*
X129853208Y-57368959D01*
X129895080Y-57313026D01*
X129943940Y-57290933D01*
X129969614Y-57285550D01*
X129969623Y-57285546D01*
X129969625Y-57285546D01*
X130079795Y-57242557D01*
X130201273Y-57195156D01*
X130414894Y-57067866D01*
X130414898Y-57067861D01*
X130414902Y-57067860D01*
X130604646Y-56907153D01*
X130604650Y-56907150D01*
X130715706Y-56776026D01*
X130774053Y-56737593D01*
X130843918Y-56736806D01*
X130903118Y-56773915D01*
X130904949Y-56776027D01*
X131015707Y-56906798D01*
X131205391Y-57067453D01*
X131418950Y-57194706D01*
X131650517Y-57285064D01*
X131650527Y-57285067D01*
X131830000Y-57322698D01*
X131830000Y-55591500D01*
X131849685Y-55524461D01*
X131902489Y-55478706D01*
X131954000Y-55467500D01*
X132206000Y-55467500D01*
X132273039Y-55487185D01*
X132318794Y-55539989D01*
X132330000Y-55591500D01*
X132330000Y-57322698D01*
X132509472Y-57285067D01*
X132509482Y-57285064D01*
X132741049Y-57194706D01*
X132954605Y-57067454D01*
X132962857Y-57060466D01*
X133026736Y-57032158D01*
X133095778Y-57042880D01*
X133148063Y-57089226D01*
X133167000Y-57155087D01*
X133167000Y-57467677D01*
X133149724Y-57526509D01*
X133151479Y-57527447D01*
X133148602Y-57532828D01*
X133088264Y-57678498D01*
X133088261Y-57678510D01*
X133057500Y-57833153D01*
X133057500Y-57990846D01*
X133088261Y-58145489D01*
X133088264Y-58145501D01*
X133110444Y-58199048D01*
X133117913Y-58268517D01*
X133086638Y-58330996D01*
X133026548Y-58366648D01*
X132995883Y-58370500D01*
X130851000Y-58370500D01*
X130851000Y-60148500D01*
X133518000Y-60148500D01*
X134915000Y-60148500D01*
X137582000Y-60148500D01*
X137582000Y-58370500D01*
X134915000Y-58370500D01*
X134915000Y-60148500D01*
X133518000Y-60148500D01*
X133518000Y-58811646D01*
X133537685Y-58744607D01*
X133590489Y-58698852D01*
X133659647Y-58688908D01*
X133666173Y-58690025D01*
X133729854Y-58702692D01*
X133779156Y-58712500D01*
X133779158Y-58712500D01*
X133936844Y-58712500D01*
X133936845Y-58712499D01*
X134091497Y-58681737D01*
X134237179Y-58621394D01*
X134368289Y-58533789D01*
X134479789Y-58422289D01*
X134567394Y-58291179D01*
X134627737Y-58145497D01*
X134658500Y-57990842D01*
X134658500Y-57833158D01*
X134658500Y-57833155D01*
X134658499Y-57833153D01*
X134636186Y-57720978D01*
X134627737Y-57678503D01*
X134567394Y-57532821D01*
X134567390Y-57532815D01*
X134564521Y-57527447D01*
X134566676Y-57526294D01*
X134564241Y-57518512D01*
X134554023Y-57502612D01*
X134549566Y-57471619D01*
X134549019Y-57469869D01*
X134549000Y-57467677D01*
X134549000Y-57467000D01*
X134568685Y-57399961D01*
X134621489Y-57354206D01*
X134673000Y-57343000D01*
X134702831Y-57343000D01*
X134702842Y-57343000D01*
X134806237Y-57336581D01*
X135049614Y-57285550D01*
X135049621Y-57285546D01*
X135049625Y-57285546D01*
X135159795Y-57242557D01*
X135281273Y-57195156D01*
X135494894Y-57067866D01*
X135494898Y-57067861D01*
X135494902Y-57067860D01*
X135684649Y-56907151D01*
X135684651Y-56907149D01*
X135845360Y-56717402D01*
X135845361Y-56717398D01*
X135845366Y-56717394D01*
X135972656Y-56503773D01*
X136063050Y-56272114D01*
X136114081Y-56028737D01*
X136120500Y-55925342D01*
X136120500Y-55009658D01*
X136114081Y-54906263D01*
X136063050Y-54662886D01*
X135988090Y-54470782D01*
X135986649Y-54454147D01*
X135980291Y-54438706D01*
X135983695Y-54420060D01*
X135982059Y-54401176D01*
X135989841Y-54386399D01*
X135992841Y-54369972D01*
X136005784Y-54356127D01*
X136014618Y-54339356D01*
X136029153Y-54331133D01*
X136040558Y-54318935D01*
X136058933Y-54314286D01*
X136075431Y-54304953D01*
X136092621Y-54305762D01*
X136108293Y-54301798D01*
X136143013Y-54308137D01*
X136171149Y-54317567D01*
X136257109Y-54346377D01*
X136267770Y-54350508D01*
X136629803Y-54510361D01*
X136640029Y-54515453D01*
X136828867Y-54620635D01*
X136985763Y-54708026D01*
X136995501Y-54714055D01*
X137317468Y-54934607D01*
X137321984Y-54937700D01*
X137331124Y-54944603D01*
X137635583Y-55197422D01*
X137644047Y-55205138D01*
X137923861Y-55484953D01*
X137931578Y-55493417D01*
X138184397Y-55797877D01*
X138191298Y-55807017D01*
X138414944Y-56133498D01*
X138420974Y-56143236D01*
X138613535Y-56488949D01*
X138618640Y-56499202D01*
X138778489Y-56861226D01*
X138782626Y-56871905D01*
X138810458Y-56954942D01*
X138908388Y-57247124D01*
X138911522Y-57258140D01*
X139002123Y-57643356D01*
X139004228Y-57654615D01*
X139058901Y-58046555D01*
X139059958Y-58057959D01*
X139078367Y-58456133D01*
X139078499Y-58461848D01*
X139078501Y-58482168D01*
X139078501Y-58532457D01*
X139078504Y-58532516D01*
X139079298Y-68638147D01*
X139079166Y-68643883D01*
X139060759Y-69042039D01*
X139059702Y-69053444D01*
X139005029Y-69445384D01*
X139002924Y-69456643D01*
X138912323Y-69841859D01*
X138909189Y-69852875D01*
X138783425Y-70228103D01*
X138779287Y-70238783D01*
X138619446Y-70600789D01*
X138614341Y-70611042D01*
X138421774Y-70956763D01*
X138415745Y-70966501D01*
X138192100Y-71292984D01*
X138185197Y-71302124D01*
X137932378Y-71606583D01*
X137924662Y-71615047D01*
X137644841Y-71894867D01*
X137636377Y-71902583D01*
X137331931Y-72155393D01*
X137322791Y-72162296D01*
X136996302Y-72385945D01*
X136986564Y-72391974D01*
X136640843Y-72584540D01*
X136630590Y-72589645D01*
X136268583Y-72749487D01*
X136257903Y-72753625D01*
X136142893Y-72792172D01*
X136073073Y-72794812D01*
X136012909Y-72759286D01*
X135981504Y-72696872D01*
X135987969Y-72629527D01*
X136063050Y-72437114D01*
X136114081Y-72193737D01*
X136120500Y-72090342D01*
X136120500Y-71174658D01*
X136114081Y-71071263D01*
X136063050Y-70827886D01*
X136063048Y-70827881D01*
X136063046Y-70827874D01*
X135972657Y-70596230D01*
X135972656Y-70596227D01*
X135845366Y-70382606D01*
X135845363Y-70382603D01*
X135845360Y-70382597D01*
X135684651Y-70192850D01*
X135684649Y-70192848D01*
X135494902Y-70032139D01*
X135494894Y-70032134D01*
X135281273Y-69904844D01*
X135281271Y-69904843D01*
X135281269Y-69904842D01*
X135049625Y-69814453D01*
X135049615Y-69814450D01*
X134806238Y-69763419D01*
X134806235Y-69763418D01*
X134702850Y-69757000D01*
X134702842Y-69757000D01*
X134537158Y-69757000D01*
X134537149Y-69757000D01*
X134433764Y-69763418D01*
X134433761Y-69763419D01*
X134190384Y-69814450D01*
X134190374Y-69814453D01*
X133958730Y-69904842D01*
X133745097Y-70032139D01*
X133555350Y-70192848D01*
X133555348Y-70192850D01*
X133444622Y-70323584D01*
X133386273Y-70362019D01*
X133316408Y-70362806D01*
X133257208Y-70325697D01*
X133255378Y-70323584D01*
X133144651Y-70192850D01*
X133144649Y-70192848D01*
X132954902Y-70032139D01*
X132954894Y-70032134D01*
X132741273Y-69904844D01*
X132741271Y-69904843D01*
X132741269Y-69904842D01*
X132509625Y-69814453D01*
X132509615Y-69814450D01*
X132266238Y-69763419D01*
X132266235Y-69763418D01*
X132162850Y-69757000D01*
X132162842Y-69757000D01*
X131997158Y-69757000D01*
X131997149Y-69757000D01*
X131893764Y-69763418D01*
X131893761Y-69763419D01*
X131650384Y-69814450D01*
X131650374Y-69814453D01*
X131418730Y-69904842D01*
X131205097Y-70032139D01*
X131015350Y-70192848D01*
X131015348Y-70192850D01*
X130904622Y-70323584D01*
X130846273Y-70362019D01*
X130776408Y-70362806D01*
X130717208Y-70325697D01*
X130715378Y-70323584D01*
X130604651Y-70192850D01*
X130604649Y-70192848D01*
X130414902Y-70032139D01*
X130414894Y-70032134D01*
X130201273Y-69904844D01*
X130201271Y-69904843D01*
X130201269Y-69904842D01*
X129969625Y-69814453D01*
X129969615Y-69814450D01*
X129726238Y-69763419D01*
X129726235Y-69763418D01*
X129622850Y-69757000D01*
X129622842Y-69757000D01*
X129457158Y-69757000D01*
X129457149Y-69757000D01*
X129353764Y-69763418D01*
X129353761Y-69763419D01*
X129110384Y-69814450D01*
X129110374Y-69814453D01*
X128878730Y-69904842D01*
X128665097Y-70032139D01*
X128475350Y-70192848D01*
X128475348Y-70192850D01*
X128364622Y-70323584D01*
X128306273Y-70362019D01*
X128236408Y-70362806D01*
X128177208Y-70325697D01*
X128175378Y-70323584D01*
X128064651Y-70192850D01*
X128064649Y-70192848D01*
X127874902Y-70032139D01*
X127874894Y-70032134D01*
X127661273Y-69904844D01*
X127661271Y-69904843D01*
X127661269Y-69904842D01*
X127429625Y-69814453D01*
X127429615Y-69814450D01*
X127186238Y-69763419D01*
X127186235Y-69763418D01*
X127082850Y-69757000D01*
X127082842Y-69757000D01*
X126917158Y-69757000D01*
X126917149Y-69757000D01*
X126813764Y-69763418D01*
X126813761Y-69763419D01*
X126570384Y-69814450D01*
X126570374Y-69814453D01*
X126338730Y-69904842D01*
X126125097Y-70032139D01*
X125935350Y-70192848D01*
X125935348Y-70192850D01*
X125824622Y-70323584D01*
X125766273Y-70362019D01*
X125696408Y-70362806D01*
X125637208Y-70325697D01*
X125635378Y-70323584D01*
X125524651Y-70192850D01*
X125524649Y-70192848D01*
X125334902Y-70032139D01*
X125334894Y-70032134D01*
X125121273Y-69904844D01*
X125121271Y-69904843D01*
X125121269Y-69904842D01*
X124889625Y-69814453D01*
X124889615Y-69814450D01*
X124646238Y-69763419D01*
X124646235Y-69763418D01*
X124542850Y-69757000D01*
X124542842Y-69757000D01*
X124377158Y-69757000D01*
X124377149Y-69757000D01*
X124273764Y-69763418D01*
X124273761Y-69763419D01*
X124030384Y-69814450D01*
X124030374Y-69814453D01*
X123798730Y-69904842D01*
X123585097Y-70032139D01*
X123395350Y-70192848D01*
X123395348Y-70192850D01*
X123284622Y-70323584D01*
X123226273Y-70362019D01*
X123156408Y-70362806D01*
X123097208Y-70325697D01*
X123095378Y-70323584D01*
X122984651Y-70192850D01*
X122984649Y-70192848D01*
X122794902Y-70032139D01*
X122794894Y-70032134D01*
X122581273Y-69904844D01*
X122581271Y-69904843D01*
X122581269Y-69904842D01*
X122349625Y-69814453D01*
X122349615Y-69814450D01*
X122106238Y-69763419D01*
X122106235Y-69763418D01*
X122002850Y-69757000D01*
X122002842Y-69757000D01*
X121837158Y-69757000D01*
X121837149Y-69757000D01*
X121733764Y-69763418D01*
X121733761Y-69763419D01*
X121490384Y-69814450D01*
X121490374Y-69814453D01*
X121258730Y-69904842D01*
X121045097Y-70032139D01*
X120855350Y-70192848D01*
X120855348Y-70192850D01*
X120744622Y-70323584D01*
X120686273Y-70362019D01*
X120616408Y-70362806D01*
X120557208Y-70325697D01*
X120555378Y-70323584D01*
X120444651Y-70192850D01*
X120444649Y-70192848D01*
X120254902Y-70032139D01*
X120254894Y-70032134D01*
X120041273Y-69904844D01*
X120041271Y-69904843D01*
X120041269Y-69904842D01*
X119809625Y-69814453D01*
X119809615Y-69814450D01*
X119566238Y-69763419D01*
X119566235Y-69763418D01*
X119462850Y-69757000D01*
X119462842Y-69757000D01*
X119297158Y-69757000D01*
X119297149Y-69757000D01*
X119193764Y-69763418D01*
X119193761Y-69763419D01*
X118950384Y-69814450D01*
X118950374Y-69814453D01*
X118718730Y-69904842D01*
X118505097Y-70032139D01*
X118315350Y-70192848D01*
X118315348Y-70192850D01*
X118154639Y-70382597D01*
X118027342Y-70596230D01*
X117936953Y-70827874D01*
X117936950Y-70827884D01*
X117885919Y-71071261D01*
X117885918Y-71071264D01*
X117879500Y-71174649D01*
X117879500Y-72090350D01*
X117885918Y-72193735D01*
X117885919Y-72193738D01*
X117936950Y-72437115D01*
X117936953Y-72437125D01*
X118027342Y-72668769D01*
X118027344Y-72668773D01*
X118142498Y-72862027D01*
X118159904Y-72929693D01*
X118137964Y-72996029D01*
X118083643Y-73039972D01*
X118035975Y-73049500D01*
X71961873Y-73049500D01*
X71956146Y-73049368D01*
X71557959Y-73030958D01*
X71546555Y-73029901D01*
X71154615Y-72975228D01*
X71143356Y-72973123D01*
X70758140Y-72882522D01*
X70747124Y-72879388D01*
X70371906Y-72753627D01*
X70361226Y-72749489D01*
X69999202Y-72589640D01*
X69988949Y-72584535D01*
X69643236Y-72391973D01*
X69633498Y-72385944D01*
X69307009Y-72162295D01*
X69297869Y-72155392D01*
X68993423Y-71902583D01*
X68984959Y-71894867D01*
X68705132Y-71615040D01*
X68697416Y-71606576D01*
X68444602Y-71302124D01*
X68437704Y-71292990D01*
X68214055Y-70966501D01*
X68208026Y-70956763D01*
X68015464Y-70611050D01*
X68010359Y-70600797D01*
X67850510Y-70238773D01*
X67846376Y-70228103D01*
X67720607Y-69852862D01*
X67717480Y-69841872D01*
X67626874Y-69456636D01*
X67624771Y-69445384D01*
X67570098Y-69053444D01*
X67569041Y-69042040D01*
X67566826Y-68994138D01*
X67550632Y-68643854D01*
X67550500Y-68638127D01*
X67550500Y-66117500D01*
X117135000Y-66117500D01*
X119675000Y-66117500D01*
X119675000Y-62688500D01*
X124755000Y-62688500D01*
X127803000Y-62688500D01*
X127803000Y-59640500D01*
X124755000Y-59640500D01*
X124755000Y-62688500D01*
X119675000Y-62688500D01*
X119675000Y-60402500D01*
X117135000Y-60402500D01*
X117135000Y-66117500D01*
X67550500Y-66117500D01*
X67550500Y-58451851D01*
X67550632Y-58446124D01*
X67552121Y-58413916D01*
X67569041Y-58047950D01*
X67570098Y-58036555D01*
X67624773Y-57644604D01*
X67626873Y-57633367D01*
X67717482Y-57248121D01*
X67720605Y-57237143D01*
X67846379Y-56861886D01*
X67850510Y-56851226D01*
X67863661Y-56821443D01*
X67942677Y-56642488D01*
X68010359Y-56489202D01*
X68015457Y-56478962D01*
X68208029Y-56133230D01*
X68214055Y-56123498D01*
X68437714Y-55796994D01*
X68444596Y-55787882D01*
X68697426Y-55483410D01*
X68705121Y-55474970D01*
X68984970Y-55195121D01*
X68993410Y-55187426D01*
X69297882Y-54934596D01*
X69306994Y-54927714D01*
X69633503Y-54704051D01*
X69643230Y-54698029D01*
X69988962Y-54505457D01*
X69999202Y-54500359D01*
X70325857Y-54356127D01*
X70361228Y-54340509D01*
X70371886Y-54336379D01*
X70747143Y-54210605D01*
X70758121Y-54207482D01*
X71143367Y-54116873D01*
X71154604Y-54114773D01*
X71546564Y-54060097D01*
X71557950Y-54059041D01*
X71956143Y-54040631D01*
X71961851Y-54040500D01*
X118037577Y-54047847D01*
G37*
%TD.AperFunction*%
%TD*%
M02*
