%TF.GenerationSoftware,KiCad,Pcbnew,8.0.6*%
%TF.CreationDate,2025-02-09T14:24:31+00:00*%
%TF.ProjectId,disturbance-free-calling,64697374-7572-4626-916e-63652d667265,rev?*%
%TF.SameCoordinates,Original*%
%TF.FileFunction,Copper,L1,Top*%
%TF.FilePolarity,Positive*%
%FSLAX46Y46*%
G04 Gerber Fmt 4.6, Leading zero omitted, Abs format (unit mm)*
G04 Created by KiCad (PCBNEW 8.0.6) date 2025-02-09 14:24:31*
%MOMM*%
%LPD*%
G01*
G04 APERTURE LIST*
G04 Aperture macros list*
%AMRoundRect*
0 Rectangle with rounded corners*
0 $1 Rounding radius*
0 $2 $3 $4 $5 $6 $7 $8 $9 X,Y pos of 4 corners*
0 Add a 4 corners polygon primitive as box body*
4,1,4,$2,$3,$4,$5,$6,$7,$8,$9,$2,$3,0*
0 Add four circle primitives for the rounded corners*
1,1,$1+$1,$2,$3*
1,1,$1+$1,$4,$5*
1,1,$1+$1,$6,$7*
1,1,$1+$1,$8,$9*
0 Add four rect primitives between the rounded corners*
20,1,$1+$1,$2,$3,$4,$5,0*
20,1,$1+$1,$4,$5,$6,$7,0*
20,1,$1+$1,$6,$7,$8,$9,0*
20,1,$1+$1,$8,$9,$2,$3,0*%
G04 Aperture macros list end*
%TA.AperFunction,SMDPad,CuDef*%
%ADD10RoundRect,0.250000X0.262500X0.450000X-0.262500X0.450000X-0.262500X-0.450000X0.262500X-0.450000X0*%
%TD*%
%TA.AperFunction,SMDPad,CuDef*%
%ADD11RoundRect,0.090000X-0.360000X0.660000X-0.360000X-0.660000X0.360000X-0.660000X0.360000X0.660000X0*%
%TD*%
%TA.AperFunction,SMDPad,CuDef*%
%ADD12RoundRect,0.250000X0.250000X0.475000X-0.250000X0.475000X-0.250000X-0.475000X0.250000X-0.475000X0*%
%TD*%
%TA.AperFunction,ViaPad*%
%ADD13C,0.600000*%
%TD*%
%TA.AperFunction,ViaPad*%
%ADD14C,0.500000*%
%TD*%
%TA.AperFunction,Conductor*%
%ADD15C,0.203200*%
%TD*%
%TA.AperFunction,Conductor*%
%ADD16C,0.381000*%
%TD*%
%TA.AperFunction,Conductor*%
%ADD17C,0.254000*%
%TD*%
%TA.AperFunction,Conductor*%
%ADD18C,0.200000*%
%TD*%
G04 APERTURE END LIST*
D10*
%TO.P,R1,1*%
%TO.N,DATA*%
X137312500Y-65200000D03*
%TO.P,R1,2*%
%TO.N,Net-(U1-PA02_A0_D0)*%
X135487500Y-65200000D03*
%TD*%
D11*
%TO.P,D4,1,VDD*%
%TO.N,+5V*%
X115509372Y-57632500D03*
%TO.P,D4,2,DOUT*%
%TO.N,Net-(D4-DOUT)*%
X112209372Y-57632500D03*
%TO.P,D4,3,VSS*%
%TO.N,GND*%
X112209372Y-62532500D03*
%TO.P,D4,4,DIN*%
%TO.N,Net-(D3-DOUT)*%
X115509372Y-62532500D03*
%TD*%
%TO.P,D10,1,VDD*%
%TO.N,+5V*%
X72247484Y-57632500D03*
%TO.P,D10,2,DOUT*%
%TO.N,unconnected-(D10-DOUT-Pad2)*%
X68947484Y-57632500D03*
%TO.P,D10,3,VSS*%
%TO.N,GND*%
X68947484Y-62532500D03*
%TO.P,D10,4,DIN*%
%TO.N,Net-(D10-DIN)*%
X72247484Y-62532500D03*
%TD*%
D12*
%TO.P,C10,1*%
%TO.N,+5V*%
X72550000Y-55200000D03*
%TO.P,C10,2*%
%TO.N,GND*%
X70650000Y-55200000D03*
%TD*%
D11*
%TO.P,D5,1,VDD*%
%TO.N,+5V*%
X108299058Y-57632500D03*
%TO.P,D5,2,DOUT*%
%TO.N,Net-(D5-DOUT)*%
X104999058Y-57632500D03*
%TO.P,D5,3,VSS*%
%TO.N,GND*%
X104999058Y-62532500D03*
%TO.P,D5,4,DIN*%
%TO.N,Net-(D4-DOUT)*%
X108299058Y-62532500D03*
%TD*%
D12*
%TO.P,C5,1*%
%TO.N,+5V*%
X108587500Y-55200000D03*
%TO.P,C5,2*%
%TO.N,GND*%
X106687500Y-55200000D03*
%TD*%
D11*
%TO.P,D1,1,VDD*%
%TO.N,+5V*%
X137140314Y-57632500D03*
%TO.P,D1,2,DOUT*%
%TO.N,Net-(D1-DOUT)*%
X133840314Y-57632500D03*
%TO.P,D1,3,VSS*%
%TO.N,GND*%
X133840314Y-62532500D03*
%TO.P,D1,4,DIN*%
%TO.N,DATA*%
X137140314Y-62532500D03*
%TD*%
D12*
%TO.P,C4,1*%
%TO.N,+5V*%
X115712500Y-55200000D03*
%TO.P,C4,2*%
%TO.N,GND*%
X113812500Y-55200000D03*
%TD*%
%TO.P,C7,1*%
%TO.N,+5V*%
X94112500Y-55200000D03*
%TO.P,C7,2*%
%TO.N,GND*%
X92212500Y-55200000D03*
%TD*%
D11*
%TO.P,D3,1,VDD*%
%TO.N,+5V*%
X122719686Y-57632500D03*
%TO.P,D3,2,DOUT*%
%TO.N,Net-(D3-DOUT)*%
X119419686Y-57632500D03*
%TO.P,D3,3,VSS*%
%TO.N,GND*%
X119419686Y-62532500D03*
%TO.P,D3,4,DIN*%
%TO.N,Net-(D2-DOUT)*%
X122719686Y-62532500D03*
%TD*%
%TO.P,D7,1,VDD*%
%TO.N,+5V*%
X93878430Y-57632500D03*
%TO.P,D7,2,DOUT*%
%TO.N,Net-(D7-DOUT)*%
X90578430Y-57632500D03*
%TO.P,D7,3,VSS*%
%TO.N,GND*%
X90578430Y-62532500D03*
%TO.P,D7,4,DIN*%
%TO.N,Net-(D6-DOUT)*%
X93878430Y-62532500D03*
%TD*%
D12*
%TO.P,C8,1*%
%TO.N,+5V*%
X86987500Y-55200000D03*
%TO.P,C8,2*%
%TO.N,GND*%
X85087500Y-55200000D03*
%TD*%
%TO.P,C1,1*%
%TO.N,+5V*%
X137312500Y-55200000D03*
%TO.P,C1,2*%
%TO.N,GND*%
X135412500Y-55200000D03*
%TD*%
D11*
%TO.P,D6,1,VDD*%
%TO.N,+5V*%
X101088744Y-57632500D03*
%TO.P,D6,2,DOUT*%
%TO.N,Net-(D6-DOUT)*%
X97788744Y-57632500D03*
%TO.P,D6,3,VSS*%
%TO.N,GND*%
X97788744Y-62532500D03*
%TO.P,D6,4,DIN*%
%TO.N,Net-(D5-DOUT)*%
X101088744Y-62532500D03*
%TD*%
D12*
%TO.P,C6,1*%
%TO.N,+5V*%
X101312500Y-55200000D03*
%TO.P,C6,2*%
%TO.N,GND*%
X99412500Y-55200000D03*
%TD*%
%TO.P,C3,1*%
%TO.N,+5V*%
X122912500Y-55200000D03*
%TO.P,C3,2*%
%TO.N,GND*%
X121012500Y-55200000D03*
%TD*%
%TO.P,C9,1*%
%TO.N,+5V*%
X79712500Y-55200000D03*
%TO.P,C9,2*%
%TO.N,GND*%
X77812500Y-55200000D03*
%TD*%
D11*
%TO.P,D2,1,VDD*%
%TO.N,+5V*%
X129930000Y-57632500D03*
%TO.P,D2,2,DOUT*%
%TO.N,Net-(D2-DOUT)*%
X126630000Y-57632500D03*
%TO.P,D2,3,VSS*%
%TO.N,GND*%
X126630000Y-62532500D03*
%TO.P,D2,4,DIN*%
%TO.N,Net-(D1-DOUT)*%
X129930000Y-62532500D03*
%TD*%
D12*
%TO.P,C2,1*%
%TO.N,+5V*%
X130112500Y-55200000D03*
%TO.P,C2,2*%
%TO.N,GND*%
X128212500Y-55200000D03*
%TD*%
D11*
%TO.P,D8,1,VDD*%
%TO.N,+5V*%
X86668116Y-57632500D03*
%TO.P,D8,2,DOUT*%
%TO.N,Net-(D8-DOUT)*%
X83368116Y-57632500D03*
%TO.P,D8,3,VSS*%
%TO.N,GND*%
X83368116Y-62532500D03*
%TO.P,D8,4,DIN*%
%TO.N,Net-(D7-DOUT)*%
X86668116Y-62532500D03*
%TD*%
%TO.P,D9,1,VDD*%
%TO.N,+5V*%
X79457802Y-57632500D03*
%TO.P,D9,2,DOUT*%
%TO.N,Net-(D10-DIN)*%
X76157802Y-57632500D03*
%TO.P,D9,3,VSS*%
%TO.N,GND*%
X76157802Y-62532500D03*
%TO.P,D9,4,DIN*%
%TO.N,Net-(D8-DOUT)*%
X79457802Y-62532500D03*
%TD*%
D13*
%TO.N,+5V*%
X136200000Y-54084500D03*
D14*
%TO.N,GND*%
X132000000Y-63673000D03*
D13*
%TO.N,Net-(U1-PA02_A0_D0)*%
X135000000Y-66600000D03*
%TD*%
D15*
%TO.N,Net-(D1-DOUT)*%
X133840314Y-57632500D02*
X133840314Y-58622186D01*
X133840314Y-58622186D02*
X129930000Y-62532500D01*
D16*
%TO.N,+5V*%
X136284500Y-54084500D02*
X137400000Y-55200000D01*
X137400000Y-55200000D02*
X137400000Y-57372814D01*
X78684500Y-54084500D02*
X73753000Y-54084500D01*
X79800000Y-57290302D02*
X79457802Y-57632500D01*
X72637500Y-55200000D02*
X72637500Y-57242484D01*
X87075000Y-55200000D02*
X85959500Y-54084500D01*
X94200000Y-55200000D02*
X95315500Y-54084500D01*
X136200000Y-54084500D02*
X131315500Y-54084500D01*
X85959500Y-54084500D02*
X80915500Y-54084500D01*
X114684500Y-54084500D02*
X115800000Y-55200000D01*
X79600000Y-55200000D02*
X79800000Y-55200000D01*
X108675000Y-55200000D02*
X108675000Y-57256558D01*
X87075000Y-57225616D02*
X86668116Y-57632500D01*
X94200000Y-55200000D02*
X94200000Y-57310930D01*
X107559500Y-54084500D02*
X108675000Y-55200000D01*
X129084500Y-54084500D02*
X130200000Y-55200000D01*
X130200000Y-57362500D02*
X129930000Y-57632500D01*
X115800000Y-57341872D02*
X115509372Y-57632500D01*
X101400000Y-55200000D02*
X102515500Y-54084500D01*
X102515500Y-54084500D02*
X107559500Y-54084500D01*
X108675000Y-57256558D02*
X108299058Y-57632500D01*
X79800000Y-55200000D02*
X78684500Y-54084500D01*
X87075000Y-55200000D02*
X88190500Y-54084500D01*
X79800000Y-55200000D02*
X79400000Y-55600000D01*
X73753000Y-54084500D02*
X72637500Y-55200000D01*
X130200000Y-55200000D02*
X130200000Y-57362500D01*
X116915500Y-54084500D02*
X117800000Y-54084500D01*
X94200000Y-57310930D02*
X93878430Y-57632500D01*
X79800000Y-55200000D02*
X79800000Y-57290302D01*
X137400000Y-57372814D02*
X137140314Y-57632500D01*
X93084500Y-54084500D02*
X94200000Y-55200000D01*
X117800000Y-54084500D02*
X121884500Y-54084500D01*
X123000000Y-55200000D02*
X124115500Y-54084500D01*
X115800000Y-55200000D02*
X115800000Y-57341872D01*
X87075000Y-55200000D02*
X87075000Y-57225616D01*
X123000000Y-55200000D02*
X123000000Y-57352186D01*
X79400000Y-57574698D02*
X79457802Y-57632500D01*
X115800000Y-55200000D02*
X116915500Y-54084500D01*
X109915500Y-54084500D02*
X114684500Y-54084500D01*
X108800000Y-55200000D02*
X109915500Y-54084500D01*
X123000000Y-57352186D02*
X122719686Y-57632500D01*
X101400000Y-57321244D02*
X101088744Y-57632500D01*
X108675000Y-55200000D02*
X108800000Y-55200000D01*
X72637500Y-57242484D02*
X72247484Y-57632500D01*
X136200000Y-54084500D02*
X136284500Y-54084500D01*
X121884500Y-54084500D02*
X123000000Y-55200000D01*
X131315500Y-54084500D02*
X130200000Y-55200000D01*
X88190500Y-54084500D02*
X93084500Y-54084500D01*
X95315500Y-54084500D02*
X100284500Y-54084500D01*
X72637500Y-55200000D02*
X72637500Y-55237500D01*
X101400000Y-55200000D02*
X101400000Y-57321244D01*
X100284500Y-54084500D02*
X101400000Y-55200000D01*
X124115500Y-54084500D02*
X129084500Y-54084500D01*
X80915500Y-54084500D02*
X79800000Y-55200000D01*
%TO.N,GND*%
X112209372Y-62532500D02*
X112369058Y-62532500D01*
D17*
X77725000Y-60965302D02*
X76157802Y-62532500D01*
X135325000Y-61047814D02*
X133840314Y-62532500D01*
X120925000Y-61027186D02*
X119419686Y-62532500D01*
D16*
X82227616Y-63673000D02*
X83368116Y-62532500D01*
X70562500Y-55200000D02*
X70562500Y-60917484D01*
X84508616Y-63673000D02*
X89437930Y-63673000D01*
X70562500Y-60917484D02*
X68947484Y-62532500D01*
D17*
X128125000Y-55200000D02*
X128125000Y-61037500D01*
X113725000Y-55200000D02*
X113725000Y-61016872D01*
X128125000Y-61037500D02*
X126630000Y-62532500D01*
X106600000Y-55200000D02*
X106600000Y-60931558D01*
D16*
X103858558Y-63673000D02*
X104999058Y-62532500D01*
X127770500Y-63673000D02*
X132699814Y-63673000D01*
D17*
X77725000Y-55200000D02*
X77725000Y-60965302D01*
D16*
X76157802Y-62532500D02*
X77298302Y-63673000D01*
X89437930Y-63673000D02*
X90578430Y-62532500D01*
X70087984Y-63673000D02*
X75017302Y-63673000D01*
X68947484Y-62532500D02*
X70087984Y-63673000D01*
D17*
X113725000Y-61016872D02*
X112209372Y-62532500D01*
X99325000Y-55200000D02*
X99325000Y-60996244D01*
D16*
X113509558Y-63673000D02*
X116600000Y-63673000D01*
D17*
X92125000Y-60985930D02*
X90578430Y-62532500D01*
D16*
X97788744Y-62532500D02*
X98929244Y-63673000D01*
X111068872Y-63673000D02*
X112209372Y-62532500D01*
X96648244Y-63673000D02*
X97788744Y-62532500D01*
X132699814Y-63673000D02*
X133840314Y-62532500D01*
D17*
X99325000Y-60996244D02*
X97788744Y-62532500D01*
D16*
X106139558Y-63673000D02*
X111068872Y-63673000D01*
X75017302Y-63673000D02*
X76157802Y-62532500D01*
X91718930Y-63673000D02*
X96648244Y-63673000D01*
D17*
X92125000Y-55200000D02*
X92125000Y-60985930D01*
D16*
X83368116Y-62532500D02*
X84508616Y-63673000D01*
X112369058Y-62532500D02*
X113509558Y-63673000D01*
X116600000Y-63673000D02*
X118279186Y-63673000D01*
X120560186Y-63673000D02*
X125489500Y-63673000D01*
X118279186Y-63673000D02*
X119419686Y-62532500D01*
X90578430Y-62532500D02*
X91718930Y-63673000D01*
D17*
X120925000Y-55200000D02*
X120925000Y-61027186D01*
D16*
X132000000Y-63673000D02*
X132699814Y-63673000D01*
X77298302Y-63673000D02*
X82227616Y-63673000D01*
D17*
X135325000Y-55200000D02*
X135325000Y-61047814D01*
X85000000Y-60900616D02*
X83368116Y-62532500D01*
X106600000Y-60931558D02*
X104999058Y-62532500D01*
D16*
X70400000Y-55362500D02*
X70562500Y-55200000D01*
X125489500Y-63673000D02*
X126630000Y-62532500D01*
X119419686Y-62532500D02*
X120560186Y-63673000D01*
D17*
X85000000Y-55200000D02*
X85000000Y-60900616D01*
D16*
X90578430Y-62532500D02*
X90578430Y-62178430D01*
X98929244Y-63673000D02*
X103858558Y-63673000D01*
X126630000Y-62532500D02*
X127770500Y-63673000D01*
X104999058Y-62532500D02*
X106139558Y-63673000D01*
D15*
%TO.N,Net-(D2-DOUT)*%
X126630000Y-57632500D02*
X126630000Y-58622186D01*
X126630000Y-58622186D02*
X122719686Y-62532500D01*
%TO.N,Net-(D3-DOUT)*%
X119419686Y-57632500D02*
X119419686Y-58622186D01*
X119419686Y-58622186D02*
X115509372Y-62532500D01*
%TO.N,Net-(D4-DOUT)*%
X112209372Y-58622186D02*
X108299058Y-62532500D01*
X112209372Y-57632500D02*
X112209372Y-58622186D01*
%TO.N,Net-(D5-DOUT)*%
X104999058Y-57632500D02*
X104999058Y-58622186D01*
X104999058Y-58622186D02*
X101088744Y-62532500D01*
%TO.N,Net-(D6-DOUT)*%
X97788744Y-58622186D02*
X93878430Y-62532500D01*
X97788744Y-57632500D02*
X97788744Y-58622186D01*
%TO.N,Net-(D7-DOUT)*%
X90578430Y-58622186D02*
X86668116Y-62532500D01*
X90578430Y-57632500D02*
X90578430Y-58622186D01*
%TO.N,Net-(D8-DOUT)*%
X83368116Y-58622186D02*
X79457802Y-62532500D01*
X83368116Y-57632500D02*
X83368116Y-58622186D01*
%TO.N,Net-(D10-DIN)*%
X76157802Y-58622182D02*
X72247484Y-62532500D01*
X76157802Y-57632500D02*
X76157802Y-58622182D01*
D18*
%TO.N,DATA*%
X137140314Y-64940314D02*
X137140314Y-62532500D01*
X137400000Y-65200000D02*
X137140314Y-64940314D01*
%TO.N,Net-(U1-PA02_A0_D0)*%
X135000000Y-66600000D02*
X135000000Y-65600000D01*
X135000000Y-65600000D02*
X135400000Y-65200000D01*
%TD*%
M02*
